<mxfile host="Electron" modified="2025-03-17T19:55:18.025Z" agent="Mozilla/5.0 (Windows NT 10.0; Win64; x64) AppleWebKit/537.36 (KHTML, like Gecko) draw.io/23.0.2 Chrome/120.0.6099.109 Electron/28.1.0 Safari/537.36" etag="jcQPuCOx5wzAfi_7I94-" version="23.0.2" type="device">
  <diagram name="Page-1" id="VmJEM63dlZ8Z077wUYMp">
    <mxGraphModel dx="11970" dy="6210" grid="0" gridSize="10" guides="1" tooltips="1" connect="1" arrows="1" fold="1" page="0" pageScale="1" pageWidth="1100" pageHeight="850" math="0" shadow="0">
      <root>
        <mxCell id="0" />
        <mxCell id="1" parent="0" />
        <mxCell id="uESaPEaGpG72Nl8H6VJj-3" value="https://www...com" style="strokeWidth=1;shadow=0;dashed=0;align=center;html=1;shape=mxgraph.mockup.containers.window;align=left;verticalAlign=top;spacingLeft=8;strokeColor2=#008cff;strokeColor3=#c4c4c4;fontColor=#666666;mainText=;fontSize=17;labelBackgroundColor=none;whiteSpace=wrap;" parent="1" vertex="1">
          <mxGeometry x="504" y="-785" width="457" height="255" as="geometry" />
        </mxCell>
        <mxCell id="a5dCra-difjXm44AHX22-107" value="https://www...com/flied_clinic" style="strokeWidth=1;shadow=0;dashed=0;align=center;html=1;shape=mxgraph.mockup.containers.window;align=left;verticalAlign=top;spacingLeft=8;strokeColor2=#008cff;strokeColor3=#c4c4c4;fontColor=#666666;mainText=;fontSize=17;labelBackgroundColor=none;whiteSpace=wrap;" parent="1" vertex="1">
          <mxGeometry x="558" y="-293.5" width="432" height="369" as="geometry" />
        </mxCell>
        <mxCell id="a5dCra-difjXm44AHX22-106" value="https://www...com/flied_clinic" style="strokeWidth=1;shadow=0;dashed=0;align=center;html=1;shape=mxgraph.mockup.containers.window;align=left;verticalAlign=top;spacingLeft=8;strokeColor2=#008cff;strokeColor3=#c4c4c4;fontColor=#666666;mainText=;fontSize=17;labelBackgroundColor=none;whiteSpace=wrap;" parent="1" vertex="1">
          <mxGeometry x="-17" y="-355" width="434" height="539" as="geometry" />
        </mxCell>
        <mxCell id="a5dCra-difjXm44AHX22-1" value="" style="rounded=0;whiteSpace=wrap;html=1;fontSize=16;" parent="1" vertex="1">
          <mxGeometry x="94" y="-307.5" width="222" height="24" as="geometry" />
        </mxCell>
        <mxCell id="a5dCra-difjXm44AHX22-2" value="Name:" style="text;html=1;strokeColor=none;fillColor=none;align=center;verticalAlign=middle;whiteSpace=wrap;rounded=0;fontSize=16;" parent="1" vertex="1">
          <mxGeometry x="34" y="-307.5" width="60" height="24" as="geometry" />
        </mxCell>
        <mxCell id="a5dCra-difjXm44AHX22-5" value="" style="rounded=0;whiteSpace=wrap;html=1;fontSize=16;" parent="1" vertex="1">
          <mxGeometry x="94" y="-273.5" width="305" height="62.5" as="geometry" />
        </mxCell>
        <mxCell id="a5dCra-difjXm44AHX22-6" value="Symptoms:" style="text;html=1;strokeColor=none;fillColor=none;align=center;verticalAlign=middle;whiteSpace=wrap;rounded=0;fontSize=16;" parent="1" vertex="1">
          <mxGeometry x="3" y="-273.5" width="87" height="27" as="geometry" />
        </mxCell>
        <mxCell id="a5dCra-difjXm44AHX22-7" value="" style="group" parent="1" vertex="1" connectable="0">
          <mxGeometry x="320" y="-309" width="79" height="27" as="geometry" />
        </mxCell>
        <mxCell id="a5dCra-difjXm44AHX22-3" value="" style="rounded=0;whiteSpace=wrap;html=1;fontSize=16;" parent="a5dCra-difjXm44AHX22-7" vertex="1">
          <mxGeometry x="43" y="1.5" width="36" height="24" as="geometry" />
        </mxCell>
        <mxCell id="a5dCra-difjXm44AHX22-4" value="Age:" style="text;html=1;strokeColor=none;fillColor=none;align=center;verticalAlign=middle;whiteSpace=wrap;rounded=0;fontSize=16;" parent="a5dCra-difjXm44AHX22-7" vertex="1">
          <mxGeometry width="43" height="27" as="geometry" />
        </mxCell>
        <mxCell id="a5dCra-difjXm44AHX22-8" value="" style="rounded=0;whiteSpace=wrap;html=1;fontSize=16;" parent="1" vertex="1">
          <mxGeometry x="3" y="-116" width="397" height="280" as="geometry" />
        </mxCell>
        <mxCell id="a5dCra-difjXm44AHX22-10" style="edgeStyle=none;curved=1;rounded=0;orthogonalLoop=1;jettySize=auto;html=1;fontSize=12;startSize=8;endSize=8;strokeColor=#949494;" parent="1" source="a5dCra-difjXm44AHX22-9" target="a5dCra-difjXm44AHX22-1" edge="1">
          <mxGeometry relative="1" as="geometry">
            <mxPoint x="197" y="-370" as="targetPoint" />
          </mxGeometry>
        </mxCell>
        <mxCell id="a5dCra-difjXm44AHX22-9" value="autofill if name is recognizable&amp;nbsp;" style="text;html=1;align=center;verticalAlign=middle;resizable=0;points=[];autosize=1;strokeColor=none;fillColor=none;fontSize=16;" parent="1" vertex="1">
          <mxGeometry x="128" y="-445" width="237" height="31" as="geometry" />
        </mxCell>
        <mxCell id="a5dCra-difjXm44AHX22-15" value="" style="group" parent="1" vertex="1" connectable="0">
          <mxGeometry x="18" y="-15" width="374" height="35" as="geometry" />
        </mxCell>
        <mxCell id="a5dCra-difjXm44AHX22-12" value="Patient name" style="rounded=0;whiteSpace=wrap;html=1;fontSize=16;align=center;" parent="a5dCra-difjXm44AHX22-15" vertex="1">
          <mxGeometry width="374" height="35" as="geometry" />
        </mxCell>
        <mxCell id="a5dCra-difjXm44AHX22-13" value="U" style="rounded=0;whiteSpace=wrap;html=1;fontSize=16;" parent="a5dCra-difjXm44AHX22-15" vertex="1">
          <mxGeometry x="5" y="4" width="30" height="27" as="geometry" />
        </mxCell>
        <mxCell id="a5dCra-difjXm44AHX22-14" value="P" style="rounded=0;whiteSpace=wrap;html=1;fontSize=16;" parent="a5dCra-difjXm44AHX22-15" vertex="1">
          <mxGeometry x="40" y="4" width="30" height="27" as="geometry" />
        </mxCell>
        <mxCell id="a5dCra-difjXm44AHX22-17" value="" style="group" parent="1" vertex="1" connectable="0">
          <mxGeometry x="18" y="27" width="374" height="35" as="geometry" />
        </mxCell>
        <mxCell id="a5dCra-difjXm44AHX22-18" value="Patient name" style="rounded=0;whiteSpace=wrap;html=1;fontSize=16;align=center;" parent="a5dCra-difjXm44AHX22-17" vertex="1">
          <mxGeometry width="374" height="35" as="geometry" />
        </mxCell>
        <mxCell id="a5dCra-difjXm44AHX22-19" value="U" style="rounded=0;whiteSpace=wrap;html=1;fontSize=16;" parent="a5dCra-difjXm44AHX22-17" vertex="1">
          <mxGeometry x="5" y="4" width="30" height="27" as="geometry" />
        </mxCell>
        <mxCell id="a5dCra-difjXm44AHX22-20" value="P" style="rounded=0;whiteSpace=wrap;html=1;fontSize=16;" parent="a5dCra-difjXm44AHX22-17" vertex="1">
          <mxGeometry x="40" y="4" width="30" height="27" as="geometry" />
        </mxCell>
        <mxCell id="a5dCra-difjXm44AHX22-21" value="" style="group" parent="1" vertex="1" connectable="0">
          <mxGeometry x="17" y="71" width="374" height="35" as="geometry" />
        </mxCell>
        <mxCell id="a5dCra-difjXm44AHX22-22" value="Patient name" style="rounded=0;whiteSpace=wrap;html=1;fontSize=16;align=center;" parent="a5dCra-difjXm44AHX22-21" vertex="1">
          <mxGeometry width="374" height="35" as="geometry" />
        </mxCell>
        <mxCell id="a5dCra-difjXm44AHX22-23" value="U" style="rounded=0;whiteSpace=wrap;html=1;fontSize=16;" parent="a5dCra-difjXm44AHX22-21" vertex="1">
          <mxGeometry x="5" y="4" width="30" height="27" as="geometry" />
        </mxCell>
        <mxCell id="a5dCra-difjXm44AHX22-24" value="P" style="rounded=0;whiteSpace=wrap;html=1;fontSize=16;" parent="a5dCra-difjXm44AHX22-21" vertex="1">
          <mxGeometry x="40" y="4" width="30" height="27" as="geometry" />
        </mxCell>
        <mxCell id="a5dCra-difjXm44AHX22-29" value="" style="group" parent="1" vertex="1" connectable="0">
          <mxGeometry x="18" y="114" width="371" height="35" as="geometry" />
        </mxCell>
        <mxCell id="a5dCra-difjXm44AHX22-30" value="Patient name" style="rounded=0;whiteSpace=wrap;html=1;fontSize=16;align=center;" parent="a5dCra-difjXm44AHX22-29" vertex="1">
          <mxGeometry width="371" height="35" as="geometry" />
        </mxCell>
        <mxCell id="a5dCra-difjXm44AHX22-31" value="U" style="rounded=0;whiteSpace=wrap;html=1;fontSize=16;" parent="a5dCra-difjXm44AHX22-29" vertex="1">
          <mxGeometry x="4.959893048128342" y="4" width="29.759358288770052" height="27" as="geometry" />
        </mxCell>
        <mxCell id="a5dCra-difjXm44AHX22-33" value="" style="group;labelBackgroundColor=none;strokeWidth=2;fillColor=#f8cecc;strokeColor=#b85450;" parent="1" vertex="1" connectable="0">
          <mxGeometry x="15" y="-108" width="374" height="35" as="geometry" />
        </mxCell>
        <mxCell id="a5dCra-difjXm44AHX22-43" value="" style="group" parent="a5dCra-difjXm44AHX22-33" vertex="1" connectable="0">
          <mxGeometry width="374" height="35" as="geometry" />
        </mxCell>
        <mxCell id="a5dCra-difjXm44AHX22-34" value="&lt;font color=&quot;#0f0f0f&quot;&gt;Patient name&lt;/font&gt;" style="rounded=0;whiteSpace=wrap;html=1;fontSize=16;align=center;fillColor=none;strokeColor=#a3a3a3;" parent="a5dCra-difjXm44AHX22-43" vertex="1">
          <mxGeometry width="374" height="35" as="geometry" />
        </mxCell>
        <mxCell id="a5dCra-difjXm44AHX22-41" value="&lt;font color=&quot;#0f0f0f&quot;&gt;P&lt;/font&gt;" style="rounded=0;whiteSpace=wrap;html=1;fontSize=16;strokeColor=#030303;fontColor=#8A8A8A;" parent="a5dCra-difjXm44AHX22-43" vertex="1">
          <mxGeometry x="39" y="4" width="30" height="27" as="geometry" />
        </mxCell>
        <mxCell id="e8wDKpaH5UQi7zVIwjwI-9" style="edgeStyle=none;curved=1;rounded=0;orthogonalLoop=1;jettySize=auto;html=1;fontSize=12;startSize=8;endSize=8;" parent="1" source="a5dCra-difjXm44AHX22-48" target="a5dCra-difjXm44AHX22-19" edge="1">
          <mxGeometry relative="1" as="geometry" />
        </mxCell>
        <mxCell id="a5dCra-difjXm44AHX22-48" value="Unchecked" style="text;html=1;align=center;verticalAlign=middle;resizable=0;points=[];autosize=1;fontSize=16;labelBorderColor=none;" parent="1" vertex="1">
          <mxGeometry x="-267" y="18.5" width="98" height="31" as="geometry" />
        </mxCell>
        <mxCell id="e8wDKpaH5UQi7zVIwjwI-8" style="edgeStyle=none;curved=1;rounded=0;orthogonalLoop=1;jettySize=auto;html=1;entryX=0;entryY=1;entryDx=0;entryDy=0;fontSize=12;startSize=8;endSize=8;" parent="1" source="a5dCra-difjXm44AHX22-50" target="a5dCra-difjXm44AHX22-20" edge="1">
          <mxGeometry relative="1" as="geometry" />
        </mxCell>
        <mxCell id="a5dCra-difjXm44AHX22-50" value="pneumonia suspected" style="text;html=1;align=center;verticalAlign=middle;resizable=0;points=[];autosize=1;fontSize=16;labelBorderColor=none;" parent="1" vertex="1">
          <mxGeometry x="-257" y="110" width="175" height="31" as="geometry" />
        </mxCell>
        <mxCell id="e8wDKpaH5UQi7zVIwjwI-2" style="edgeStyle=none;curved=1;rounded=0;orthogonalLoop=1;jettySize=auto;html=1;entryX=0;entryY=0.5;entryDx=0;entryDy=0;fontSize=12;startSize=8;endSize=8;" parent="1" source="a5dCra-difjXm44AHX22-54" target="a5dCra-difjXm44AHX22-34" edge="1">
          <mxGeometry relative="1" as="geometry" />
        </mxCell>
        <mxCell id="e8wDKpaH5UQi7zVIwjwI-7" style="edgeStyle=none;curved=1;rounded=0;orthogonalLoop=1;jettySize=auto;html=1;entryX=0;entryY=0.5;entryDx=0;entryDy=0;fontSize=12;startSize=8;endSize=8;" parent="1" source="a5dCra-difjXm44AHX22-54" target="e8wDKpaH5UQi7zVIwjwI-5" edge="1">
          <mxGeometry relative="1" as="geometry" />
        </mxCell>
        <mxCell id="a5dCra-difjXm44AHX22-54" value="checked" style="text;html=1;align=center;verticalAlign=middle;resizable=0;points=[];autosize=1;strokeColor=none;fillColor=none;fontSize=16;" parent="1" vertex="1">
          <mxGeometry x="-267" y="-144" width="78" height="31" as="geometry" />
        </mxCell>
        <mxCell id="a5dCra-difjXm44AHX22-69" value="" style="rounded=0;whiteSpace=wrap;html=1;fontSize=16;" parent="1" vertex="1">
          <mxGeometry x="576" y="-241.5" width="397" height="295" as="geometry" />
        </mxCell>
        <mxCell id="a5dCra-difjXm44AHX22-72" value="" style="group" parent="1" vertex="1" connectable="0">
          <mxGeometry x="587" y="-228.5" width="374" height="35" as="geometry" />
        </mxCell>
        <mxCell id="a5dCra-difjXm44AHX22-73" value="Patient name" style="rounded=0;whiteSpace=wrap;html=1;fontSize=16;align=center;" parent="a5dCra-difjXm44AHX22-72" vertex="1">
          <mxGeometry width="374" height="35" as="geometry" />
        </mxCell>
        <mxCell id="a5dCra-difjXm44AHX22-74" value="U" style="rounded=0;whiteSpace=wrap;html=1;fontSize=16;" parent="a5dCra-difjXm44AHX22-72" vertex="1">
          <mxGeometry x="5" y="4" width="30" height="27" as="geometry" />
        </mxCell>
        <mxCell id="a5dCra-difjXm44AHX22-75" value="P" style="rounded=0;whiteSpace=wrap;html=1;fontSize=16;" parent="a5dCra-difjXm44AHX22-72" vertex="1">
          <mxGeometry x="40" y="4" width="30" height="27" as="geometry" />
        </mxCell>
        <mxCell id="a5dCra-difjXm44AHX22-76" value="" style="group" parent="1" vertex="1" connectable="0">
          <mxGeometry x="587" y="-185.5" width="374" height="35" as="geometry" />
        </mxCell>
        <mxCell id="a5dCra-difjXm44AHX22-77" value="Patient name" style="rounded=0;whiteSpace=wrap;html=1;fontSize=16;align=center;" parent="a5dCra-difjXm44AHX22-76" vertex="1">
          <mxGeometry width="374" height="35" as="geometry" />
        </mxCell>
        <mxCell id="a5dCra-difjXm44AHX22-78" value="U" style="rounded=0;whiteSpace=wrap;html=1;fontSize=16;" parent="a5dCra-difjXm44AHX22-76" vertex="1">
          <mxGeometry x="5" y="4" width="30" height="27" as="geometry" />
        </mxCell>
        <mxCell id="a5dCra-difjXm44AHX22-79" value="P" style="rounded=0;whiteSpace=wrap;html=1;fontSize=16;" parent="a5dCra-difjXm44AHX22-76" vertex="1">
          <mxGeometry x="40" y="4" width="30" height="27" as="geometry" />
        </mxCell>
        <mxCell id="a5dCra-difjXm44AHX22-80" value="" style="group" parent="1" vertex="1" connectable="0">
          <mxGeometry x="587" y="-141.5" width="374" height="35" as="geometry" />
        </mxCell>
        <mxCell id="a5dCra-difjXm44AHX22-81" value="Patient name" style="rounded=0;whiteSpace=wrap;html=1;fontSize=16;align=center;" parent="a5dCra-difjXm44AHX22-80" vertex="1">
          <mxGeometry width="374" height="35" as="geometry" />
        </mxCell>
        <mxCell id="a5dCra-difjXm44AHX22-82" value="U" style="rounded=0;whiteSpace=wrap;html=1;fontSize=16;" parent="a5dCra-difjXm44AHX22-80" vertex="1">
          <mxGeometry x="5" y="4" width="30" height="27" as="geometry" />
        </mxCell>
        <mxCell id="a5dCra-difjXm44AHX22-83" value="P" style="rounded=0;whiteSpace=wrap;html=1;fontSize=16;" parent="a5dCra-difjXm44AHX22-80" vertex="1">
          <mxGeometry x="40" y="4" width="30" height="27" as="geometry" />
        </mxCell>
        <mxCell id="a5dCra-difjXm44AHX22-84" value="" style="group" parent="1" vertex="1" connectable="0">
          <mxGeometry x="587" y="-98.5" width="374" height="35" as="geometry" />
        </mxCell>
        <mxCell id="a5dCra-difjXm44AHX22-85" value="Patient name" style="rounded=0;whiteSpace=wrap;html=1;fontSize=16;align=center;" parent="a5dCra-difjXm44AHX22-84" vertex="1">
          <mxGeometry width="374" height="35" as="geometry" />
        </mxCell>
        <mxCell id="a5dCra-difjXm44AHX22-86" value="U" style="rounded=0;whiteSpace=wrap;html=1;fontSize=16;" parent="a5dCra-difjXm44AHX22-84" vertex="1">
          <mxGeometry x="5" y="4" width="30" height="27" as="geometry" />
        </mxCell>
        <mxCell id="a5dCra-difjXm44AHX22-102" value="&lt;h1&gt;Health worker view&lt;/h1&gt;" style="text;html=1;strokeColor=none;fillColor=none;spacing=5;spacingTop=-20;whiteSpace=wrap;overflow=hidden;rounded=0;fontSize=16;" parent="1" vertex="1">
          <mxGeometry x="66" y="-510" width="309" height="65" as="geometry" />
        </mxCell>
        <mxCell id="a5dCra-difjXm44AHX22-103" value="&lt;h1&gt;Expert clinicians view&amp;nbsp;&lt;/h1&gt;" style="text;html=1;strokeColor=none;fillColor=none;spacing=5;spacingTop=-20;whiteSpace=wrap;overflow=hidden;rounded=0;fontSize=16;" parent="1" vertex="1">
          <mxGeometry x="595" y="-450" width="363" height="67" as="geometry" />
        </mxCell>
        <mxCell id="a5dCra-difjXm44AHX22-105" value="Submit" style="rounded=0;whiteSpace=wrap;html=1;fontSize=16;fillColor=#ffcc99;strokeColor=#36393d;fontColor=#000000;" parent="1" vertex="1">
          <mxGeometry x="245" y="-164.5" width="154" height="27" as="geometry" />
        </mxCell>
        <mxCell id="a5dCra-difjXm44AHX22-108" value="Expert view" style="strokeWidth=1;shadow=0;dashed=0;align=center;html=1;shape=mxgraph.mockup.containers.window;align=left;verticalAlign=top;spacingLeft=8;strokeColor2=#008cff;strokeColor3=#c4c4c4;fontColor=#666666;mainText=;fontSize=17;labelBackgroundColor=none;whiteSpace=wrap;" parent="1" vertex="1">
          <mxGeometry x="1125" y="-445" width="702" height="1003.5" as="geometry" />
        </mxCell>
        <mxCell id="a5dCra-difjXm44AHX22-109" style="edgeStyle=none;curved=1;rounded=0;orthogonalLoop=1;jettySize=auto;html=1;fontSize=12;startSize=8;endSize=8;" parent="1" source="a5dCra-difjXm44AHX22-73" edge="1">
          <mxGeometry relative="1" as="geometry">
            <mxPoint x="1123" y="-214.5" as="targetPoint" />
          </mxGeometry>
        </mxCell>
        <mxCell id="a5dCra-difjXm44AHX22-110" value="Click" style="edgeLabel;html=1;align=center;verticalAlign=middle;resizable=0;points=[];fontSize=16;" parent="a5dCra-difjXm44AHX22-109" vertex="1" connectable="0">
          <mxGeometry x="0.0359" relative="1" as="geometry">
            <mxPoint as="offset" />
          </mxGeometry>
        </mxCell>
        <mxCell id="a5dCra-difjXm44AHX22-111" value="" style="shape=image;verticalLabelPosition=bottom;labelBackgroundColor=default;verticalAlign=top;aspect=fixed;imageAspect=0;image=data:image/jpeg,/9j/4AAQSkZJRgABAQAAAAAAAAD/2wBDAAgGBgcGBQgHBwcJCQgKDBQNDAsLDBkSEw8UHRofHh0aHBwgJC4nICIsIxwcKDcpLDAxNDQ0Hyc5PTgyPC4zNDL/wAALCAD6APoBAREA/8QAGgAAAwEBAQEAAAAAAAAAAAAAAAMEAgEFCP/EACoQAAMBAAIBBAIBBAIDAAAAAAABAgMRITETQVFhBBKRInGBoTJCUrHR/9oACAEBAAA/APn8AAAAANKWzSzNrM0szSzNLM76Yemc9My8zDgw4MOTPAAAAAAAAAAAGlJqZGzA2YNqDazOrM16fXg5+n0d/U44OPPow8zDzF1mJcmHJngAAAAAAAAEuTcyMUm5kfMDZgZMG1BpR2MWfR30kZ9FB6SOPPoU4F1AqoJ9M+Oxbkw5MNcHAAAAAADqXJuZGzJtSNmH8FMZ/Q2c38DFmbWfXg1OY6c/o16Rz0jLzMvPoTWYt5/QqsxV5crjglqGvYU5MNGGjIAAAAHUuRkyOmRsz9DZkbOfJXGfQ6cxk5mvSZqcu/A5Z8HVCD9EYqDFZ9Cnn9GXkKrMTWZPrl78EtQKrMU4FuTIAAAC7GTI6ZGzwjcsbPLKMobotiOh0wOmGjcyNjPljfR6D0WZ9Gvg56D57Csf6RDz4YqpffCFVIioYm48kW0uXz7E9c/BhyKqRTXBkAADcyNlDJRtTz0OnPhDc55LsM+vBbEDZgYpGxHQ7PPllKg6s/PRz0zPpmKjomrMRcCagVWfQmoJtc+U0QaR+raYil2YYukKa4OAB2UNlDZQ2UNiGx0wVZYpl+eS6KozHLPobniOWa4fQzLPhspnM0s/7HPTM1mKvMneYmsxNZIVWYi80TaZ+SPbHlMhuHL7QmkLpLgTSMAAyUNmR0wOlcDoXyOySXuVY0v2PQzaorhLjyPiZ4+SnOE+xyy5XRvPJcj/AEWu0cWbXR39DDj2Rmsn+oh5eRNZ8ciLhE+kpE9JNE9yibSSLbPyR3C7EVImp4FNHDsrsdKHQhstI2qNrnkohMryXLXHB6GPHBZmvoqznwizKOiiM/4HZZp134K/0XAemjnov24/gz6KXbMaQknyR1HwT3HyT3C4JtI6ZJUibkluCTSWiHVcc8oRST8CqQikLGQh0m1yxkyMlcMdE8srmHx4HZS17M9D8eX10ehlm3w+CzPJ9ddlueb9yicuuh+Mc1wVzn0a9FMPR665MOBGufRJcP8AyS3m++RF59dEtz01wSXPbFXHRLpJHpPkh1jyRXPFNC3yKpCuDcDZQ6JZREIdGSfsUxKllEsfkkelhK/yXZQ/D7Ls55RZlK8cFE58LwOxz/q6KlHC8G+H8A114Qpzz7Cbz5XLJbz7ZNcInqCXSOn0SXC5fRPcL4JtIXDIdM12R65kOseeiakJpCzUofBRElMJLzwb9Re3ZuL4fgZGtPxwinO6XbZ6f491yuz1Mapcd/6Lsap9dfwWZN+XwW5cUvBX+PmqfSLVgmlz54D0F9nKwnjoU8FzyK1x4n5ItI45JNOvCI9G0+v/AETaN/X8EmnKfaJ7f0S6Poi09yS/ck0ki0nhk9IUbgdLSHRTGz2bkdn2NzhyymXxHPuj0Pw3ThPzx5PYxTaXPwX4pIrz6Zbm1x8Ho/i8qvJ6MLkas+UZ9LhcsVUf4JNeUnx8Hn6ryQ6/5I9CbRE2i6JNF0RakepHpz5RNbJdOGiW0L4CRsDs+W+h8S+PsbGf32UTlwumU55J+7KJ/HT455L/AML8dzfDbS+z2Mc112+y7LNeeyzLNLn3Lc44nwW/jLhnqYyvPJTMz8r+TNQv18omtL5RHsueSDSeeUQ6R2yLSO/JNpD77TJNIZJpL4ZFrPXgh1RJZLfuR6Imba6ZjlGoQ6I+CnOGU54tlOf4/wBlMYJLgoy/Hn5LMs4S4+CnL9Zvp/36PSxqEvP+i7Jr5RXi1y+KXBbHKS58F34kt8tnpxm02uP7FOeb/XwzNxwn0R3L76J9Zf6Nnn6dN8kWnuR6S2SaLj2JdPHZFp7kerItPcj0ldkek+STSfJJfTYvkbmivNFWaRTmuiqEPlNlGclOcpdryURHXK8lGSa8l+b4XRXg01zx5PQxb+T1fwuH+3LPTivvobOnC89BejaJ7fnkl3/qT445R5e3RBrTa+vo87R8N8Nkmj8+7JdH17kej45/+kmlP2ZJpp5JrryS6cdkmhJohPA7NlWbKsyrMqgohFWRRCKIXRRnJTHS6Ksef9noZ0545XKPS/F0SXRfGjY5aHfVXHYqtOiTbTz2ebtfCbbPP1vrwQ6V5JNGTW+EyLR+SPR+STR+SWyXRtE9V8k+j5FG82VZsrzKsyrNFecorzSKs0iiFPwiiEl4RRHHtwVZT4ZVL6ZVg/6eUVzq5XPk3P5L58IYt3+vaQqt+fHBNpT8sh2rtkOr5JL49+ya+PtEtrn3ItVXZJpNJeCPRPnwS6c9kuhJYi32L5N5srzZXmyrNlebKs6Ks6Ks7Hxb5Hxb+ijPX5SKste+GuEUzXPh9FmD4RRwuX3wdnhv/k/4NPhf9hb88p/6F6VxPHkg19/cj1r9SStJfzwTXc8e5Ndrh9/6JtKXfDJdGiWyXREmiJNF5I7XbFG82VZsrzZVnRVnRVmynNlUUUQ0UQ+hs1x2UZ2VZ38F2OiS59/gd6nZ2dFydenkw9DF6JpkOtpNpePsh2vsiuvZeCe6J7fsTaMmt/ZPdE90S6Mk0ZJYnkM2VZsqzoqzoqzoqzoqzopzopih8UOmvYbDfI+NGivPXlcD5067NrRg9GkYegqteESa6eX7kOttvyyeqEXXIin0T2ya2S6MmuiXSvJLdE1sTyCfDKM6Kc6Ks6Ks6Ks6Ks2U5spzaKYpDopDptcM6r4ZTnfXQxate7O+q/8AyYeq+PJh6t+7MuyfS+eUS1XsJvsRXjyT22TXRNdE10S6US6UTWye2LAZnRVnRTnRVnRVnRTFlEaFEaD41fyOjVjp1GzS/uPi/C+Bn7rsFaD90Z/dGa068k93zyT1fHuJrRCa0XyIuya6JrZLb8kt0TXRNdCG+WcA6nwx+dFWdFOdlEWURZRFj4sfFjp0GzoOnQfGvBv1Q9QHr5Oep0YevXAi9OxFX5E1YirE3ZPdsRdk12TXRLdE11yYAANTXDKYsoiyiLKIsoix8WOm+hs6DJ0Gzpwx0ajFod9X7D1Psy9Rb1FVqJen2KrQTWgi7EXZPdk92T3ZNdeRIAAAbiuCiLKIsoix8WPixs6DpsYrNzoOnTo76h31A9Qy9DL06YqtOxb0F1oJrQRViasnuye7J7sS3yzgAAAAyL4HxY+LHxoPmxsWOnT7GTr9m50Gzoa9QFqHqGfUOPToVWnIp6C6sVViK0E1Yi7J7sS3ycAAAAADc3wPix0aDp0Gzp9jJ0GToMnUZOpr1A9Q56geoZenQt6fYt6inqLrQTWgirE1Ypvk4AAAAAAB1U0NnQdOg2dBk6G1obnQYtTS0O+r9nPU+znqmXr9i3qLegt6C60FVoJq+TAAAAAAAAAAaVtDJ0GToMWhudDS0+zq0O+oHqHPU+zL0MPQW9DD0FuzDfJwAAAAAAAAAAANybRtG0dADhkyxbMM4AAAAAAf/9k=;" parent="1" vertex="1">
          <mxGeometry x="1264" y="-395.5" width="397" height="397" as="geometry" />
        </mxCell>
        <mxCell id="a5dCra-difjXm44AHX22-112" value="&lt;b&gt;Name:&lt;/b&gt; ~~~~~~~~~~~~~~" style="text;html=1;strokeColor=none;fillColor=none;align=center;verticalAlign=middle;whiteSpace=wrap;rounded=0;fontSize=16;" parent="1" vertex="1">
          <mxGeometry x="1187" y="14.5" width="206" height="35" as="geometry" />
        </mxCell>
        <mxCell id="a5dCra-difjXm44AHX22-113" value="&lt;b&gt;Age&lt;/b&gt;: ~~~" style="text;html=1;strokeColor=none;fillColor=none;align=center;verticalAlign=middle;whiteSpace=wrap;rounded=0;fontSize=16;" parent="1" vertex="1">
          <mxGeometry x="1409" y="14.5" width="95" height="35" as="geometry" />
        </mxCell>
        <mxCell id="a5dCra-difjXm44AHX22-114" value="&lt;b&gt;Symptoms:&lt;/b&gt;" style="text;html=1;strokeColor=none;fillColor=none;align=center;verticalAlign=middle;whiteSpace=wrap;rounded=0;fontSize=16;" parent="1" vertex="1">
          <mxGeometry x="1194" y="60.5" width="86" height="30" as="geometry" />
        </mxCell>
        <mxCell id="a5dCra-difjXm44AHX22-115" value="~~~~~~~~~~~~~~~~~~~~~~~~~~~~~~~&lt;br&gt;~~~~~~~~~~~~~~~~~~~~~~~~~~~~~&lt;br&gt;~~~~~~~~~~~~~~~~~~~&lt;br&gt;~~~~~~~~~~~~~~~~~~~~~~~~~~&lt;br&gt;~~~~~~~~~~~~~~~~~~~~~~~~~~&lt;br&gt;~~~~~~~~~~~~~~~~~~~" style="text;html=1;strokeColor=none;fillColor=none;align=left;verticalAlign=middle;whiteSpace=wrap;rounded=0;fontSize=16;" parent="1" vertex="1">
          <mxGeometry x="1287" y="56.5" width="295" height="123" as="geometry" />
        </mxCell>
        <mxCell id="a5dCra-difjXm44AHX22-116" value="" style="rounded=0;whiteSpace=wrap;html=1;fontSize=16;fontColor=#9e9e9e;" parent="1" vertex="1">
          <mxGeometry x="1160" y="251.5" width="631" height="240.5" as="geometry" />
        </mxCell>
        <mxCell id="a5dCra-difjXm44AHX22-117" value="&lt;b&gt;Prescribe:&lt;/b&gt;" style="text;html=1;strokeColor=none;fillColor=none;align=center;verticalAlign=middle;whiteSpace=wrap;rounded=0;fontSize=16;" parent="1" vertex="1">
          <mxGeometry x="1160" y="219.5" width="86" height="32" as="geometry" />
        </mxCell>
        <mxCell id="a5dCra-difjXm44AHX22-119" value="&lt;h1&gt;&lt;font color=&quot;#8a8a8a&quot;&gt;Text field&lt;/font&gt;&lt;/h1&gt;" style="text;html=1;strokeColor=none;fillColor=none;spacing=5;spacingTop=-20;whiteSpace=wrap;overflow=hidden;rounded=0;fontSize=16;" parent="1" vertex="1">
          <mxGeometry x="1166" y="263.5" width="156" height="58" as="geometry" />
        </mxCell>
        <mxCell id="a5dCra-difjXm44AHX22-123" value="Submit" style="rounded=0;whiteSpace=wrap;html=1;fontSize=16;fillColor=#ffcc99;strokeColor=#36393d;fontColor=#000000;" parent="1" vertex="1">
          <mxGeometry x="1637" y="512" width="154" height="27" as="geometry" />
        </mxCell>
        <mxCell id="a5dCra-difjXm44AHX22-127" value="Pool" style="swimlane;html=1;childLayout=stackLayout;startSize=20;rounded=0;shadow=0;comic=0;labelBackgroundColor=none;strokeWidth=1;fontFamily=Verdana;fontSize=12;align=center;" parent="1" vertex="1">
          <mxGeometry x="2244" y="-1068" width="771" height="1186" as="geometry" />
        </mxCell>
        <mxCell id="a5dCra-difjXm44AHX22-128" value="filed clinic" style="swimlane;html=1;startSize=20;fontSize=16;" parent="a5dCra-difjXm44AHX22-127" vertex="1">
          <mxGeometry y="20" width="271" height="1166" as="geometry" />
        </mxCell>
        <mxCell id="a5dCra-difjXm44AHX22-202" style="edgeStyle=none;curved=1;rounded=0;orthogonalLoop=1;jettySize=auto;html=1;fontSize=12;startSize=8;endSize=8;" parent="a5dCra-difjXm44AHX22-128" source="a5dCra-difjXm44AHX22-130" target="a5dCra-difjXm44AHX22-191" edge="1">
          <mxGeometry relative="1" as="geometry" />
        </mxCell>
        <mxCell id="a5dCra-difjXm44AHX22-130" value="Health worker takes and chest xray of the patient" style="rounded=1;whiteSpace=wrap;html=1;shadow=0;comic=0;labelBackgroundColor=none;strokeWidth=1;fontFamily=Verdana;fontSize=12;align=center;arcSize=50;" parent="a5dCra-difjXm44AHX22-128" vertex="1">
          <mxGeometry x="53.25" y="194" width="140.5" height="60" as="geometry" />
        </mxCell>
        <mxCell id="a5dCra-difjXm44AHX22-155" value="" style="ellipse;whiteSpace=wrap;html=1;rounded=0;shadow=0;comic=0;labelBackgroundColor=none;strokeWidth=1;fillColor=#000000;fontFamily=Verdana;fontSize=12;align=center;" parent="a5dCra-difjXm44AHX22-128" vertex="1">
          <mxGeometry x="103.5" y="38" width="40" height="40" as="geometry" />
        </mxCell>
        <mxCell id="a5dCra-difjXm44AHX22-190" style="edgeStyle=none;curved=1;rounded=0;orthogonalLoop=1;jettySize=auto;html=1;fontSize=12;startSize=8;endSize=8;" parent="a5dCra-difjXm44AHX22-128" source="a5dCra-difjXm44AHX22-156" target="a5dCra-difjXm44AHX22-130" edge="1">
          <mxGeometry relative="1" as="geometry" />
        </mxCell>
        <mxCell id="a5dCra-difjXm44AHX22-156" value="Patient visits the clinic" style="rounded=1;whiteSpace=wrap;html=1;shadow=0;comic=0;labelBackgroundColor=none;strokeWidth=1;fontFamily=Verdana;fontSize=12;align=center;arcSize=50;" parent="a5dCra-difjXm44AHX22-128" vertex="1">
          <mxGeometry x="75" y="112" width="97" height="40" as="geometry" />
        </mxCell>
        <mxCell id="a5dCra-difjXm44AHX22-154" style="edgeStyle=orthogonalEdgeStyle;rounded=0;html=1;labelBackgroundColor=none;startArrow=none;startFill=0;startSize=5;endArrow=classicThin;endFill=1;endSize=5;jettySize=auto;orthogonalLoop=1;strokeWidth=1;fontFamily=Verdana;fontSize=12" parent="a5dCra-difjXm44AHX22-128" source="a5dCra-difjXm44AHX22-155" target="a5dCra-difjXm44AHX22-156" edge="1">
          <mxGeometry relative="1" as="geometry" />
        </mxCell>
        <mxCell id="a5dCra-difjXm44AHX22-191" value="Health worker uploads the information with the image to the web app" style="rounded=1;whiteSpace=wrap;html=1;shadow=0;comic=0;labelBackgroundColor=none;strokeWidth=1;fontFamily=Verdana;fontSize=12;align=center;arcSize=50;" parent="a5dCra-difjXm44AHX22-128" vertex="1">
          <mxGeometry x="48.13" y="283" width="153.75" height="60" as="geometry" />
        </mxCell>
        <mxCell id="a5dCra-difjXm44AHX22-301" style="edgeStyle=none;curved=1;rounded=0;orthogonalLoop=1;jettySize=auto;html=1;fontSize=12;startSize=8;endSize=8;" parent="a5dCra-difjXm44AHX22-128" source="a5dCra-difjXm44AHX22-206" target="a5dCra-difjXm44AHX22-299" edge="1">
          <mxGeometry relative="1" as="geometry" />
        </mxCell>
        <mxCell id="a5dCra-difjXm44AHX22-206" value="Send patient to the &lt;b&gt;urgent queue&lt;/b&gt;" style="rounded=1;whiteSpace=wrap;html=1;shadow=0;comic=0;labelBackgroundColor=none;strokeWidth=1;fontFamily=Verdana;fontSize=12;align=center;arcSize=50;" parent="a5dCra-difjXm44AHX22-128" vertex="1">
          <mxGeometry x="130" y="904" width="129.88" height="49" as="geometry" />
        </mxCell>
        <mxCell id="a5dCra-difjXm44AHX22-300" style="edgeStyle=none;curved=1;rounded=0;orthogonalLoop=1;jettySize=auto;html=1;fontSize=12;startSize=8;endSize=8;" parent="a5dCra-difjXm44AHX22-128" source="a5dCra-difjXm44AHX22-217" target="a5dCra-difjXm44AHX22-299" edge="1">
          <mxGeometry relative="1" as="geometry" />
        </mxCell>
        <mxCell id="a5dCra-difjXm44AHX22-217" value="Send patient to &lt;b&gt;non-urgent&lt;/b&gt; &lt;b&gt;queue&lt;/b&gt;" style="rounded=1;whiteSpace=wrap;html=1;shadow=0;comic=0;labelBackgroundColor=none;strokeWidth=1;fontFamily=Verdana;fontSize=12;align=center;arcSize=50;" parent="a5dCra-difjXm44AHX22-128" vertex="1">
          <mxGeometry x="5.779999999999999" y="958" width="134.88" height="49" as="geometry" />
        </mxCell>
        <mxCell id="a5dCra-difjXm44AHX22-195" value="List updated" style="rounded=1;whiteSpace=wrap;html=1;shadow=0;comic=0;labelBackgroundColor=none;strokeWidth=1;fontFamily=Verdana;fontSize=12;align=center;arcSize=50;" parent="a5dCra-difjXm44AHX22-128" vertex="1">
          <mxGeometry x="73" y="454" width="112.88" height="35" as="geometry" />
        </mxCell>
        <mxCell id="a5dCra-difjXm44AHX22-244" style="edgeStyle=none;curved=1;rounded=0;orthogonalLoop=1;jettySize=auto;html=1;fontSize=12;startSize=8;endSize=8;" parent="a5dCra-difjXm44AHX22-128" source="a5dCra-difjXm44AHX22-229" edge="1">
          <mxGeometry relative="1" as="geometry">
            <mxPoint x="127" y="756" as="targetPoint" />
          </mxGeometry>
        </mxCell>
        <mxCell id="a5dCra-difjXm44AHX22-229" value="List updated" style="rounded=1;whiteSpace=wrap;html=1;shadow=0;comic=0;labelBackgroundColor=none;strokeWidth=1;fontFamily=Verdana;fontSize=12;align=center;arcSize=50;" parent="a5dCra-difjXm44AHX22-128" vertex="1">
          <mxGeometry x="70.55999999999999" y="659" width="112.88" height="35" as="geometry" />
        </mxCell>
        <mxCell id="a5dCra-difjXm44AHX22-295" style="edgeStyle=none;curved=1;rounded=0;orthogonalLoop=1;jettySize=auto;html=1;fontSize=12;startSize=8;endSize=8;" parent="a5dCra-difjXm44AHX22-128" source="a5dCra-difjXm44AHX22-245" target="a5dCra-difjXm44AHX22-294" edge="1">
          <mxGeometry relative="1" as="geometry" />
        </mxCell>
        <mxCell id="a5dCra-difjXm44AHX22-297" style="edgeStyle=none;curved=1;rounded=0;orthogonalLoop=1;jettySize=auto;html=1;fontSize=12;startSize=8;endSize=8;" parent="a5dCra-difjXm44AHX22-128" source="a5dCra-difjXm44AHX22-245" target="a5dCra-difjXm44AHX22-246" edge="1">
          <mxGeometry relative="1" as="geometry" />
        </mxCell>
        <mxCell id="a5dCra-difjXm44AHX22-245" value="HW sees change" style="rounded=1;whiteSpace=wrap;html=1;shadow=0;comic=0;labelBackgroundColor=none;strokeWidth=1;fontFamily=Verdana;fontSize=12;align=center;arcSize=50;" parent="a5dCra-difjXm44AHX22-128" vertex="1">
          <mxGeometry x="68.22" y="757" width="122.44" height="34" as="geometry" />
        </mxCell>
        <mxCell id="a5dCra-difjXm44AHX22-298" style="edgeStyle=none;curved=1;rounded=0;orthogonalLoop=1;jettySize=auto;html=1;fontSize=12;startSize=8;endSize=8;" parent="a5dCra-difjXm44AHX22-128" source="a5dCra-difjXm44AHX22-246" target="a5dCra-difjXm44AHX22-206" edge="1">
          <mxGeometry relative="1" as="geometry" />
        </mxCell>
        <mxCell id="a5dCra-difjXm44AHX22-246" value="HAS P" style="rounded=1;whiteSpace=wrap;html=1;shadow=0;comic=0;labelBackgroundColor=none;strokeWidth=1;fontFamily=Verdana;fontSize=12;align=center;arcSize=50;" parent="a5dCra-difjXm44AHX22-128" vertex="1">
          <mxGeometry x="166.97" y="828" width="55.94" height="34" as="geometry" />
        </mxCell>
        <mxCell id="a5dCra-difjXm44AHX22-296" style="edgeStyle=none;curved=1;rounded=0;orthogonalLoop=1;jettySize=auto;html=1;fontSize=12;startSize=8;endSize=8;" parent="a5dCra-difjXm44AHX22-128" source="a5dCra-difjXm44AHX22-294" target="a5dCra-difjXm44AHX22-217" edge="1">
          <mxGeometry relative="1" as="geometry" />
        </mxCell>
        <mxCell id="a5dCra-difjXm44AHX22-294" value="DOSNT HAVE P" style="rounded=1;whiteSpace=wrap;html=1;shadow=0;comic=0;labelBackgroundColor=none;strokeWidth=1;fontFamily=Verdana;fontSize=12;align=center;arcSize=50;" parent="a5dCra-difjXm44AHX22-128" vertex="1">
          <mxGeometry x="39" y="832" width="68.44" height="37" as="geometry" />
        </mxCell>
        <mxCell id="a5dCra-difjXm44AHX22-170" value="" style="shape=mxgraph.bpmn.shape;html=1;verticalLabelPosition=bottom;labelBackgroundColor=#ffffff;verticalAlign=top;perimeter=ellipsePerimeter;outline=end;symbol=terminate;rounded=0;shadow=0;comic=0;strokeWidth=1;fontFamily=Verdana;fontSize=12;align=center;" parent="a5dCra-difjXm44AHX22-128" vertex="1">
          <mxGeometry x="109.44000000000005" y="1093" width="40" height="40" as="geometry" />
        </mxCell>
        <mxCell id="a5dCra-difjXm44AHX22-302" style="edgeStyle=none;curved=1;rounded=0;orthogonalLoop=1;jettySize=auto;html=1;fontSize=12;startSize=8;endSize=8;" parent="a5dCra-difjXm44AHX22-128" source="a5dCra-difjXm44AHX22-299" target="a5dCra-difjXm44AHX22-170" edge="1">
          <mxGeometry relative="1" as="geometry" />
        </mxCell>
        <mxCell id="a5dCra-difjXm44AHX22-299" value="" style="rounded=0;whiteSpace=wrap;html=1;fontSize=16;" parent="a5dCra-difjXm44AHX22-128" vertex="1">
          <mxGeometry x="69.5" y="1045" width="115" height="15" as="geometry" />
        </mxCell>
        <mxCell id="a5dCra-difjXm44AHX22-137" value="web app" style="swimlane;html=1;startSize=20;fontSize=16;" parent="a5dCra-difjXm44AHX22-127" vertex="1">
          <mxGeometry x="271" y="20" width="250" height="1166" as="geometry" />
        </mxCell>
        <mxCell id="a5dCra-difjXm44AHX22-143" style="edgeStyle=orthogonalEdgeStyle;rounded=0;html=1;entryX=0.25;entryY=0;labelBackgroundColor=none;startArrow=none;startFill=0;startSize=5;endArrow=classicThin;endFill=1;endSize=5;jettySize=auto;orthogonalLoop=1;strokeWidth=1;fontFamily=Verdana;fontSize=12" parent="a5dCra-difjXm44AHX22-137" edge="1">
          <mxGeometry relative="1" as="geometry">
            <mxPoint x="63.0344827586207" y="373" as="sourcePoint" />
          </mxGeometry>
        </mxCell>
        <mxCell id="a5dCra-difjXm44AHX22-205" style="edgeStyle=none;curved=1;rounded=0;orthogonalLoop=1;jettySize=auto;html=1;fontSize=12;startSize=8;endSize=8;" parent="a5dCra-difjXm44AHX22-137" source="a5dCra-difjXm44AHX22-192" target="a5dCra-difjXm44AHX22-196" edge="1">
          <mxGeometry relative="1" as="geometry" />
        </mxCell>
        <mxCell id="a5dCra-difjXm44AHX22-192" value="App cheks for P" style="rounded=1;whiteSpace=wrap;html=1;shadow=0;comic=0;labelBackgroundColor=none;strokeWidth=1;fontFamily=Verdana;fontSize=12;align=center;arcSize=50;" parent="a5dCra-difjXm44AHX22-137" vertex="1">
          <mxGeometry x="59" y="289" width="112.88" height="35" as="geometry" />
        </mxCell>
        <mxCell id="a5dCra-difjXm44AHX22-198" style="edgeStyle=none;curved=1;rounded=0;orthogonalLoop=1;jettySize=auto;html=1;entryX=0.5;entryY=0;entryDx=0;entryDy=0;fontSize=12;startSize=8;endSize=8;" parent="a5dCra-difjXm44AHX22-137" source="a5dCra-difjXm44AHX22-196" target="a5dCra-difjXm44AHX22-197" edge="1">
          <mxGeometry relative="1" as="geometry" />
        </mxCell>
        <mxCell id="a5dCra-difjXm44AHX22-196" value="app adds the creates a record with the for the patient with the&lt;br&gt;&lt;b&gt;SUSPECTED P: TRUE&lt;/b&gt;&lt;br&gt;&lt;b&gt;ACTUAL P: NULL&lt;/b&gt;" style="rounded=1;whiteSpace=wrap;html=1;shadow=0;comic=0;labelBackgroundColor=none;strokeWidth=1;fontFamily=Verdana;fontSize=12;align=center;arcSize=50;" parent="a5dCra-difjXm44AHX22-137" vertex="1">
          <mxGeometry x="8" y="342" width="221" height="83" as="geometry" />
        </mxCell>
        <mxCell id="a5dCra-difjXm44AHX22-197" value="" style="rounded=0;whiteSpace=wrap;html=1;fontSize=16;" parent="a5dCra-difjXm44AHX22-137" vertex="1">
          <mxGeometry x="61" y="464" width="115" height="15" as="geometry" />
        </mxCell>
        <mxCell id="a5dCra-difjXm44AHX22-241" style="edgeStyle=none;curved=1;rounded=0;orthogonalLoop=1;jettySize=auto;html=1;fontSize=12;startSize=8;endSize=8;" parent="a5dCra-difjXm44AHX22-137" source="a5dCra-difjXm44AHX22-237" target="a5dCra-difjXm44AHX22-240" edge="1">
          <mxGeometry relative="1" as="geometry" />
        </mxCell>
        <mxCell id="a5dCra-difjXm44AHX22-237" value="Update patient record&lt;br&gt;SP:T&lt;br&gt;AP:T" style="rounded=1;whiteSpace=wrap;html=1;shadow=0;comic=0;labelBackgroundColor=none;strokeWidth=1;fontFamily=Verdana;fontSize=12;align=center;arcSize=50;" parent="a5dCra-difjXm44AHX22-137" vertex="1">
          <mxGeometry x="42.75" y="542" width="164.5" height="64" as="geometry" />
        </mxCell>
        <mxCell id="a5dCra-difjXm44AHX22-240" value="" style="rounded=0;whiteSpace=wrap;html=1;fontSize=16;" parent="a5dCra-difjXm44AHX22-137" vertex="1">
          <mxGeometry x="68.56" y="669" width="115" height="15" as="geometry" />
        </mxCell>
        <mxCell id="a5dCra-difjXm44AHX22-200" style="edgeStyle=none;curved=0;rounded=0;orthogonalLoop=1;jettySize=auto;html=1;fontSize=12;startSize=8;endSize=8;" parent="a5dCra-difjXm44AHX22-127" source="a5dCra-difjXm44AHX22-197" target="a5dCra-difjXm44AHX22-201" edge="1">
          <mxGeometry relative="1" as="geometry">
            <mxPoint x="550.1379310344828" y="491.5" as="targetPoint" />
          </mxGeometry>
        </mxCell>
        <mxCell id="a5dCra-difjXm44AHX22-204" style="edgeStyle=none;curved=1;rounded=0;orthogonalLoop=1;jettySize=auto;html=1;fontSize=12;startSize=8;endSize=8;" parent="a5dCra-difjXm44AHX22-127" source="a5dCra-difjXm44AHX22-191" target="a5dCra-difjXm44AHX22-192" edge="1">
          <mxGeometry relative="1" as="geometry" />
        </mxCell>
        <mxCell id="a5dCra-difjXm44AHX22-199" style="edgeStyle=none;curved=1;rounded=0;orthogonalLoop=1;jettySize=auto;html=1;fontSize=12;startSize=8;endSize=8;" parent="a5dCra-difjXm44AHX22-127" source="a5dCra-difjXm44AHX22-197" target="a5dCra-difjXm44AHX22-195" edge="1">
          <mxGeometry relative="1" as="geometry" />
        </mxCell>
        <mxCell id="a5dCra-difjXm44AHX22-239" style="edgeStyle=none;curved=1;rounded=0;orthogonalLoop=1;jettySize=auto;html=1;fontSize=12;startSize=8;endSize=8;" parent="a5dCra-difjXm44AHX22-127" source="a5dCra-difjXm44AHX22-218" target="a5dCra-difjXm44AHX22-237" edge="1">
          <mxGeometry relative="1" as="geometry" />
        </mxCell>
        <mxCell id="a5dCra-difjXm44AHX22-242" style="edgeStyle=none;curved=1;rounded=0;orthogonalLoop=1;jettySize=auto;html=1;fontSize=12;startSize=8;endSize=8;" parent="a5dCra-difjXm44AHX22-127" source="a5dCra-difjXm44AHX22-240" target="a5dCra-difjXm44AHX22-231" edge="1">
          <mxGeometry relative="1" as="geometry" />
        </mxCell>
        <mxCell id="a5dCra-difjXm44AHX22-243" style="edgeStyle=none;curved=1;rounded=0;orthogonalLoop=1;jettySize=auto;html=1;fontSize=12;startSize=8;endSize=8;" parent="a5dCra-difjXm44AHX22-127" source="a5dCra-difjXm44AHX22-240" target="a5dCra-difjXm44AHX22-229" edge="1">
          <mxGeometry relative="1" as="geometry" />
        </mxCell>
        <mxCell id="a5dCra-difjXm44AHX22-153" value="expert hospital" style="swimlane;html=1;startSize=20;fontSize=16;" parent="a5dCra-difjXm44AHX22-127" vertex="1">
          <mxGeometry x="521" y="20" width="250" height="1166" as="geometry" />
        </mxCell>
        <mxCell id="a5dCra-difjXm44AHX22-157" style="rounded=0;html=1;labelBackgroundColor=none;startArrow=none;startFill=0;startSize=5;endArrow=classicThin;endFill=1;endSize=5;jettySize=auto;orthogonalLoop=1;strokeWidth=1;fontFamily=Verdana;fontSize=12" parent="a5dCra-difjXm44AHX22-153" edge="1">
          <mxGeometry relative="1" as="geometry">
            <mxPoint x="83.75" y="238" as="sourcePoint" />
          </mxGeometry>
        </mxCell>
        <mxCell id="a5dCra-difjXm44AHX22-159" style="edgeStyle=none;rounded=0;html=1;labelBackgroundColor=none;startArrow=none;startFill=0;startSize=5;endArrow=classicThin;endFill=1;endSize=5;jettySize=auto;orthogonalLoop=1;strokeWidth=1;fontFamily=Verdana;fontSize=12" parent="a5dCra-difjXm44AHX22-153" edge="1">
          <mxGeometry relative="1" as="geometry">
            <mxPoint x="35" y="367.2222222222222" as="targetPoint" />
          </mxGeometry>
        </mxCell>
        <mxCell id="a5dCra-difjXm44AHX22-166" style="edgeStyle=none;rounded=0;html=1;labelBackgroundColor=none;startArrow=none;startFill=0;startSize=5;endArrow=classicThin;endFill=1;endSize=5;jettySize=auto;orthogonalLoop=1;strokeWidth=1;fontFamily=Verdana;fontSize=12" parent="a5dCra-difjXm44AHX22-153" edge="1">
          <mxGeometry relative="1" as="geometry">
            <mxPoint x="120" y="700" as="sourcePoint" />
          </mxGeometry>
        </mxCell>
        <mxCell id="a5dCra-difjXm44AHX22-171" style="edgeStyle=none;rounded=0;html=1;dashed=1;labelBackgroundColor=none;startArrow=none;startFill=0;startSize=5;endArrow=oval;endFill=0;endSize=5;jettySize=auto;orthogonalLoop=1;strokeWidth=1;fontFamily=Verdana;fontSize=12" parent="a5dCra-difjXm44AHX22-153" edge="1">
          <mxGeometry relative="1" as="geometry">
            <mxPoint x="122.9545454545455" y="238" as="targetPoint" />
          </mxGeometry>
        </mxCell>
        <mxCell id="a5dCra-difjXm44AHX22-172" style="edgeStyle=none;rounded=0;html=1;dashed=1;labelBackgroundColor=none;startArrow=none;startFill=0;startSize=5;endArrow=oval;endFill=0;endSize=5;jettySize=auto;orthogonalLoop=1;strokeWidth=1;fontFamily=Verdana;fontSize=12" parent="a5dCra-difjXm44AHX22-153" edge="1">
          <mxGeometry relative="1" as="geometry">
            <mxPoint x="85" y="281.81355932203405" as="targetPoint" />
          </mxGeometry>
        </mxCell>
        <mxCell id="a5dCra-difjXm44AHX22-174" style="edgeStyle=none;rounded=0;html=1;dashed=1;labelBackgroundColor=none;startArrow=none;startFill=0;startSize=5;endArrow=oval;endFill=0;endSize=5;jettySize=auto;orthogonalLoop=1;strokeWidth=1;fontFamily=Verdana;fontSize=12" parent="a5dCra-difjXm44AHX22-153" edge="1">
          <mxGeometry relative="1" as="geometry">
            <mxPoint x="154.74358974358984" y="415" as="sourcePoint" />
          </mxGeometry>
        </mxCell>
        <mxCell id="a5dCra-difjXm44AHX22-175" style="edgeStyle=none;rounded=0;html=1;dashed=1;labelBackgroundColor=none;startArrow=none;startFill=0;startSize=5;endArrow=oval;endFill=0;endSize=5;jettySize=auto;orthogonalLoop=1;strokeWidth=1;fontFamily=Verdana;fontSize=12" parent="a5dCra-difjXm44AHX22-153" edge="1">
          <mxGeometry relative="1" as="geometry">
            <mxPoint x="35" y="389.53846153846143" as="targetPoint" />
          </mxGeometry>
        </mxCell>
        <mxCell id="a5dCra-difjXm44AHX22-177" style="edgeStyle=none;rounded=0;html=1;dashed=1;labelBackgroundColor=none;startArrow=none;startFill=0;startSize=5;endArrow=oval;endFill=0;endSize=5;jettySize=auto;orthogonalLoop=1;strokeWidth=1;fontFamily=Verdana;fontSize=12" parent="a5dCra-difjXm44AHX22-153" edge="1">
          <mxGeometry relative="1" as="geometry">
            <mxPoint x="156.96428571428578" y="640" as="sourcePoint" />
          </mxGeometry>
        </mxCell>
        <mxCell id="a5dCra-difjXm44AHX22-180" style="edgeStyle=none;rounded=0;html=1;dashed=1;labelBackgroundColor=none;startArrow=none;startFill=0;startSize=5;endArrow=oval;endFill=0;endSize=5;jettySize=auto;orthogonalLoop=1;strokeWidth=1;fontFamily=Verdana;fontSize=12" parent="a5dCra-difjXm44AHX22-153" edge="1">
          <mxGeometry relative="1" as="geometry">
            <mxPoint x="169.5999999999999" y="785" as="sourcePoint" />
          </mxGeometry>
        </mxCell>
        <mxCell id="a5dCra-difjXm44AHX22-219" style="edgeStyle=none;curved=1;rounded=0;orthogonalLoop=1;jettySize=auto;html=1;fontSize=12;startSize=8;endSize=8;" parent="a5dCra-difjXm44AHX22-153" source="a5dCra-difjXm44AHX22-201" target="a5dCra-difjXm44AHX22-218" edge="1">
          <mxGeometry relative="1" as="geometry" />
        </mxCell>
        <mxCell id="a5dCra-difjXm44AHX22-201" value="List updated" style="rounded=1;whiteSpace=wrap;html=1;shadow=0;comic=0;labelBackgroundColor=none;strokeWidth=1;fontFamily=Verdana;fontSize=12;align=center;arcSize=50;" parent="a5dCra-difjXm44AHX22-153" vertex="1">
          <mxGeometry x="64" y="454" width="112.88" height="35" as="geometry" />
        </mxCell>
        <mxCell id="a5dCra-difjXm44AHX22-218" value="Clinicinas double check P, and submit a prescribtion" style="rounded=1;whiteSpace=wrap;html=1;shadow=0;comic=0;labelBackgroundColor=none;strokeWidth=1;fontFamily=Verdana;fontSize=12;align=center;arcSize=50;" parent="a5dCra-difjXm44AHX22-153" vertex="1">
          <mxGeometry x="54.44" y="537" width="132" height="69" as="geometry" />
        </mxCell>
        <mxCell id="a5dCra-difjXm44AHX22-231" value="List updated" style="rounded=1;whiteSpace=wrap;html=1;shadow=0;comic=0;labelBackgroundColor=none;strokeWidth=1;fontFamily=Verdana;fontSize=12;align=center;arcSize=50;" parent="a5dCra-difjXm44AHX22-153" vertex="1">
          <mxGeometry x="73.56" y="659" width="112.88" height="35" as="geometry" />
        </mxCell>
        <mxCell id="uESaPEaGpG72Nl8H6VJj-1" value="Visit URL: somethingsomething.com" style="whiteSpace=wrap;html=1;fontSize=16;" parent="1" vertex="1">
          <mxGeometry x="562" y="-1001" width="286" height="49" as="geometry" />
        </mxCell>
        <mxCell id="uESaPEaGpG72Nl8H6VJj-4" value="Health worker view&amp;nbsp;" style="rounded=0;whiteSpace=wrap;html=1;fontSize=16;fillColor=#ffcc99;strokeColor=#36393d;fontColor=#000000;" parent="1" vertex="1">
          <mxGeometry x="517" y="-743" width="183" height="28" as="geometry" />
        </mxCell>
        <mxCell id="uESaPEaGpG72Nl8H6VJj-5" value="Hospital view" style="rounded=0;whiteSpace=wrap;html=1;fontSize=16;fillColor=#ffcc99;strokeColor=#36393d;fontColor=#000000;" parent="1" vertex="1">
          <mxGeometry x="518" y="-704" width="182" height="28" as="geometry" />
        </mxCell>
        <mxCell id="uESaPEaGpG72Nl8H6VJj-69" value="Unchecked first" style="shape=note;strokeWidth=2;fontSize=14;size=20;whiteSpace=wrap;html=1;fillColor=#fff2cc;strokeColor=#d6b656;fontColor=#666600;" parent="1" vertex="1">
          <mxGeometry x="789" y="-355" width="103" height="49" as="geometry" />
        </mxCell>
        <mxCell id="2gghzipWFYcWRQEd3Zvu-1" value="NOTE: P stands for pnumonia" style="shape=note;strokeWidth=2;fontSize=14;size=20;whiteSpace=wrap;html=1;fillColor=#fff2cc;strokeColor=#d6b656;fontColor=#666600;" parent="1" vertex="1">
          <mxGeometry x="2076" y="-1065" width="156" height="85" as="geometry" />
        </mxCell>
        <mxCell id="2gghzipWFYcWRQEd3Zvu-2" value="img:" style="text;html=1;strokeColor=none;fillColor=none;align=center;verticalAlign=middle;whiteSpace=wrap;rounded=0;fontSize=16;" parent="1" vertex="1">
          <mxGeometry x="42" y="-199.5" width="48" height="27" as="geometry" />
        </mxCell>
        <mxCell id="2gghzipWFYcWRQEd3Zvu-7" value="" style="group" parent="1" vertex="1" connectable="0">
          <mxGeometry x="94" y="-202.5" width="190" height="30" as="geometry" />
        </mxCell>
        <mxCell id="2gghzipWFYcWRQEd3Zvu-5" value="Choose File" style="fillColor=#FEFEFE;strokeColor=#AAAAAA;fontSize=14;gradientColor=#F0F0F0;" parent="2gghzipWFYcWRQEd3Zvu-7" vertex="1">
          <mxGeometry width="90" height="30" as="geometry" />
        </mxCell>
        <mxCell id="2gghzipWFYcWRQEd3Zvu-6" value="No file chosen" style="fillColor=none;strokeColor=none;align=left;fontSize=14;spacing=5;" parent="2gghzipWFYcWRQEd3Zvu-7" vertex="1">
          <mxGeometry x="90" width="100" height="30" as="geometry" />
        </mxCell>
        <mxCell id="Ft0pRcpO4Pf6lHiSCJ3b-27" value="&lt;h1&gt;Web&amp;nbsp; app database structure (just 1 table) example:&lt;/h1&gt;&lt;div&gt;&lt;br&gt;&lt;/div&gt;&lt;div&gt;&lt;br&gt;&lt;/div&gt;&lt;div&gt;&lt;br&gt;&lt;/div&gt;" style="text;html=1;strokeColor=none;fillColor=none;spacing=5;spacingTop=-20;whiteSpace=wrap;overflow=hidden;rounded=0;fontSize=16;align=center;" parent="1" vertex="1">
          <mxGeometry x="2925" y="653.5" width="510" height="106.5" as="geometry" />
        </mxCell>
        <mxCell id="Ft0pRcpO4Pf6lHiSCJ3b-72" value="&lt;h1&gt;&lt;font style=&quot;font-size: 73px;&quot;&gt;Data structure&lt;/font&gt;&lt;/h1&gt;" style="text;html=1;strokeColor=none;fillColor=none;spacing=5;spacingTop=-20;whiteSpace=wrap;overflow=hidden;rounded=0;fontSize=16;" parent="1" vertex="1">
          <mxGeometry x="2906" y="478" width="576" height="143" as="geometry" />
        </mxCell>
        <mxCell id="Ft0pRcpO4Pf6lHiSCJ3b-73" value="&lt;h1&gt;&lt;font style=&quot;font-size: 73px;&quot;&gt;UI wireframe&lt;/font&gt;&lt;/h1&gt;&lt;div&gt;&lt;font style=&quot;font-size: 73px;&quot;&gt;&lt;br&gt;&lt;/font&gt;&lt;/div&gt;" style="text;html=1;strokeColor=none;fillColor=none;spacing=5;spacingTop=-20;whiteSpace=wrap;overflow=hidden;rounded=0;fontSize=16;" parent="1" vertex="1">
          <mxGeometry x="486.5" y="-1205" width="576" height="143" as="geometry" />
        </mxCell>
        <mxCell id="Ft0pRcpO4Pf6lHiSCJ3b-74" value="&lt;h1&gt;&lt;span style=&quot;font-size: 73px;&quot;&gt;UML diagram&lt;/span&gt;&lt;/h1&gt;" style="text;html=1;strokeColor=none;fillColor=none;spacing=5;spacingTop=-20;whiteSpace=wrap;overflow=hidden;rounded=0;fontSize=16;" parent="1" vertex="1">
          <mxGeometry x="2377" y="-1263" width="484" height="115" as="geometry" />
        </mxCell>
        <mxCell id="Ft0pRcpO4Pf6lHiSCJ3b-75" value="" style="shape=image;verticalLabelPosition=bottom;labelBackgroundColor=default;verticalAlign=top;aspect=fixed;imageAspect=0;image=data:image/png,iVBORw0KGgoAAAANSUhEUgAABhkAAACuCAYAAAArk2ztAAAAAXNSR0IArs4c6QAAAARnQU1BAACxjwv8YQUAAAAJcEhZcwAADsMAAA7DAcdvqGQAAGg6SURBVHhe7d29rttGuzf8a72HcJ9B8EjegJEuSCMVSREgkNz4bpxydVLcPFKKVSRw6Tu7cBGtXeSx1LldzXZjCQFcOMVSE6QzDGxLGz6DGz4Dvdd8kBySQ3KGHOrz/wMEL8kUNTOcGQ5nyJmrz58/78jw888/03/+53/qd/tzqN+FcE75GCL/Adidc9lAuYd9QV47HKQ9AJw61GMA5wllGwBOVVH99f/pfwEAAAAAAAAAAAAAALxgkAEAAAAAAAAAAAAAAGq5evr0aWq6JAAAAAAAAAAAAAAAABfWNRn+9a9/6XcAAAAAAAAAAAAAAHDp/vGPf9Bul39mAdMlAQAAAAAAAAAAAABALRhkAAAAAAAAAAAAAACAWjDIAAAAAAAAAAAAAAAAtWCQAQAAAAAAAAAAAAAAasEgAwAAAAAAAAAAAAAA1IJBBgAAAAAAAAAAAAAAqAWDDAAAAAAAAAAAAAAAUAsGGQAAAAAAAAAAAAAAoBYMMgAAAAAAAAAAAAAAQC0YZAAAAAAAAAAAAAAAgFowyAAAAAAAAAAAAAAAALVgkAEAAAAAAAAAAAAAAGrBIAMAAAAAAAAAAAAAANSCQQYAAAAAAAAAAAAAAKgFgwwAAAAAAAAAAAAAAFALBhkAAAAAAAAAAAAAAKAWDDIAAAAAAAAAAAAAAEAtGGQAAAAAANiHTy/p+3/8g/4hXz/RW/0xAAAAAADAKcMgAwAAAAAAZHyity9/opef9FsAAAAAAIACGGQAAAAAAIDYp7cv6afvv6Inv3zQnwAAAAAAABTDIAMAAAAAAGhv6b+e/EKv/tJvAQAAAAAAKmCQAQAAAAAAAAAAAAAAasEgAwAAAABAXZ/e0sufvjcWdObX99/TTy/fUvVyBmrdg++/N7/7E718W/xNNZXR98n2/+Df/uklFX7FFr6C77z9SfzfE3ql3xP9Rb98pb7zfd3FGVKLXfPrJ2O567c/JZ9zmKKf+PQyiZ/43bcc/ng7Th8z3J94H6n0k9tw+qc2Kl9w2/y9VPgAAAAAAMAJBhkAAAAAAOoQHdxfPaFfXv1FqdmF/vqLXv3yhL76/mXJQMMreiHXPXglNk/89Yp+efKVtVNfdIZ/JacySn2Bv/ILPflKdKzrjyJF4TO+0/rCzl/8SC9//Vq/Ya/e6E7+T/TyRTKc8fWvL+nHL/Qbw1+/cBoZczd9/c9H9J3eTgyKfPUkk36CSH9Ow3jA4Ivv6Z9xEF7Rm1Q6faI//jvZwfWj7/RfAAAAAADgCoMMAAAAAAC+xN3xooNbvvmaru/+pn//+9/8+pviPvW/fqEfS3rx//rra/rV+N6d0Rn/1y//lb7j/u1P9NUvUWf4Nd39Lb7zb/r77lf+dUF0rJt36atO/Ch8v+rt07/zF/3yYzIQ8t1v4v/veO+R5Ht/2EYAHH3Bv5FE7RW94DT59PJHiqPz9a/0smz/13f0twy7CIceBOD04ORX+PvR//99l4Q+GdD4gn68ST5/lRpl+F/6n3iM4ZowxgAAAAAA4A+DDAAAAAAAnj798d+6A1/0cb+k36Lb60WH9suo498yWGC4vvuDfjS+992PN0YH/wfaxuMT6bv+r+9+i+/m/+I780kB1YGvmJ3n7H+jz8XvGJ3+f/1C/1UUwGDSnfzi6YRkwORr+vXlj7xFkWu6++273P+/fROPMKS+/8V3j+xpaH4eDz6wT1veSrt+RBhjAAAAAADwh0EGAAAAAAAv6Sl2HnYyXeBf/Eh/6Dvr//3v3wo6rr+m//g/+s9K5Xfbf9F5qP8i+uu//9BPJvwf+o/46YG/5BRMYs2B78WaDy//l75/GYXv3/TbPnrWv/uNzIcMIkXTJMW+/g+OSZ566kK8/uDvf6JPb99yvH6i71NrSpi+o0fJKEMyZdL//k8yWOR+QAAAAAAAwIBBBgAAAAAAL2anv89ggekhZccmCpl329MrehIvYqxf8bxBpvTTA5G/xJoPYr0IsaBzdoHkln33mzkVE6uaJqnCJzmoINLgK/rqyROOVzQ9lN13yShDPGWS+UTEP7+vHxYAAAAAgEuGQQYAAAAAgNr+ov/5X/3nMfjrfygOzne/0b//vqNfr+NHGtL0Asm5BaPb8vZN+ikDl6maHnasUynJRZ+NQYWvv76mX+/E2g2ZgQzTd/83mSbq1Qt6+ekTbaPRm6//SRhjAAAAAACoB4MMAAAAAABezKmI9u2a7uKpmGyvzPRMX3xHP/72h/q/v+/o7tdruv46HfhXL5LFn9vzln6yPHGRXqza0aeXlCxRoRan/uOP3+jH7/JrN6R9Qd//M4r7X/Tff/wRP5Hy9T+/r/guAAAAAAAUwSADAAAAAIAXs7M6mXon8ZZ+iqcz+p7itZjr+uJ7Sn7OWE9AE3f1R1MnfR/92Nuf4s/+8b0eRPjiO/rux9/otz/+oH/bFkho0dufjLUSvr4mI/XoSaNHKTLTTqWmlsr74vt/xr/91y+/xGHKrasBAAAAAADOMMgAAAAAAODJ7KymV0+MtQ0+0dufXhgd6iGm4UmvryDv/tc/9+mteVf/Nd1EaxyYUwP99Qv9+PKt8bQChzFeiyB7F396wehoKqjkuzW8/YmShxi+pl9f/kZ/mIMcMv30395e0YtoYOXTW/rpx19K12UQi3Lnl6rIL6YNAAAAAADuMMgAAAAAAODrix9lR3nUHy/WNlBPDnxFT15F3dzXdPfHj2Gm4fnuN7qL11Z4RU/Ews38e189iTrVv6brO3OqpC/ox5fJ+gR/icWeoycbZBj1f+QWX/6COg/1n+zVE/07tUcBPtHLZBSEf+4lyZ8zB0GY17RJmYGCv37Raf/VE4qTXrKvl2EuAC1dP0pPMQUAAAAAAF4wyAAAAAAAUMd3v9EfemFlo7+c6Ouv6fpXsQhxZn2Ehr777Q/6++7X3JoKYtHju7//oN+yP/bFd/Tbv/+W6zBkvsLvxaDE3/S3ZRDku9/+zi0Wnfm6s08vf6Rfoo7/1ICGGAT51div37RJ3/32b/pbxEu/F1Q6/J2aCio/lRX77lE8+CJc4zEGAAAAAIBGrj5//rzTf0s///wz/etf/9LvAAAAAAAAzsknevn9V3rwQywc/Yd6ugIAAAAAAEqJJ4h3u9RwgoQnGQAAAAAA4HJ8+oP+O366IsSaGQAAAAAAlw2DDAAAAAAAcCE+0Utjcej0otcAAAAAAFAHBhkAAAAAAKDc25/0otF+r9rrRYf26SV9L8MUTZMkXNMN5kkCAAAAAGgMgwwAAAAAAHDmOvRQ/yV8ff0r3f0ddmFuAAAAAIBLhYWfAQAAAAAAAAAAAACglHhaGQs/AwAAAAAAAAAAAABAMBhkAAAAAAAAAAAAAACAWjDIAAAAAAAAAAAAAAAAtWCQAQAAAAAAAAAAAAAAasEgAwAAAAAAAAAAAAAA1IJBBgAAAAAAAAAAAAAAqAWDDAAAAAAAAAAAAAAAUAsGGQAAAAAAAAAAAAAAoBYMMgAAAAAAAAAAAAAAQC0YZAAAAAAAAAAAAAAAgFowyAAAAAAAAAAAAAAAALVcPX36dKf/jv3www/6LwAAAAAAAAAAAAAAuHTffvstvXv3Tr9LXH3+/Dk1yPDzzz/T77//rt/tz59//knffPONfgen6JSPIfIfgN05lw2Ue9gX5LXDQdoDwKlDPQZwnlC2AeBUXV1d0W6Xe2YB0yUBAAAAAAAAAAAAAEA9GGQAAAAAAAAAAAAAAIBaPAcZtnTbv5KPRVz1b/ldtdVYb381ppX+LJwt779Pfbl/9eqPfX/FFif/eAJAm0RZv22hDoGwLqfuDHNuC5Gvs/s41WPQLC3abWvs05a2qzH1o2OoX/0+x8tyMLe3fb1Nn24PeLAPkf77/c1jLFdlYcqXp2PJK3AIx5N/j+fc6aO93zv+c9c+0/py2pCnCccnz+88DHDc7Pn5UOep4z8/QpHTfpJh9YKGizWt9VvpYVf/AQBnYbuicb/LZf2D/gDgDITI1+dSNlDGNZUO3eGC1qmGDfH7BQ27V9RH7zBUQXmCc7bv/H3J5Ql1CUA9KDsAcME8Bxk6NLnfycUddvcTfndY24/v9V89mm1UuO4nhw4VAIS0ejGkRabDDY7VcZ0jjlmIfG3fx+kdA5RxQdw9VJ0O62mXvB/YhDNlL+soT5B3PufmfefvSy5PqEsgDW18Vyg7cJpQxiGMgNMliUfCjKmL+mO6tT3bH4h4fKY7jWrvNU274nfVI+DFj9asaKzD1/bdgOnH0lXaqPf8Emlj+fnt6pbGUfrql5giIb1tEoer8Up+J5lWoU9jnebb23H6WFijmwkXf19MN9VmyrjFMWJPt+Lju//4HDOZB1JpLdLj1phywyjPtl6r1Tj+rvrvMHkvdfzknR7pY2xWG2Lb4UK/oQUNo+/pTwSVp8x9cFhus8c9XLmpTtdLZjtHtFhnVdYJIajfdD23udRx1fm6ui4r3seej4ElbD6q0sIlPYsZ8Rb7TH3HLR51zuV1bG+vKW7S9EY0W25UI1+8Nkua9fT/scXzbPsr4ho+v2OYm75J1LFOFV7z9FfUtq5l0FezPCbY072sXlK/aX7Hdt7i7cz8lwqnSM98Wa+uWyJVeSVkneEmlV4VbQOhXtl0y3fFxy5Jl+Q6Imxa1coblfEvvn5rnv+LqDC5l9vqY1Odv92Ob6Sqbgv7e77p4cf3ODaJu1/5UNrLZ2mpsKEe0d8X255ePVJ+/tMbOR4LQaZdKoxi2/z1W538bSorO3BaGtUne8yzEZf2enkYi8t4LJMOxeFxj2e0bVvnRziAz58/78zX06dP+Zq2yGbHF7o7/tqOejN+FzE+L3yNdku9tc27d+/0X26WI9tv9HYzDlTyf9nfXO5Getue2FCyxakonu42s54OQ9FLhTW2HFm2iV7mtkkcil4967EoTovcq1d+rIpUHkPnOApFeapnxM8MZ7P4+Oa/Y1ee/5L0SLbLp1G+HIXJe/aya76SvGDf1hZ+yytVdsOE3TVdz4lf2bDVnaHqLN86oVp13Ip+03wZv+lYx5Xna7e6rHgfbR4Dt7D5KE0Lj3NGsp8oHOaxy55f3OPhfS4vUJ7XzLAWpaPYhvP6iI+w8XvV4cvuz+8Y2o+PeiXtqPbSP72foldRmimlae+cx4xwpM4tReErrpfcz1sl28rt8mEqK09+eSVUneGuLK+pVzof+ZdN93yXz8+RZB9J/g+XVkHyRvxyyL9e7XIfvuXW7diU5W/XfUTK8lt0bMP9nm965IWpx5SmcU/+LxtmW/lgjetZd2VxU690eqAeOd56pDBs8W+7H4vyeDY5bvk0KSs7Nn7XWbBPweqTlvOsUBZWsz4uD6O9jFenQ3FZyb1aOD/C4YjjYxNmkME8uYgLYPnhhj82M3F55qhTwSaFJF3Am54cCuPpIVWARWHSOzE/t4ZhZPzeZrbr5bZNF9ro803mBD/SP2j/vUwaRR9bf8+dcydKZRxZYZ7Sn8lXcnybxue8TvBGHonTjpPDSNM4PYw04k0N6X3kPuNXtI/6eU+8jLKROeaRwvJshN0sp/bfDRF2j3Q9I35lw1Z3hsk3vnWCi8q4Ff5mEsbkN/3quKJ87VOX2ffR3jHwCZuPynh4p6fxXX4Z1YnkEw8zLarP5cXK81q6bvGRDt+sMnxexzBVt+n8vzHzUnK82kp/MwzVZdCuOO198pitXDHfesnYd/V5K/156vjKkSZ7mNLHIuGXVwLV2x5yaRaFL5PGkXR8jO0LwuKT74rS0EyX4GnVKG9Uxd+WV3zyvyfPchvi2PjswwyfX92WqPt7h63HWOi4688UW/nwCZ+9TvORhE28kmODesS+vV/891uPpMOWPf/5HAsjbePyx5umykL0qe9xs+fZ4n3k+V1nwT4lx1EfS32A3eqT/eVZ3rHxeXm9Xh7Gqvyc+U5BOrjHk2X2of7H7/wIhyOOj02QQYbiitSeuW3qVLBJITnuQQajzIn/SE7+qf9IbLhSWM5G6TsW4m2NNE2FreDzioorVchZEm7/wuxzDMvj6HYMk/9rHp+zOsGbeUw2GNNpkmbkdTM/GhV+8nGIvCd2rbflV7YI2I57UV4oziO2/wsQdq90PR9+ZcNWd4bON9njbezHkhfKVMWtyW/Wq+OS/brUZfZ9tHUM/MLmozidEz7pOYr/zofVNx7JZ/7nclNpXivI8y4Kw2eNp1/ci46L2LY3EhcZyT7aSv/ivJHsJ/9/aa51WHkes7cLfcNXvL39/4qPr+AXprp5pX6d4ScJt1vboDA+1rJpi6NSN9+FTqvi37T/n1/87XnFVFXH+nBJv+T/QhybEPtQ25bVbaF/z9xP/v/SwtRjIeLuFp9sukTq1LM+krChHkn/pv3//OK/33qkMGySx7Ew4+Jw/eZ33HzbBnl+11mwT8lxbFifSPvPs2K/2Xq9PIxV+Tn/ZFL+tz3iyYrCbu4n/39wLMTxsfFck8FmS/H6y6PHNNB/KgN6zLnjsvXoYVf/KXQe0Jf6z7Qt3ep5y7rdIQ2nC1pXLRj05QP7gixFn0e2Hyk6ZGIRyWSuNHOdi/f0MfhUaK5xNPJU7yGZyWfNUweLz5HqPKInfGaS1gsadnWaWOfj7NCjaOPF63i+yNVrPZlkb0Y36UKt1M17KSN6nNl392EU8KrjVZZHKvZTN+xe6QpWtfONZ50QRJ1zW4163LSPuqzuMThIPVsnPRe0iOfC7dGTR5lY1Y6H67n8UDLhM6w/bNQfXnEvLnOdyT3dzyc06NhyTMj0r1MGfTUps771Utn2Vee/4uPrzyGvmGrX23X5tg0cyua+6q/aaRUwb3jVTQ3PWVae5TbEsdlL3WY42XosQNxraSOfVUE9ctr1iMlyzvI5Frh+g8Ya1idCa3m2br1uCWOlL+lBZle5dDi68yMcQoBBhg19CHoiaZGR6Y8Ln5z7XZoudEKKRR9nS9psllyltWDzgfZ/yHziaOQpl4vYg8TnmHVo8orTNarzI9ziW0yH1JUL/ejPWOfREz7NCAt6LT9fUTzG8ORRdfoH1HkQNWnXZOvrSJTnEff9+PBLVwjJs04IwvfcFqAeP+a6bO9hC5CeHOLpdWbhsmNMY+Ni3trJG0rduNcuc03Tv+32ZdM85lsvHeK8dR4ap02oct/adcQh8kaIOtbGs9yGODb7rtvOoR6rXa+XsJaPtvKZP9Qjp1SPVPA6FoGu3462HwkOwbs87SPPtlGvmyyDlzlHdX6EQwkwyNClZADrI59qwNv2Dd1F5+bZhnb3c5pMBtTKzSRC96HuVCbxBKN4xsXyuqdJyN/3iqNnnjpEfI5dZ0Dze443N/JmsxH1UiepNU2fGx0/xmj54vWKtrfPSY0xWO5Cbdk2GYqvGF0vzyPu+/Hkk64Q0CHOM56/GaIeP+a6bN9ha5KevRktZzq06ym9MBviR5nGRl4znihLExfyfeqPb2lVtwDUjbtvmQuW/i2X+8Zl1jd85du3dt46A43T5pjrVukAeaO1aw/PchHi2OyrboucQz3WRlhsWstn/lCPnFI9UsH3WOD6DQLzLk/7yLNt1+vrD1Q5nnJM50c4mACDDB1KBvKyGS+5I3qfCh9fCnUHQmhGuL40n0EyRsx7wVoDzLhrUnQq74VXHD3z1CHicyr4BDWZzOlenKR2G+JzlJJKV3PKpOd0HbcWn1C7YwzRkxOJTXILTu5xvLSyPOKzn5qc0hXCOcR5xvM3Q9Tjx1yX7TtstdNzRMv7CQ0mz+K76BapQdVjTGOjDuZ6cdgf0605krBdqTsF12taL6Y0zD4d4Mor7iX5fzWmfjaMsZDp33K5b1xmfcNXtv0ezlsno0nboIBnud//dcQB8kaIc5aVZ7kIUSfvpW4znGw9FiDuzKt8tJbPqqAeOe16pELdesPh+u3k+pFgDwLUJ63l2TD1uhuHdDim8yMcTIBBBqJBPGEWXxyPo3nCtpyvh/zJIa3p7o0uVOIi/fmR5lRjxC++GBfhvZ7GJ7OwUygYc5wtntM4qnj4N8fRvGn9mp0YRTzj6JenDhCfY8YnlGjuu745b992Qx+SFh+ZTb5kyqR1PI/mPqZKWgzH8V25Ww73MDq4xrx8RY29wc1Mh1l0yiXHd3vbj/fTm91k5vdroEa6QjiHOM94/aZnHWfP1351WeGFUCvaq2et8Wh8XhzQfKkDnLqb/jjPF53JK4pu/hfzr06Hxjym3SHF05iy0bNJzbrZL+5m/n9u5H/RllrrMPLHBcKkf6vlPkDbyzd8+zhv7bdeaIdL28BP3XK/v+uIvbdpWrz28CsXfsfGnr/bq9tC/96h67HmcTc5lI8W81kV1CNJWE6xHinncSxqX7/VP27VZQdOTfP6pL0861OvN1WdDkd0foTD+fz58858PX36dFfMvuK4kKwMXvQqXxW8zsr6yQrlmZXOzRXZC169+Au2OBXH01Vh2MyV0kdRihi/V/SKt7V9Xyj43EiLJM6CuWJ79pVfOd5F+TH0iaNQtH1v14s/N/NUs/jUyX/HbDmK8p/tZUuPbHrbymuYvOddVyxHhf+flDPLK1V2Q4XdN11Pn1/ZsNWdYdI+te/Uq6hOqOYSN/f86lnHFeZrI11yr0wes+6jzWPgETYfVfEoehlhTo6TmQdsaSG4x8PvXF7MrRzxPivi3Mv8ln/4/I5haf7fQ/oL3ueMjOK098ljRXEp2kdxveR+3jK3zadLYZgK6ha/vOKQf8zPC+sMd77HudW8b8Sn6JXEM1xahckbtt+15RWf/O/P73h6HJsQ507mWrft5ffkK52/s8LUY0rjuHuVD5/wFdRpHlCPmHGyvE6oHikOW8T9WHhdv9XN32baFtYbeX7XWbBP4eqTSEt5lrnW6+VhtOdn//OXezwF//3DsRDHxybIkwzCYL6Rc/Bypazw1dVoyZ9xDtu7zoTuN7PUYim90YyWbS9CVFuHJvfi8adUgGnG6ccVgXpfOE9zXQOaizne+DeNX9Xp1MZ8kr5xVNtzBavfiyylwvYseqwqZd/xOW6D+T1tuPCl5+8TaTgqSA9O72dG6ah9l48PDot87M84xvJ4zdO/PbhJ5QN5gPXwd2ci4inKuvn/XPfIeUHr3u1bzD9dIRzfOiEM93ObZx1XmK896rKSstGOlupZazx8zxk2vI9X+q6+9ZSub+P7Zo70fMHh4jgX1zEbup83rZn94j6Y7/LhierYyrCESf/22peB8phnvdT6eWvv9UJojm0Dbx757kDXEftt04TI/8X8yq3HsQlx7mTOdVuw3zueeqxx3L3KR7v5rBjqkXOoR8q5Hwuv67cQx+3kz8OQFqo+aSnPsmbtdVfit7kcGD9iT4djOT/CoVyJpxf039LPP/9Mv//+u363P3/++Sd98803+h2con0dw9X4Sj2axRfym0CNJeQ/Jh7N08+8jZY7CnY+yoiPnzxhZ09KcGxOoWzUrRNQ7mFfkNcO51Bp30Zb5ZyhbQBQDOcQN6hH4NSgbB8v1CcA5cT0Vzv5QENasCcZAEISlXo8F505idz2luIpEb98gIv2UMQ8eXHCjugxzqJwZFAnAMCxQb0EAAAAAACgYJDBhbH4SvWrT/GMAFBbsggM0XoxTNK3Gy0k1aPZDXrCm9OL8HSHtNArdAVdEAwgENQJJwLnS7ggqJcKoB44HziWcCjIe+cDxxIA4GJgkAGO02BOOz3nW3oqOn5fMJ8bNMVpO1vSPRIWjhHqBAA4NqiXAAAAAAAApKunT5/mJlH64Ycf9F8AAAAAAAAAAAAAAHDpvv32W3r37p1+l8DCzxDMKR9D5D8Au3MuGyj3sC/Ia4eDtAeAU4d6DOA8oWwDwKkSU9xh4WcAAAAAAAAAAAAAAAgGgwwAAAAAAAAAAAAAAFBL4EGGFY2vrmi80m/PxpZu+1d01b/lv3w1+e4FW43l4ze2vLS97cv/s73OL++lbVe3NO6n49/vj2l1dJmrrXzPdYzY74Uc7+N3bPVbC+egrchzZpnrU59/wB7fLa1ux9Q3th3fFm3LZD3H5Ve/9a7bMt9vL6zu24avnz2Pacm5w47z8DidZvuLWwA6vi6vOIxV3+E8ZEsDFf8+3dozidhA5REzMVzDd7AEhLOG8gEAIaFOgb2qagN7Xneck60Zy/z16Gos0sO4RioU4Fq2IiwH1+a1LNRXK98cYf6yCDjIIDLvkBb6HUBtotE0LM5Jmw9r/dclURVKdzilxTod//V6QcPuFfULW6HnYzXmOiaOfo8edvWfAG2cg0Rd1BV5zixza1ovhtQVg3v6k8hq3KXhdMFbRNa0mPK2BVcHq9cc2tFjGuj3vnVb6vsthtVn27D1s+cxrTh35In9d2maVCpsX3E7YpyHyvItwEVD+QCAkFCngFV1G9j3uuNcbEUnePdF7trmEI4pLFYtX8tCPUefbxoKMsgg7q7uX4nMqz84Ox2a3O9odz/hv6BdW7q9nhoVW9aWPr7nf3oz2uz4mGRe86i37syICn8qEqU3ouVmY8R5Q5vliHr8X+vpdfHdLmdBH3viNJBxv6cJCuSBHUfd2M45KKmLRkujzG2WNJMFbkHPzQK3GpPs35ZlNNl2JLblhly+babycy8eKfOt28zvtxhWr3iFq5/9j2nVuSNve/tc7r83WibhjeP2PFOfhotbUIN5Jiwbdcwt4cyGcbRM/3/02ixn8pyST4P6in4rfp3ryRsOC+UDAEJCnQJ74NQG9r7uOB+bD2YnuNDkerTZtWzYsITW9rUs1JXPN65Oo1+64SADZ9x+X95dvebMOJuN9OcA9Wxvr2m67pXkpQ3Jm0m/fHDUBSuouMLnBuz9nAYdM+Yd6nCD934p0mtN0xcXUPv3HhIeYAClzXOQrmtGS75QNMpcZ8And25w8Z/rDxv1GZNPFfBl4uyVKKPqM7Ht/JW6eFy8zpTN7Ru647ruyaNoY8+6LfX99sLqF68Q9XO9Y1p97sja0ps7DizXq6/4YjsOL8ft5olseZORZOxyzj2dwSQ+p6TTAABQPgAgJNQpkHBvA3tfd8DpE08lXPlM0drytSxAgYaDDCrjjmZL2fk5eaA/PjuiwrfMfbVdybmckznLrqg/vi2ZH1/vJ57fzNzQ+A2uQJJ557PbnbHVmLrTNdeD98V5afuR5M2kFzRPTlLhl4xYDm5oOZvR8iaTLk55tCB/F30u5/VL9nfVH9OtnrvPPmVTWb53xHnj6ko/zbGeUlfsyzzD6njGYbLMH6jmZrTNbcrxEd8x4+mwvzheHI5krvbxEa6P0aZ8HpHpLN/z/8VpaB5383ORHy3zPDrnsTbPQdyocr7bK7rL/QnFYwaRziOSfdbvP6biuX1zxxcQxvaedVv6+22F1TNeQernGsfU4dyRn9vYfieIOP++kBXNiB6byXmB5x4AAAAA2BfXNrBf+3y/12Z2W26r983v566tOQzRNWVhX5jaRt58SQsaiv+X/QHGd8V/pWw5/kbcxBRBqY0Kvqv7Aor7UDzDkkm/Pv9/+30G7V3LHj5PqeOaOj65Y6tVHkslVJzMbYryeT7fmNQ2+d8X9P/F+ct479KH3CjN3TUcZBAZ957mE+MuwEshRhK7QzmXs+iOiKwXUxp28/ObEX2gF2Lu53hjMb9ZN38wRQdqV8y7r98XbXd2OMOL0iZHWvVHNpsPMr2/5JOwuYBN+eDOKSup8FM6NJhMKPWUg3cedaD3mXp8c72gaWruPpNjvm/CiGciP3/g4LG6S+juTea3V6/lfJejZ7qz0XF/sffP6TqKoHjK4uIqQ7s3YoqvOA3VcR9zIb3NzIEv5oS8NvODVx470DlI55mkw1nfKWK9y71DD77kf9YfeKuEnN/f3N6zbst9v0ijsHrGK0j97HtMHc8dFaKBQnn+7c1ouZlzSAwXdO6Rj+nL1i/WvQHIQvkAgJBQp0DCtQ3sf90h7OfaLE+0sbucx1PLAsjfz/yOELgv7LVYY8CMG4d72C1ZUF0w+gLSUa7Zh2JJvzXHs3Z/TAgBrmWFQ+UpuXZE9vjYjm2NY9k0TuY26vs+a1rU7DtzKTcN09xHwIWfL8vqhZrfLDWX825DSzVpGQ2zGYkP4IJEx4XadqMffzMfUYoZ+9zICdMKtjsjckFfMdd+RS/RVva4cwpzYTUXsFEVRcUJ4ySVVfjlvPNoJa5c9bx+vZmRR6O5RG188n0ZOQdqZt5TnVfieBphiuNpzh84eJx7LFBYySdFkruWnfcXEflwpuc5PPL58faGT3TT98Zx13lkMeSTppkf5OPhvPndm2Q03jeP7Zs4QYuLQTHNTu1FQVYkst3IuFXer27Lf98qSFjdHaJ+dj13dCb3nJeK13ERgza9ns5louF/nb4D6RzPPYuhGijJvuRj+vz/vdGzYOveFP2Wep3juRtOHcoHAISEOgUO6mDXZqv4CeHoN+RrM1PX5fHvGAr7wtRTyCqIvD+xTWn7f0GLxYgv06P1CKJ+kPIppt36UFzDYqafEQ4ZrwUdZAaiUNeHB8xTaqKP9Fo46nfSN5T699nWjZPxW0ac8n1IFfmmSd9ZaR9y0zT3g0GGWpKMnZrLmf8azF+pjtDFa97KpKa7ieY360xUh2d2Cg2Z2Yx9dibPCrY7H2J0W9Rzo2XmzlELefcusxZeLjYXsSaBkzp5tIKcA57/5Qrs3rjDIplL1MY139fEJ8nnIp6ZMJnxTOYPHJB8mCEVb51Oo8cq73ntLzKiZ6GuCs5G5rgP9GOWon67Nz+/UXkxUiuP7ZFolHXFCbpi+rIqcuqd9B1rXnWb5fs5ocLqYd/1s8+5o8pgvqP7ezEQoRtm3Mg07zq5qHNPr8dpuqF768USwIVD+QCAkFCnwF4c6tpMT9mzm1OXr/5XKzGdzJj611MSl9x5IfvCOM6bOU3imR5c+kFC96HoG0Zl+hnhkDc/5ReIT1upKZ2jl7yu459PDSJ6DhoGvT48VJ7S1nd0LZ4o5zy15TQQ65SKNE3SOUCfrXOc6vQh2WR+37nvrKLc7LmPBYMMdURzMz95ZGSgSIceqUnL6KOZE3LT3XTpoZkxI7lFbQu2OxdcIMVUM2Jkt7ySVURHkKo8XCuKU6ePv++JtU4eraKnC7HePd19yFWihWu+b2oxNE620Us/amaknZoyybhrIJoqKRsnx/1JWIja4kt6kM941WlVJ4/tiZxORzTKenwS3xTfEe8itx4D86nbbN83hQyrD+c4yDVW0uXL+zFoz3OHj84kn+bneO4ZLVWc5GuzVPHgUjZ68orTNGymSf1W7rW/PArgCuUDAEJCnQKHdcBrM9GxzW39brdLw6GYTiY7dZIhaF+YLc4V/SCh+1Ci/R3BXGjhrw8PlacGdCMr0LV6opzzVLcrricz6x/UOpY14xTx6UOyqdt3VlVu9tzHgkEGOCjZWcb/rqfddGEUt6cyNVLrMkKr54o7O9EceHeUXUogq3hh4wtnzh+oR53VSPKWbsWQc29GNz6dlJb5COGccT7pc8NYtA44r4iF2PLXgmWDgdG6KtHJf0tv7tYFDR6bbN1W9v3QYfXZtkz4+jncucPGJ7xncu7pDGhyL6akc5z7swQWx4azg/IBACGhToFGQrXP92FFY30Hfm80kotaL5cb2myW6k5rKBE9BaJfGzW1TXoQ0WWwIPT14eGJaXBFHprJJ8ojoj4dUjdeFPnIXFAfEgYZ6ug8INXva5lDjj8RHUCFo2DQgH5kzFpxHF/lF8rgRpxQ1jTNzBGeEj2iFY1+1smjuYpPP94X0aOc1ke99OjooSRzHNpefCLV23HCqFFrcdexfmzM1lnrvj8I6ujymGiUqbsPZJ4oXHOjZDAwejwxXldFlasvU4XPp26zfV9oI6w+23rEQT/Oar6SR1v3pSy8+vHa2KWce8Q8oeqibz29zg3QdFRmyC+er0UDP/m8CXAOUD4AICTUKVCXT/u8oabXZtGsAUtu68/nclHrwaBD8QxGrbI9cVDRVxe6ny/an+96lMG0cX3YUKDr/Y4YrJ2raad2m41cX0DNYqvjcIA+26PtQ9pzHwsGGWrRc7uvp3Q9Nh7J4b9W42v1OEw0xzuUUotxWgqhnhtMjdRGI7QF6b5dJZWn893BJ6QzoWc63t3+mG5XZjXJee52rOfW4/R6Fp04fPKoPqlwE+B53MIVJySxoKqho+ekWwypbzyKtl3pxYMOQYdJNM7HHPZUyqw4XUTHoDGvutB59IQr2QW9fiEa5z16Yj6TVmN/ENCR5bHVWNUrsmFc0QmupuISg4Fjioso101jvchS/HiibGwnC40rHnWb9fsthZW5b7vf+tnv3GFTFl5V9/VmN7qOvKRzz4DmMg0tA9vR4vnyrksjHfivLZ+HxPRVnPK5vAlwPlA+ACAk1ClQj09bvpFA12aiczPOwyKc2X4Gby5TFmXSh0NQ3Vfn04cSKQuLfkKA02+cBESl3x76Fdq6PmykaZ7S02+JtBNrMUidDnW6D+ihfqvUOZY11epD8ph2q6l997F8/vx5Z76ePn3K1+k1LUc73uWOM7G3d+/e6b+O0WY369GOejP+S9vMdnycZHzzr95ulmyY/66U/dx1u+MV9BgW5qXljuuKTHrrV4M0Ou78J+h8YIu3fvWSTKc451Gm0zv16o12o2zeK92nGQb3/LyZ9fi7mfBYFezTJ56SkZa2PNO4bItd5OPk+tmxKS8b+TTgayWO04hLqqkorSyfO+cxC89zUGncKsKhXul4qrhbXkaA5DG35TvHus36/ZbCGnHftoX62bddUbC9vaz5hLdZ3PZ3jimul2IOaRod82x5U+loxD3zGi0zv2o7t1hf2TojnOM/v8P+oHzAaUI9dqxQp0AzpWW7Iu+4ts/Vdtljvqdrs7L2s3xF4XIPT6pcyLjmt4niPLKmkZkWvvG1Xcvr/ysIS/H+PPsA9H7K6pKUFq8PD5unSsIpXmZYPY5lu3GqkW+k7OdV7yO+4atOcxvxPRs8yVBXZ0L3uXnAetQbLWmzx4U2L8+A5kXpXvj41zkQj9SKx8BG1OuZcefYy8V7NvnRaZ88OpjTZsb71m97IzFf301mNJjpfaZ3OaLZUs0ReBDWeKo42Bc1ihb64W1sdx977w+COpY8VuPRwcF8Q0s+oyfh7Mm5RzfxysTq0Uz7Xe8udVvB91sJa8J921Ornzm8u00uvDJuufBe1rlnMLdP4SDnQJWPI5vpwCkhy6hYhPvcUgIgD+UDAEJCnQJ1+LTlG2l0babaz+nvcjg5/y5Fpq9xN3dn8izZn3UNgcRjTiOz7S77OKqmrbH2Beg2f6YvwCksBenn3a8g9rPbcbnX76u0fH3YSMPrfRXOpO9K0vlqZ4bV41g2Zv0tEa18H5JPHg6mYZr7uBJPL+i/pZ9//pl+//13/W5//vzzT/rmm2/0u2OzVVMikOh4PeeO7GaO+xiWO+WwHwXx2Fp3SjSzDHY4WI379PEGHfjH6GjKRsM8ZoNyD/uCvHY4SHsAOHWoxwDO00mX7RauzeDCIU/tX4M0v7q6ktMVZ+FJBieZBXABLtJKL35qzm3I4rn6MusbOBOLrGKhdBDaymMAAAAAAADgDtdmEBry1P7tN80xyFBhNeaDcaUXpgm1ojrASYoWz1nQsCvKhX51uXzIhXOe1XsSYfWaKF5gFS5bS3kMAAAAAAAAPODaDEJDntq//aY5BhlKbenje/2nmDct9FxkACfGef47H4M5zXEmAa2VPAYAAAAAAABecG0GoSFP7d8+0/zq6dOnuUmUfvjhB/0XAAAAAAAAAAAAAABcum+//ZbevXun3yWw8DMEc8rHEPkPwO6cywbKPewL8trhIO0B4NShHgM4TyjbAHCqxJRLWPgZAAAAAAAAAAAAAACCwSADAAAAAAAAAAAAAADU0nyQYbuicb+frFB91af+eEVb/d/nYUu3fY5b/7ZGvJp894KtxjI/cVbK2d6a+S39sm0fwmos9j+m6t0fwfHe3lJfpEdbiXGxRF3Xfl47LceQ31s+B3ntf0ur27Eqf3rb8W1JWGQ9l9Qr3nVb5vvthdV92/D1M8fJ57sl5w47zsPjdJq5p8MVp++Bz+06vi6vOE2qvsN5yJYG6tj26bYowrZzj2v46mUOgHIoHwDQhFMZLbo+1G3ksnpB0L/hU8y3q9tMe4/bI/0x3a4sP4R65rSV5g/P645zsjVjmb8e3WvfTUVYDq7Na1mor1a+OcL8ZdFskEE0mLtDWqzX+gNhTevFkLp8osOpCmoR+Wq40G/yNh/M/AawH6uxqOv0G+rRw67+Ew6n7XOQ5/5X4y4NpwveIrKmxZS3LbhwW73mem70mAb6vW/dlvp+i2H12TZs/SwaxRwn/a5SxbkjT+y/S9OkYLOiuIlGXTYdeOvFlNP3uBt63jgPleVbgIuG8gEALrZv6E42GNZ09yZcK2E17lN3OM2090TVtKDpsCs7D+FMVLRrfa87zsVWdIJ3XzS/zgvgmMJi1fK1LNRz9PmmoQaDDHzBfT2VGXC03MgFH+Rrs6RZjz/kE93z0mH7U9KhyT3H7X7Cf0G7knxlt6WP7/mf3ow2UZ4zXvOotw4gKJ3vaERLmdfuaYLKgB2ybmz7HOS5/9WY5HVAj/PIJtl2JLblhly+babyVC8erfKt28zvtxhWr3iFq5/FXXr9K9Eo1h9Uqjp35G1vn8v990bLJLxx3J6n7jzc3l7TVOw8kw4qfad0faj2zmCeSuPdbqPCZDkG2fQfLdP/H702yxmJXWTToImi34pfOHlDG1A+ACCA8jI6j28WMa1eiDbJiEYj0UwI1Jm0vaXnsmHUo5nZ3uPXZjOT7RfReWjrD0Q9c2oq2rXe1x3nY/MhfcNPs+vRZteyYcMSWtvXslBXPt+4Oo1+6QaDDBuSNyzyxfl8YESxM+CIc2bkP9cfNuozAEeqI4cbTjORg2x0vvvywVEXLDhTvYeEBxiORdvnIL/9y6cKxEXfK77YjDbnbeevVIfU4nWmZSbvcOvRk0fRxp51W+r77YXVL14h6mduEPfVXXprbuQWnwvSqs8dWVt6I24x7M3oFV9Yx+HluN08kS1vSpJMb8spubxPp8M5tnc6gwndL2WsjDQAAAHlAwCqrUg2n0aP6eaxqC8WlG0G1rF9c6c7DO9pYrb3WKczKW5zwsmpatd6X3fA6RNPJVz5TK3W8rUsQIEGgwyc4S5m1Ft0eljmvtqu5FzOyZxlan5m23SIit5PPL+ZuaHxG1yBJHO/Z7c7Y6sxdadr1XB6oD/L2n4keaPsweaq2XIwkzntxPyXxcfb4JNXPLc159izzq/H6Sr/L5eP1FznZXNwyvkMZb7n/BnH28yT5ufZ3y8oN0Wfy7io/ch98f+n4+yzP3WcUmnoeqyyZPp11V3M6yl1xf7MNNPHK/od29yFal5I25ys+hiYYXfYXxxnkd7xHPg149dIPu2b5Rktkxeu+Njd6vkhk3zc9jnIZ//RHfxPKB4ziHQekeyzfv8xFU95oWhu71m3pb/fVlg94xWkflYN4tFsSZv7efG5wORw7sjPl26/E0Scf1/Iwj6ix1FyygEdjtfsxnK34iW1hQAAAKDS6rWc6nHEDYnO4LHszFs8z16/+Os8+FL/VaAzoXu0SU5fZbvWr32+v2uzYluOU9/8fu76lsMQXVMW9oWpbeTd9lzChuL/5TW58V3xXylVfTcF39XX48X9MZ5hyaRfvp+jDe1dyx4+T3n09VQeSyVUnMxtivJ5Pt+Y1Db53xf0/8X5y3jv0ofcKM09fP78eWe+nj59umtsOdrxrne92UZ/UO3du3f6r2O02c16tKPejP/SNrMdlzUZz/xrtFvqzZLvjnYj8W9m2ySN9HaZ/49ePml5KM2O4XLHDbAdn031W5WHorex6PMZb9/rJekzmu2WDZKoKuzLkfgdPoby3+yrt0sOT5O8wkJsy+kiP48TL5O2kaI0Nsh4c1xmlniPOMFteTaXp820kHzSyFaWqvenjpftZR4rRzqdUq8o0cqOl5mwRXVi9hi47i+Osz7W4pVLlzDKy0ZB2vP7enmGlZYBx7qwKL0zatdZuf0XlDEtqj/M/5WfWfKIa92W+36RRmH1jJdnHJxE+yyMaiaMBdtvZiI8xeVf/b8Kr8i/qfAa+9wsZ6lzuWvc9tfGKaonDRVpKuKoymA6varSMC675o4rj1/79pf2cPxQPuA0oR47kFplNGrrJu0j1V4qqB+8fiNpR4v2x4wbIIV1WQT1zFHLl22Xdq1f+1y+P+C1WaqNnXkl37WHI3qp7SzbyDTQnxvn9igN2uu7cQ9L8f6MaygXej8Fh92Pzlf1rg8Pn6dUeGyvTD3rdCyVVuMUp2tVvnHsM47zlz1c0StkmtuI79k0W/jZRjzGI4ZmxBQEZzxpuZpnkaM5MuZy3m1oqSYto2F2RGq94E9n8fxmG8698mPbs9bGPrlSlh+d01QMNnJRXTEVRcVI61YOsXIKT9ML2IjFN4dd253iIfExXIxotonmtIuO95qmL7IjkAmfvOK+7TaeY683M/KLmCuY0yVJGWFA6knd16n5QNUjccbdukXWU5q+N/Kuno94MezS1MzTXDPLze/e6JFVV2ZcjLSVeb/O48X6EeXMnMsqfDUWX5NzOmfmcdb5ND5exjGIj5c5d6G+iylbjrPHwHl/EVEGojQ7prn5aueZknwt/99B2+egIPtXeVTc4Rbxq9vy37fa8/n4EPWz67mjM7nnvFS8lopYsLrX07mM8+/wOnMHEnv/PFpsUX/AVNzGqbr1VCyGxp0sxktOVcX/3xs9C7b2TNFvqVfb524AfygfABApLKPx3aQGy9OPgxvRji2/XnQjnsLkaxK+LhDtD7HQs3zCml/iLt7bklujUc+cBtd2rbeDXZut4ieEo9+QL7GGCH9q7Tco7AtTTyGrIPL+xDal6dRm341rWMz0C9HPEUCo68MD5inXvh6ffjipQb+XWz9ORb7x6TPOKiw3QtM09xN2kEFk2K4IvJjL67gXo2gmydipuZz5r8H8leqMzHTo8sYyTaL5zToT1emYnUJDZjZjn53Js4LtzoeYxkLUc6Pl3DIVRZroCBKshZdzXvPGWxk+hps5X1TGR6fkeEd88orHtroBKyqT+4mRX+K5gtMGuflA9W+NHlemeS7vDvQjcyKv3puf36gwekvmC7yPT3QcZ9kp2GAx7/UdXYtH4VYr2nLh6egFIJPfaIjru+cyDdPHQIZdH69k7kLbQE/mGHjtLzKiZ6HiE1TNPOOZr3PaPgeF2r+cVqhH5qxCXnWb5fs5Bzgf77t+9jl3VBnMuW64V3WObJhxI7ObaXiu15yaZtz4okVc6Iu6NddIPWW9Hqfphu5rV74AZwzlAwBKqI4mc80tFk03Uni96KNDk7lor2xos1xyO2QkqiVuoyzkoIN14ANOQsh2bd6Brs04JnLKnt2cupwzxXX57XhM/espt55tQvaFcZxb7btx0aSfY6WmVY5e8rqOfz41YOg5QBj0+vBQeUqr7OupcyzrxqlOP45N5vcL+4yzKspNqDR3FGyQQc53LDKsXI28+G7BsxDNO/3kkZGBIh16JHPie/po5oTc/GZdemhmzEhuYdmC7c4FF8jrqei42Th1JouOIFV5uFYUIX1JD3IHvOB4R3zySo18ZZ37XN81nxLNBxpVbsZcodVs8WahFkGO4t1oHnfTgG5kZliru4yHQ+p21Uk4v7ZBAIuhcaKPXl21hoNxQsgN9BQdA8f9SUe7EHXNPLP5IBtP1nzZfcin3WJtn4NC7j+3HgPzqdts3zcd6nzsHAe9Toz58p4H0vPc4aMzsZ9PxG+l4sYXLZO9nHvaMVqq4yVfm6WKB5ey0ZNX6QXiAkj9Vu515m1GOEkoHwAQKSyj99lOOt2pxa3Zqbz2iF66Hc8t/+fBHhnoUGcw4HbInO7FGlPipg5RUVlukhBQzxy5Ftu1yv6vzWKiY5vLQbfbldfl08VCPoxvFbQvrOW+GxfB+znqC399eKg85djXU+tYNuz38unHsXHtM86qKjchyrGHAIMMW7nYhFicRowSiYUaA7e94YzJzjL+dz3tpgujGMZnaqTWZYS2Q1VrYV02XRnrjrCVuoW+eqqkEyWmRtmITgF5l3FkLadx6e7zDp/1B4ofbtMj3mqgh+tNMdzNdeaNzzEw9wda2+cgl/3rE7m18RAtpBWd/Lf05o4vIqwNHpts3Vb2/dBh9dm2TPj6Ody5wyYTXt34+tLa6jyTc09noKZg6Il6stto8a9juJACCArlAwBc6BuIylinh3Gi72ouvI7p0KDgJgk4fn7t2lDt833gfCs6tvmv3mhEo9mSlsuNvE4Pf//0uYmeAtGvjZraJj1g6DJYEPr68PCOpq/HxwX14zQcZBAZVo3MyDnGcqP5Z6rzgESfgr2RoDqACkfBoIGyxtU+Kj/bqHXF8fbJKzXylXV+toIGbufREz4xiTvpfaZKCiBXoerHBiNRvF3mmhOq9qd1RKeAfJxYnJTFI8UzUrO23JHvsgxlZN0Xn+izLz6J6+04RGrEXDT89SNrto5i9/2dId2Za32cUI/Ap7V9DnLdv+5otuWt6PHELx/o76r8mu6w9qnbbN8X2girz7YecdCPs5qvYNOYOSsLb3QnoqbrKPtjrjpuZ0HME6ou+tbT69wATUdlhsJ1baILZPtgDMCpQ/kAgDLcDlPzZah5ti0vOSvFekr1Zo/UU68Gvo6BU+TTPm/I+9osI3pyf8lt/fmc5pMBDQYd8TDwHrTcd+PCt58juDauDxtqmqe0yr6e0MfSwdH24wRKc1eNBhlWY5VhZaVxUc/YRSf5KV2PzelXtpwm1zJN9taBe+LUYpyWQqjnBlMjtdEIbUG6b1dJ5el8d3Ada5pejylZU8vlePvkFY9tOxN6JrZdDKlvPBa2Xd2qhXxs9Hygi+fP5aNj1selgtInq9SjweJEJxa0MumRc7kgjhFrERfRCRg/8uu4P/1IpviemJ9P4pZMp/uAHuq3Qej0FJ0NYw5PEnIR9nEm7Eo80PNCdDbY52v12d/ZieesdcvXbZ+DfPavpsPK1BFcN431IktxeZON7exTRB51m/X7LYWVuW+73/rZ79xhUxZeVackizbqbUW+LIhbXDefvAHNVS8IH/PMAEy0gL28k9tIB/5rezuWj/lzQpztE3IAKB8AUCjqiCtpD6gFoLk5Yb1poVrcJutapoA9yzbJ5fBt1/q05RvxvDYrIvJ8nF9FOHP9Ab5cpizKpA+HIGzfTaQsLK79HO1o6/qwkaZ5yrmvp86xrKlWP45LHg4kUDl29vnz5535evr0KddnDjazHYdzx7soeY12S715lXfv3um/jtFmN+txfHoz/ksrjX9vN0s2zH9Xyn7uut3xCnoMlyOZllwhZix3XFdk0lu/GqRRVdj5/M6/MdqN5L/Zl5nPm+QVFmDb3mikPs8nHn+lp7dzK5tRvNPbeuRVfRxTrx6no3MaZeLsuD8V7oKXkS4qPTK/YVUQZ5/jJen9iP/PpR9z3l/RMRC7yMfJ9TOb8rKRD0fjPFOaBpy/owBXbKde5fm8NG419l+Y77J5znbseU8udZv1+y2FNeK+bQv1c+G5oEDB9vb87hNe3jYqu7lXeT4T9tfGKa4bYg5pGh3zuLxpKh3NuKdfo2XmV211tvVVnYZ17S/t4fihfMBpQj12IA71QSQq/+Xb6jrIbI841APmPqvqGXFdlAoC6pmjVlm2S/Kga/tcbZc9vi1cm1mVtLXlKwqXe3hSZUDGNb9NFOe2+25cwlK8v+rr8BS9H1tesGrx+vCweaoknOJlhtXjWLYbpxr5Rsp+XvU+4hu+6jS3Ed+zqf8kQwuPVZyUzoTuc/OA9fi8vqTNuS98fVADmhel+x6m63o836R+uzea0abq0SefvNJwW7Hdq5vi+/XVnfRsX3e4DOa0mY3UbzKZXvc3+ScKdFzS0bYsSuS4vwEfp6WxndTrcR2+oV3I1bSsx0uFy76gUrTIEG9ju6vbe39nqCAvzJbq7q9Y2+egGvtX+Y7Lq37PAZdzj27iPKcezbTf0e9StxV8v5WwJty3PWz97I/Du0vX6XHccuHlbe85HXjb1NYibmc4jdlgbp8WRs6BKh9HNlOB00GWUbFY4fEdZYDQUD4AIG1FL9RtsRVPK0XXAcVTq1WR9YxsJ6fbI/I6R7Zfzq9NAnY+bflGXK/NrNS1Qfq7HE4+Jy7FibTG3dydybNkf9Y1BBJt9904haUg/byv7cV+djv3hcFbvj5spFGeisLp0NfjcSwbs/6WiFa+H8cnDwfTMM19XImnF/Tf0s8//0y///67frc/f/75J33zzTf63bHZqscPSXRoHmNHyXE47mNY7pTD7mU1lgtIjZYeJ6gztxr36ePNhXTg13A0ZUM8GtmdEs02waZGuphyDweHvHY4SHsAOHWoxwDO00mX7RauzeDCIU/tX4M0F4vT7+QDDWkNF36+FPaFZQFOipirUyxI1pvRDQYYNLHAa9gFf6CJlV6M15w/k8XzQWbWsQAAAAAAAIAW4NoMQkOe2r/9pjkGGSqsxnwwrvTCNKFWVAfYK12pdIdygZuQi6+evNVronhxVzi8aIGmBQ27ou7VL867C/kU+jM8cQIAAAAAANA6XJtBaMhT+7ffNMcgQ6ktfXyv/xTzpmF+GThJXXqoJ1oT88/h0TPDYE5zpMdRcZ5jEQAAAAAAAFqDazMIDXlq//aZ5ldPnz7NTaL0ww8/6L8AAAAAAAAAAAAAAODSffvtt/Tu3Tv9LoGFnyGYUz6GyH8AdudcNlDuYV+Q1w4HaQ8Apw71GMB5QtkGgFMlplzCws8AAAAAAAAAAAAAABAMBhkAAAAAAAAAAAAAAKCWAIMMW7od95MVqq/6NL5d8afnhOPY57j1b2vEq8l3L9hqLPPTeKXfG7a3Zn5Lv2zbn5Pt6pbG/XT8+/0xrY4uc7WV71cc/8s53sfvGOq3ls9BW5Hn0vvvc8az739Lq9sx9V3DIus5Lr/6rXfdlvl+e2F13zZ8/cxx8vluybnDzif/cDrwts7Hdx90fF1ecZpUfYfzkC1e6tj26bYowttblTZm4ruGr17mACiH8gEATTiVUaMdlqLbyGX1gqB/w6eYF10P3touCFHPnLbS/OF53XFOtmYs89ejq7FIj6KyaQpwLVsRFoBL03CQQXRodGm6WOv3wpoW0yF1caKCusSF2HCh3+RtPpj57VKoE1Z3OKXFOh3/9XpBwy43LktbsOdhNR5y/PUb6tHDrv4TLlTL5yBRF3VFnkvvf73g/YvBPf1JZDXu0nC64C0i5WFZveZ6bvSYBvq9b92W+n6LYfXZNmz9LI4vx0m/q1Rx7sjzyT+iDuZ04G1d0uGkcR46y3gBhIDyAQAutm/oTjYY1nT3Jtw1mrjZoeh6cDrsyptL4ExUtGt9rzvOxVYMrHRf5K5tDuGYwgJwLBoNMmxvn8sOv95oSZvdTi76sNssadTj/1w8Lx+1Pykdmtxz3O4n/Be0a0u311PjZJm1pY/v+Z/eLMlzxmse9dadGdGImIpE6Y1oudkYcd7QZjkiUeTW0+szKnM2+tgTp4GM+z1NUCAP7LB1Y7vnoKQuGi2NMsf7n8kCt6Dn5g+sxiSvA2QZzYZlaLkDSeXnXjxS5lu3md9vMaxe8QpXP4u79PpX5qBilapzR55X/lm90HXwLJ0O4v8O2d4ZzFNpLM4J8phbjkE2/UfL9P9Hr81yJs8pIeNV9Fvx61xP3nBYKB8AEEB5GZ3HN4uYVi9Em2REI24orKeBOiG3t/RcNox6NDPbe/zabGay/SJuLrH1MaOeOTUV7Vrv647zsflgDqwITa5Hm13Lhg0LwHloMMiwpTdieJ4b6q/4pBQXos6Abp6I2m1NHzbqIwBX29trmq654TSTXTcWG5I3yn754HIq7rgRwRfF99yQ7Zgx73CRm9P9UqTXmqYvzrhFEek9JDzAAO2fg3RdM1rSfGCUOd7/5F51Lq+NH5BPFYiLvleijKrPxLbzV6pDavE6UzblHW49evIo2tizbkt9v72w+sUrRP3MF1V9dZfemi+cis8FadXnjiy//LNVoyecDpN0Oui6N+RdiofWGUzicwracQBpKB8AUG1Fsvk0ekw3j0V9saBsM7CO7Zs7rnlEc++eJmZ7j3U6k+I2J5ycqnat93UHAMCeNBhksI/Sbbe39ELe7jeix2czIC46PSxzq21Xci7nZB68K+qPb0vmx9f7iefMMzc0foPTMJl3PrvdGVuNqct5RzacHujPsrYfSXb1XNA8OUkjomREfHBDy9mMljeZdHHKowX5u+hzOe97sr8rMQeong/SPmVTWb53xHnj6ko/zbGeUlfsy7xFQ8czDpNlTko1N6NtXlSOj/iOGU+H/cXx4nAk89CPj3B9jDbl84hMZ/me/y9OQ/O4m5+L/GiZO9Qpj7V9DuKGuvOdXdEd/E8oHjOIdB6R7LN+/zEVT3mhaG7vWbelv99WWD3jFaR+VgMVo9lSDqoWngtMDueO/Hzpl9SGAQAAgL1ZvZZTPY64IdEZPJY3eyyeZ6+z/HUefKn/KtCZ0D2eSjh9le1av/b5/q7Nim05Tn3z+7lraw5DdE1Z2BemtpE3X3IJG4r/l/0BxnfFf6Wo9dSi382vZVnwXd0XUNyH4hmWTPr1+f8vq88ALkmAhZ+VqJOt253SoiemE5hbHx08G1z5ifmvxVzOojsisl5Madi1LTLzgV6IuZ/jjcWced18pSw6UEUaVm13drjiFbW0vBNXf2Sz+SDT+0vacEVtngzPtaIuaUSkdGgwEXfYGht551EHep9J/mRiDtDUfJAmx3zfhBHPRH5OyoG8k8hyx3F0IfBMdzY67i/2/jldRxEUT1mUHqfL8UZM8RWnoTruYy6kYl57M23FY93XZn7wzmPKXs9BOs8knelld/B3SF4Trj/wVgm5doG5vWfdlvt+kUZh9YxXkPpZDJjc03xiPF1QyvHcUaEq/3QePaEex256bcRFXDA8l6lrPJFy+uRUVerxOax7A5CB8gEA5bitK9sG0c0KA1KXIHfU+KHHwY2c8m0xVG0rsdBz013CsXFp1/pfdwj7vjaLiDZ2l+OUXkZEXVunfkcI3Bf2WqxbYcaNwz3sVizGbvQFpKNcsw/Fkn5rjmft/hiAIxdskEF0ePR6YtiUiULDF+LnfNJT8yzyJQafAJJ5XTe0VBPh0TDbGckV2oKSuZw3+tE3cwqLmLHPjZw8tmC7MyIX9OXG2LKil0hNWcEpzCclc8ErVelXnDBOUlkjopx3Hq3EjRA9N2RvZuTRaH5iG598X0bOq5yZS1nnlTieRpjieJpzUuo7ibK/vVLPM8d3LTvvLyLy4UzPi4r5FxU+B0zfG8dd55HFkBuxZn6QU07w5ndv9PmiRh7T9nYOEg1F0fgX0+zUXhREPUYv7nCL+NVt+e9bBQmru0PUz67njs7knvNS8ToulfmnM6FXnF978qJA34kkLxh66k6zEyz4opNCxiPzklNV8f/3Rs+Cxavot9TrHM/dcOpQPgAgUlhGbXdOy+ksRdPrJr5ZYXAj2rEhprUVT2Hy9RBfk4i2lVjoWT7dzS9xh7YYdCiCeuY0uLZrvR3g2kxZxU8IR78hX2INEf40+R1DYV+YegpZBZH3J7YpTacFLRYjvkyP1i+J+kHKy6JbH4prWMz0M8Ih4xVmGjWAYxNskGEw39H9vbiI15UBV2Tnu7K9nmdRdNxwZZJcY3Q4HV6pjtDF68zIZHou585EdXhmp9CQlZSxz87kWcF250OMbqsB++o7j+Xdu8zaARyk8XYu6uTRCrrRLE7898Zdxsn8xDau+b6mrVgAjf/NhMmMZzInpb6TKBXvZM5Umfe89hcZ0bNT7GFsVea4D/Sju6J+uzc/V3dkxWrlMWUv5yB5J4poKFZMX1ZFTiuUvgvWq26zfD8nVFg97Lt+9jl3VKnOP1t68/o9xyJrTe+5Tjir83NPDJxs6L70wg3gQqF8AEAJ1UGZecIxmsLG99rLqkOTuWivbGizXNJsNBLVkrxDWww62KeMgVMQsl2bt/9rM0VP6bqbU5dz5molpiEaU/96SuKSOy9kXxjHeTOnSTzTg0s/SOg+FH3DqEw/Ixzy5qddo6ewAY5VsEEGU2dSsxPzVETzTj95ZFQ8kQ49UhPh0UezJsxNd9Olh2YFHsktaluw3bnY3sqpZsTIrkslKzqCRIVc1AF8fnlOH3/fE2udPFpFT4VivXu6+5BP4xau+b6pxdByV05XTdNkpJ2aMsm4a8CYMzXFcX8SFqK2+JIe5DNedVrVyWMWbZyD5HQ6otO+x43fTbM713PrMTCfus32fVPIsPpwjoNcYyVdvrwfg/Y8d/iw5Z+VfsTcNoCSe6z8RIyWUTz4tVmqOHMpGz15xWkaNtOkfiv3Os0nQeC8oXwAQKSwjOaeYNYdlNyanUZPPcqXvobgq47nwdoLHeoMBjSZz+lerDEl2iSioiq4yQb1zJFrsV2rHPDaTNz4xOWg2+3ScCimIcpOnWQI2hdmi3NFP0joPpRof5hfES5IK4MMogBWrUsEIMjOMv53Pe0aDTF+iWF8ph7tdHmE81zzXDSvYvU8nsULG184c07KaC5TOcqwVXOm9mZ049OYs8xxCccmZH3A+aTPDWNxdch5RSxGnO9fKhsMjNZViRrNW3pzxxcR1sarTTYuZd8PHVafbcuEr5/DnTtssuGNnngqfsJpPX0RD0icpM5ATcHQazb3rYALKTg7KB8A4ELfvFTGOj2MkxWNRTun8EkFcXd0+JtsYD/82rWh2uf7wPlWPlnNQRqNaDRb0nK5oc1mqZ5QAICz02CQoexEF43in6nOA1L9vrZGguoAKhwthgbK8tyxnVDDiefxLJtjfqun+Ynubq6TR3Od5/rxvoi+WyE/XRDTdzkcSjLHoe1lPnKq70AQje9ozlRLZ637/iAorzy2j3OQ6LRXd5/JPFG45kbJYGD0mHG8rooqV1+mCp9P3Wb7vtBGWH229YiDXGMlXa6SR4j35YLbMIXE/LLqom89vc4N0HRUZsgvnq9FF8j5vAlwDlA+AKAMt8P0gs9yfnbLS84us55SvdkjAy4gDSfOp33eUNPr/2jWgCW39edzmk8GNBh0KJ7BqFW2Jw4q+upC9/NF+zvz9VUBTA0GGaIT3ZSux8Z8xNsV3fbFgjWioyNZ8Oi8FMSd/1qNr9XjkNEc71BKLcZpaYjpOf7Uo53RI5xleU53rjnfHXxCOhN6puPdzS3qxXnudqznXuf0ehZ1LPrk0eiuXfMRXtFhqcpxLJ5PdEj922Sf25VeXPYQdJjEBf+Yw55KmRWni+hEzDwy3Hn0hBtLC3r9Qlzw2+dM9dkfBOSVx9o/B8kpcrisyIZxRSe4mopLDAaOKS6iHJaxXuwrfsxYNraThcYVj7rN+v2Wwsrct91v/ex37rDxyT/6jjGRL81t+a/zO+cPaK56QfID29Hi+fJO7nQ6bPk8JB7z54TI5U2A84HyAQAFos7dkvaAunGsoMPWQdwm6/b5OsWsZ5jR3jqfNsnl8G3X+rTlGwl0/S/yfJxfRTiz/QzeXKYsyqQPh6C63e7ThxIpC0tyDTFOAqLSD/0KcK4+f/68M19Pnz7l+szVcsdlcMe7yb96s91Gb+Xi3bt3+q9jtNnNepk4bWY7ri/scafebpZsmP+ulP3cdbvjFfQYLkcyLfmEmhEuz5mOO/8JOh/Y4q1fvSTTKc55lOn0Tr16o90om/dK92mGwT0/b2Y9/m4mPFYF+/SJp2SkpS3PNC7bYhf5OLl+dmzKy0Y+DbgtzHEacUk1FaWV5XPnPCY0qw9K41YRDvVKx1PF3fIyKjJ5zK1hc4uL9fsthTXivm0L9XPhuaBAwfb2suYRXu96Jm1/55jieinmkKbRMc+eV1Q6mnFPv0bLzK/azi3WV7bOCOf4z++wPygfcJpQjx2IQ30Qicp/+ba6DjLbDQ71gLnPqnpGXL+lgoB65qhVlu2SPOjaPlfbZY9vW9dmWSVtbfmKwuUenlQZkHHNbxPFeWRNIzMtfONru5bX/1cQluL9HXcfAEAVkY9tGq7JIFaL39BsxMUm1pNzrW0Kp2o4E50J3YuF4DJx74047ntcaPPycJ4rSvezznPiMf0NbfiM2euZcefYy8VdN/m7l33y6GBOmxnvW7/tjcR87jf0UL+P6X2mdzmi2VLdmXMQ1niqONgXvY0WbeJtbHdWe+8PgvLKYy2eg2pMATaYq0X3ktDosMQruJWtp+BStxV8v5WwJty3PbX62SP/XFi9MJjbp4URd9ptuCyOLOeh2VIsVnhmCQFggfIBAGkreuH0tFJ0DVI8tVoVWc/IdrLZLmP8XrVf5ty6gUvg05ZvpNH1v7o2SH+Xw8nnxKU4kfosoqx1Js+S/VnXpUg85jQy2+6yj6Nq6mNrm19fz2Ta/E5hKUg/9CvAuboSTy/ov6Wff/6Zfv/9d/1uf/7880/65ptv9Ltjs1WPH5LoeD3njuxmjvsYljvlsB+F7a2csolmlsEOB6txnz7e4ER7jI6mbDTMYzYo97AvyGuHg7QHgFOHegzgPJ102W7h2gwATodYnH4nH2hIa/gkw6XILIALcJFWeqFUc25DFs//mFnfwJlYZBULpYPQVh4DAAAAAAAAd7g2AwA/GGSosBpzpXqlF6YJtUo/wEmKFkJa0LAryoV+dbl8yCeEn9V7EmH1muhsF4kHPy3lMQAAAAAAAPCAazMA8INBhlJb+vhe/ynmTQs9vx3AiVFzPyZrN0h6XsVd3fIxmNMcrRPQWsljAAAAAAAA4AXXZgDg4+rp06e5SZR++OEH/RcAAAAAAAAAAAAAAFy6b7/9lt69e6ffJbDwMwRzyscQ+Q/A7pzLBso97Avy2uEg7QHg1KEeAzhPKNsAcKrE1GlY+BkAAAAAAAAAAAAAAILBIAMAAAAAAAAAAAAAANQSfpBhNZaPTYxX+v1F29Jt/4qu+rf8l+09JDhtxn2Zd9SrT+PblVs6XVCe265uadw30+mK+v0xrY4uQ7WV11cc/yTuqGcO7RjqtC2tbsfUN8vEOGB4tiLPpeumPmc8+/6zYamox2TdxeVXv93epsu2+bLm9cz32wur+7becajEcfL5ruf5oH54PcMVio5f+cvIEym6vPLxuy3MlKzGObXo3HRrOzk5xYFfe09cOGdRWe8XZf7trarjjHynvlNSXizf8So/NcoaABwH1CnQijavO87J1oxl/np0NRbpUdQeNgW4lq0Iy8EhTx2nWvnmCPOXRdhBBnFiHC70GwBXouLr0nSx1u+FNS2mQ+pWtZIuJs+pCqU7nNJibaYTp9R6QcNuSSP3jKzGQ46/fkM9etjVf8KFEuWiS8PpgmuMxHoxpW6Ik6+oX7oiz6XrpvWC6yYxuKc/iazG2bCU12Or11x3jR7TQL/ffEiX7Sqp77cYVp9tfeNQTpwbOE76XaUa54N64fUM17HYvqE7Gd013b0Jd75YjfuF56bpsCsvZACOxXp6XT7IBgDgAXUKBNPydce52IpO8O6LXHocwjGFxQp56igdfb5pKOAgw5Zur6dGhgSiDk3ud7S7n/BfUGR7+5wrPqLeaEmbHaeXeG2WNOrxfy6elzTcLifPiQp/KiLaG9Fys1FpJF8b2ixHJJLq/Bu5W/r4XvzLaSDjfk8TFKwDO2wdt729NsqFLhNcd8xUgaDrRgUiqV9GS6PMxftf0HNz/6sxyf7tTFhUPTa03FWm8nMvHinT+bs3S+pB4zWPRiJi5vdbDKtXvHzjUEzcGd+/Eo1i/UGlOucD//D6h6sdo2U+vMlrHg9cmVYvRPqMaDQSxSNQw5YvXp7LxOjRzMx7/NpsZjKfiAsZ27VJeRz45ZNhAJytaXp93HeAAcApQZ0CIbR93XE+Nh/MTnChyfVos2vZsGEJDXnqWOXzjavT6F8ONsigOnv4InPGV68Azrb0Rtxa2ZvRq/kgKSydAd08kbUffdioj7IuJs/FFf6MNvdzGnTMKqXDSTWn+6VIA27kvriA2r/3kPAAA8R1hxh0kuVCfSrqjsk9N4j4z3VR5eFkQ/Im99GS5vHOWcH+5VMFoqP1VTos81czOQi4eJ0pm/Ku8h49eRRtrH/vywdujYbU99sLq1+8PONgxQ3ivrozfs2NXNf6vd75wCe89cJ1PFYkD+XoMd08FmFfUDZL1rF9c6cvXu5pYuY91ulMivM/wEH0aCRHvqZ0Cc0lAGgb6hQIpeXrDjh94qmEK5/p0JCn4DDCDDKsxtSdrtVF5gP92ZmQ87nJaTe2xpoBYm6yaNTP/FzMBW7OWSY6JarmzFrJeZ3lnHHmRttV/TUKTop9NG7LlegLeYvyiB5bb8k83zyXlVT4JSOWgxtazma0vMl0v+t8lMyrJ/LobWYNh6J8WvC5nNcv2d+VmHdbz91nn7JJ70dub5YdD3y8r6700xzckO+KfZlnWIfyouZmtM2DqsugGU+n8qfjJcp8PK97phyfvXweaVZnai55THayc8mY3Vju2uYGkbj7otGd0D77iO6If0LxmEGk84jkeOn7j6l4ys5Zc/vtR5K7cJwDLP39tsLqGS/PONipBvFotpSDqk71u8P5wDoPsld4a4TrmKxey+mdRnxC7QweywuLxfNsne+v8+BL/VeBzoTuG5dFgHAe3jxT+X+YnyYAAMAX6hQIo73rjr1dm5XYclu9b34/d23NYYiuKbdinS9zOyOc/Lm8+ZJbtUPx/7I/wPiu+K+ULcffiJuYIii1UcF3dV9AcR+KZ1gy6dfn/2+/z+Cc85Q6rqnjkzu2WuWxVELFydymKJ/n841JbZP/fUH/X5y/jPeF5cbQKM3dBRhk4ICKVJIjZPqjM/RGTFcTz48g5ibr0phzppgP3FxLQEwL4D5FB6edmHZBdCBvjBFDMUrZHdZbo+DERZ213e6UFr0ZLUW66P9LXEaeU0oq/JQODSYTzkPGRkY+SuWkxZSG3ZoNYb3PdNZc0DQ1d5/pA70QZST+T1V2QlZiruVlIO/etcxFHnW+PdODOL7l7/1zuo4iKJ6yKD1Ol6N2nemaxzYf5PsvH3T4fGmeVO0Nh6B0nkk6p8vuiO+Q7Iddf+CtEnItAHP7KD68lbk4V1Fcct8v0iisnvHyjIOdaBDf03xiPNlWqsH5wCu8vuE6JlzunstaTg/aD0hVh3fUeGmGwY185HoxVOkmFnpus+gBNMdlWT79mZkmAACgFtQp0LIA1x1C69dmBUT/Tpfb6umlu9S1da7fTNxMKPqB4m1VOOv2HbwWawyYceNwD7sli68LRl9AOso1+1As6bfmeNbujwnhxPOUXDsie3xsx7bGsWwaJ3Mb9X2fPtyafWcu5aZhmvtoPMggF2LlC9flOff28kGbvhcd3js5N9lmqR8ZGnIGIPNz0cDgze/eOFxki4wq0k4MMKTnllfzJnOhnxlrFOw2tBSPY3JmPudxBtFx1uuJ1GWi8rXMcXkReS5WVuGXi/PRyJKPOAWH3hmJ86ye18/Mm1F5sOKKa2GWET3FiPc0NoO5DLucPzCaP10ff+fyou/ezf72Ss0hEj8x413+RItppuc5PPL58famdp3pn8feP48WndUfsEYDaVXECVp0aosp3movCqKmrhF3lUe2cjSR04gbIubiXCou2cZw/vtWQcLqzi8OYbieDzqTe85L6XPtIcIbiujUjwZFUq/4zhaD5amfwY0oUyGm2BNPI3LdzPWjSDex0LN80oxf4o4iMehQpDAO8nXc6Q8njtsU4vSDBVsBIAjUKdCWUG35PV6bpa3i2Smi35AvsW4Xf2rtNzP6Ljby4p+3k9fvagYMFUTen9imtP2/oMVixJfp0XoEUT9IefvXrQ/FNSxm+hnhkPEKM3WptzPIU2qij/Saeup30jeUeveHNej3detDqsg3TfrOCsuN0DTN/TQaZBCjkiJ/jpa2u83PiZqqJnrSoDPQjwyJjHFvfq7u6HMhR8jE/NGZAQZR6NUNh0u6T90x2eH2yyt1x+AZz4c2mO/o/l50BunCwQXdHPm7nDzXVFL5pta6MPIRZyTeyoPuqMrmzc5goteEsMmUnYnq6M9OHVObV3nRd++m4p3MUy7zU63yN6Jne+jAPS0168waeWy9XqdP5tyQFB2efKRqDKRVEI2yrjhBq/jVPupymp4embP0yCcTmLVhwr+Yagxbvp8TKqwevOIQQNPzwb7Deyiq0Wuu/8GiR599zwNW3GCei/P2hhurSy5/IxL3Cog7isSgg3XgA+DA4oE2LNgKAAGgToHggrbl93dtlqan7NnNqcslY7US08mMqX895Ss1Gw6P0XfRmajpyOr1HXCcN3OaxDM9uPSDhO5D0TeMyvQzwiFvftpVPIUtZj0xbsCReYF/PnWTjudNOWeRp7T1HV2Lp885T205DcQ6pSJNk3SucyzrxilUH27m9537zirKTag0d1R/kIETUkwRIkbkygvHOfiSHiQ5JVF3AVoxQiZrVcvULZHF0Kg8opcYmOD/C9VBe+Q6k0zhv6g8F+nSQ5EGvsc8mmv8ySOjkot06JGsLd/TR5+d6qlFrHdPdx9ylWiRm+ZJxyc0x/Kipkwy7hqIpkrKxsmn/GEhaouadWaNPCbqg9TJnBuSk1qNwHJyKjfRKOvxSTw7OOwptx4DEwOsqmFU3Qiyfd8UMqw+nOMg11hJly/vx6ADnA980vzYjJYq7LkXN4DTh1s3sLlkTbtmmuv6jGvAcNM7dLixOuDyN6d7sdaSGLARCZm5WSBSGAf52l++hQvVmdArnT/PZDwRAA4JdQoEFL4tv79rsxzRsc1tz263S8OhmE4mO3WSIReeJn0HtjhX9IOE7kPxWv+tXeeTpwZ0Iy/U1urpc85TXXmNk1n/oNaxbNjv27QPt27fWVW5CVGOPdQeZJCdHPzvetpNJ6K4rZCpETY87m4nRlX1iu51Hqu0zId2nvT8b9pl5rloDrzqubOLFza+cGZ50aPOaiR5q+Yp783oxqeT8mLK35HTJ0SxJkNeuu5ohvNJnxvGonUgHsu8n8d3FyTKBgOjdVWik/+W3tytCxo8Ntm4lH0/dFh9ti0T8ngo7Z4Pwof3YPRAahnro+pO9B1WhU8qdGiQvVkA4IhEd3o1XbD1GDoPAODwUKdAc6Hb8ofGbUV55zwHaTSi0WxJy+WGNrovDMpET4Ho10ZNbZO+ScdlsODc8pSoa+9lHlKzF0T0+gfH+gT1BfUhBVj4GbzJEapokSj7lAzJnG22F1cMervTV9ZJEd2BedmcHr+NHtGKRj87D0iNTdg6j1QnZW6kNlfx6cf7IrpT1/qolx4dPRT38qJHrUWHl35szNZZeznl78j45DGdx+2PHurGUGOiUabuPpB5IneXeKRkMDB6PDFeV0WVq/TgSFk9mG3Y2b4vtBFWn2094qAfZzVfyaOt++KT5qeK84R6dlfN+Wl5qWZI3bsuAy4gDXAQyYKtw+s79ZGhoyrAwqeOo8FO+2A3AFwe1CnQRBtt+YaaXv9HswYsua0/n9N8MqDBoCMePN8D2xMHBf0gkTp9KGWi/fmuRxnMGeYprdMRT0+raafEdMlifQE1462OQ+hj6eBo+5D23I9Xe5BBLaJoSTw9p5MaYcPj7qWiubzihUCYnidZPOEwvt2mCsR2NZaPml2Fnmf8oKJOiildc7zi+G5XXCGKBT1FYVWLVV5snutM6JlOo25uIc0trW45X+g7BEbPohNHQbqK7cfX6pGtaB2C6KTCqZ1MmyFOSCr9Y/Ec3kPqG4+ibVe3avGgQ6hRXjqPnnAlu6DXL0RD3j5P+eWUvyPjlceiNTZ421zdoR9LjPN4PSu5do6qW6o6wdVUXGIwcExxEeWwjPUiS/HjibKxnSw0rpTVg7phGA2GWb/fUliZ+7YecQig+flgv+E9iOiioKQcqEFsLkbWwbpqcf7oZh5RFoy0bFoWAVqjF2wVczeIrJoyUHPhiiemzHMSZ27acttLTNnGmTtXHwPABUOdAjW11ZZvJND1v2hnxvldhDPbz+DNZcqiTPpwCPL9IFk+fSiRsrDoJwRkf5+xN5F+e+hXOMs8paffEmkn1mKQOh3qdB/QQ/1WqXMsa6rVh+Qx7VZTgcqxs8+fP+/M19OnT/k6vYHlaMe73XFG9vLu3Tv913HhRgLHZ7RLR2ezm/X4896M/zJlP696zzazHR9v+2fWV283S//o0ah/DJc7Lv+WuPIrl8YWNfOc6VjzX0LnnWz6GK9eNmP45COdhqlXb7QbFeXXglcSBtcyInbZ4++65OuCfXqXFyMtbfnLeX9FcRS7yMfJ9bNjU1428mnQrM5kznlM4LojOpa5VzYMeaVxqwiHeqV/Q8Xd8jIqJ3nMbfnOsR60fr+lsEbct21Yl9v41u8F29vLWoPweoYr2DnG43dVnKu2jepDI21s54PMy9xn9DuFLz6XpILgsH/1qi7DLo7//A77YK8DNLMOzRSYqvw9WmZ26FN+PMsaXC7UY8cHdQqEEJftFtvy+702yyppa8tXFC738KTKkIxrfpsoziNrGplp4RvfdJl3CUvx/grqjyJ6P85l+GzzVEk4xcsMq8exbDdONfKNlP286n3EN3zVaW4jvmeD6ZIOzbhL/Tq6i5w/u8/NMcZZczTb6yKe+yPmm9tk4tuTc/ZtCh/pujQdmtyLx8BG1Otl8oVcvEcsfptJKWs+6nE+4nTN5qPBnDYz3rd+K/La5v4mMxrM9D7TuxzRbKnuhj0I7/ISLfTD29juVL648ndkvPIY1x1cLpa8cXpzzuNNH0ms8ejgYK4Wuk3CouuxeGXisvUUOC5F5TWuBwu+30pYE+7busThmJxaeH2s6IW6RafijsioPiyevqFKNC/qiM9NZkryyUmfxw/4eDCACz7vyAVbLWT+lo/gp/9ftL1mS7Hw/GnXFADQAtQp4KvltnwjXtdmWaqtnf4uh5Pz+lL0gdW4m1uufRLtz7qGQOIxp5HZzpd9HFXXiNa+AH19kOkLcApLQfp59yuI/ex2XEfo91XONk9F4Uz6riSdr3ZmWD2OZWPW3xLRyvch+eThYBqmuY8r8fSC/lv6+eef6ffff9fv9ufPP/+kb775Rr+DU3TKxxD5ryHx2Fp3SjSzDHY4WI379PEGHfjH6GjKRsM8ZoNyD/uCvHY4SHsAOHWoxwDO00mX7RauzeDCIU/tX4M0v7q6ktMVZ+FJBgBwtNILpZpzG7J4rr7M+gbOxALfYRfdgVPVVh4DAAAAAAAAd7g2g9CQp/Zvv2mOQQYAcBQtnrOgYZcrKVFRiVd3SAs5K8ezek8irF4T6cW94dK1lMcAAAAAAADAA67NIDTkqf3bb5pjkAEAnDnPf+djMKc5ziSgtZLHAAAAAAAAwAuuzSA05Kn922eaXz19+jQ3idL/+3//T/8FAAAAAAAAAAAAAABA9O7dO/1XAgs/QzCnfAyR/wDszrlsoNzDviCvHQ7SHgBOHeoxgPOEsg0Ap6qo/sJ0SQAAAAAAAAAAAAAAUAsGGQAAAAAAAAAAAAAAoBYMMgAAAAAAAAAAAAAAQC0YZAAAAAAAAAAAAAAAgFowyAAAAAAAAAAAAAAAALVgkAEAAAAAAAAAAAAAAGog+v8ByciVcLAk1LwAAAAASUVORK5CYII=;" parent="1" vertex="1">
          <mxGeometry x="2142" y="785" width="2036.47" height="227" as="geometry" />
        </mxCell>
        <mxCell id="e8wDKpaH5UQi7zVIwjwI-3" value="" style="group;labelBackgroundColor=none;strokeWidth=2;fillColor=#f8cecc;strokeColor=#b85450;" parent="1" vertex="1" connectable="0">
          <mxGeometry x="15" y="-67.5" width="374" height="35" as="geometry" />
        </mxCell>
        <mxCell id="e8wDKpaH5UQi7zVIwjwI-4" value="" style="group" parent="e8wDKpaH5UQi7zVIwjwI-3" vertex="1" connectable="0">
          <mxGeometry width="374" height="35" as="geometry" />
        </mxCell>
        <mxCell id="e8wDKpaH5UQi7zVIwjwI-5" value="&lt;font color=&quot;#0f0f0f&quot;&gt;Patient name&lt;/font&gt;" style="rounded=0;whiteSpace=wrap;html=1;fontSize=16;align=center;fillColor=none;strokeColor=#a3a3a3;" parent="e8wDKpaH5UQi7zVIwjwI-4" vertex="1">
          <mxGeometry width="374" height="35" as="geometry" />
        </mxCell>
        <mxCell id="e8wDKpaH5UQi7zVIwjwI-6" value="&lt;font color=&quot;#0f0f0f&quot;&gt;P&lt;/font&gt;" style="rounded=0;whiteSpace=wrap;html=1;fontSize=16;strokeColor=#030303;fontColor=#8A8A8A;" parent="e8wDKpaH5UQi7zVIwjwI-4" vertex="1">
          <mxGeometry x="39" y="4" width="30" height="27" as="geometry" />
        </mxCell>
        <mxCell id="e8wDKpaH5UQi7zVIwjwI-10" value="" style="group;labelBackgroundColor=none;strokeWidth=2;fillColor=#f8cecc;strokeColor=#b85450;" parent="1" vertex="1" connectable="0">
          <mxGeometry x="587" y="-55.5" width="374" height="35" as="geometry" />
        </mxCell>
        <mxCell id="e8wDKpaH5UQi7zVIwjwI-11" value="" style="group" parent="e8wDKpaH5UQi7zVIwjwI-10" vertex="1" connectable="0">
          <mxGeometry width="374" height="35" as="geometry" />
        </mxCell>
        <mxCell id="e8wDKpaH5UQi7zVIwjwI-12" value="&lt;font color=&quot;#0f0f0f&quot;&gt;Patient name&lt;/font&gt;" style="rounded=0;whiteSpace=wrap;html=1;fontSize=16;align=center;fillColor=none;strokeColor=#a3a3a3;" parent="e8wDKpaH5UQi7zVIwjwI-11" vertex="1">
          <mxGeometry width="374" height="35" as="geometry" />
        </mxCell>
        <mxCell id="e8wDKpaH5UQi7zVIwjwI-13" value="&lt;font color=&quot;#0f0f0f&quot;&gt;P&lt;/font&gt;" style="rounded=0;whiteSpace=wrap;html=1;fontSize=16;strokeColor=#030303;fontColor=#8A8A8A;" parent="e8wDKpaH5UQi7zVIwjwI-11" vertex="1">
          <mxGeometry x="39" y="4" width="30" height="27" as="geometry" />
        </mxCell>
        <mxCell id="e8wDKpaH5UQi7zVIwjwI-14" value="" style="group;labelBackgroundColor=none;strokeWidth=2;fillColor=#f8cecc;strokeColor=#b85450;" parent="1" vertex="1" connectable="0">
          <mxGeometry x="587" y="-15" width="374" height="35" as="geometry" />
        </mxCell>
        <mxCell id="e8wDKpaH5UQi7zVIwjwI-15" value="" style="group" parent="e8wDKpaH5UQi7zVIwjwI-14" vertex="1" connectable="0">
          <mxGeometry width="374" height="35" as="geometry" />
        </mxCell>
        <mxCell id="e8wDKpaH5UQi7zVIwjwI-16" value="&lt;font color=&quot;#0f0f0f&quot;&gt;Patient name&lt;/font&gt;" style="rounded=0;whiteSpace=wrap;html=1;fontSize=16;align=center;fillColor=none;strokeColor=#a3a3a3;" parent="e8wDKpaH5UQi7zVIwjwI-15" vertex="1">
          <mxGeometry width="374" height="35" as="geometry" />
        </mxCell>
        <mxCell id="e8wDKpaH5UQi7zVIwjwI-17" value="&lt;font color=&quot;#0f0f0f&quot;&gt;P&lt;/font&gt;" style="rounded=0;whiteSpace=wrap;html=1;fontSize=16;strokeColor=#030303;fontColor=#8A8A8A;" parent="e8wDKpaH5UQi7zVIwjwI-15" vertex="1">
          <mxGeometry x="39" y="4" width="30" height="27" as="geometry" />
        </mxCell>
        <mxCell id="qdkJfRviQrZeMFLgg1Ej-1" value="Vertical Container" style="swimlane;whiteSpace=wrap;html=1;fontSize=16;" vertex="1" parent="1">
          <mxGeometry x="-302" y="-1284" width="2221" height="2113" as="geometry">
            <mxRectangle x="-474" y="-1300" width="171" height="31" as="alternateBounds" />
          </mxGeometry>
        </mxCell>
        <mxCell id="qdkJfRviQrZeMFLgg1Ej-4" value="Vertical Container" style="swimlane;whiteSpace=wrap;html=1;fontSize=16;" vertex="1" parent="1">
          <mxGeometry x="2005" y="-1458" width="1123" height="1710" as="geometry" />
        </mxCell>
        <mxCell id="qdkJfRviQrZeMFLgg1Ej-5" value="Vertical Container" style="swimlane;whiteSpace=wrap;html=1;fontSize=16;" vertex="1" parent="1">
          <mxGeometry x="2001" y="349" width="2290" height="840" as="geometry" />
        </mxCell>
        <mxCell id="qdkJfRviQrZeMFLgg1Ej-6" style="edgeStyle=none;curved=1;rounded=0;orthogonalLoop=1;jettySize=auto;html=1;fontSize=12;startSize=8;endSize=8;" edge="1" parent="1" source="qdkJfRviQrZeMFLgg1Ej-47" target="qdkJfRviQrZeMFLgg1Ej-56">
          <mxGeometry relative="1" as="geometry" />
        </mxCell>
        <mxCell id="qdkJfRviQrZeMFLgg1Ej-7" value="2" style="edgeLabel;html=1;align=center;verticalAlign=middle;resizable=0;points=[];fontSize=16;" vertex="1" connectable="0" parent="qdkJfRviQrZeMFLgg1Ej-6">
          <mxGeometry x="-0.032" y="2" relative="1" as="geometry">
            <mxPoint as="offset" />
          </mxGeometry>
        </mxCell>
        <mxCell id="qdkJfRviQrZeMFLgg1Ej-8" style="edgeStyle=none;curved=1;rounded=0;orthogonalLoop=1;jettySize=auto;html=1;fontSize=12;startSize=8;endSize=8;" edge="1" parent="1" source="qdkJfRviQrZeMFLgg1Ej-47" target="qdkJfRviQrZeMFLgg1Ej-50">
          <mxGeometry relative="1" as="geometry" />
        </mxCell>
        <mxCell id="qdkJfRviQrZeMFLgg1Ej-9" value="1" style="edgeLabel;html=1;align=center;verticalAlign=middle;resizable=0;points=[];fontSize=16;" vertex="1" connectable="0" parent="qdkJfRviQrZeMFLgg1Ej-8">
          <mxGeometry x="0.2481" y="3" relative="1" as="geometry">
            <mxPoint as="offset" />
          </mxGeometry>
        </mxCell>
        <mxCell id="qdkJfRviQrZeMFLgg1Ej-10" value="START HERE" style="rounded=1;whiteSpace=wrap;html=1;fontSize=50;fontStyle=1;fillColor=#e6d0de;strokeColor=#996185;gradientColor=#d5739d;" vertex="1" parent="1">
          <mxGeometry x="-3102" y="-1458" width="482" height="128" as="geometry" />
        </mxCell>
        <mxCell id="qdkJfRviQrZeMFLgg1Ej-11" value="12 points" style="rounded=0;whiteSpace=wrap;html=1;fontSize=16;fillColor=#b1ddf0;strokeColor=#10739e;" vertex="1" parent="1">
          <mxGeometry x="-2998" y="-649.9299999999998" width="147" height="31" as="geometry" />
        </mxCell>
        <mxCell id="qdkJfRviQrZeMFLgg1Ej-12" value="DOCUMENTING" style="rounded=0;whiteSpace=wrap;html=1;fontSize=16;fillColor=#1ba1e2;fontColor=#ffffff;strokeColor=#006EAF;fontStyle=0;glass=0;" vertex="1" parent="1">
          <mxGeometry x="-3616" y="-1368" width="143" height="48" as="geometry" />
        </mxCell>
        <mxCell id="qdkJfRviQrZeMFLgg1Ej-13" value="CODING" style="rounded=0;whiteSpace=wrap;html=1;fontSize=16;fillColor=#76608a;fontColor=#ffffff;strokeColor=#432D57;fontStyle=0;glass=0;" vertex="1" parent="1">
          <mxGeometry x="-3616" y="-1312" width="143" height="48" as="geometry" />
        </mxCell>
        <mxCell id="qdkJfRviQrZeMFLgg1Ej-14" value="RESEARCHING" style="rounded=0;whiteSpace=wrap;html=1;fontSize=16;fillColor=#e51400;fontColor=#ffffff;strokeColor=#B20000;fontStyle=0;glass=0;" vertex="1" parent="1">
          <mxGeometry x="-3616" y="-1253.98" width="143" height="48" as="geometry" />
        </mxCell>
        <mxCell id="qdkJfRviQrZeMFLgg1Ej-15" value="DESIGN &amp;amp; OTHER" style="rounded=0;whiteSpace=wrap;html=1;fontSize=16;fillColor=#60a917;fontColor=#ffffff;strokeColor=#2D7600;fontStyle=0;glass=0;" vertex="1" parent="1">
          <mxGeometry x="-3616" y="-1193.13" width="143" height="48" as="geometry" />
        </mxCell>
        <mxCell id="qdkJfRviQrZeMFLgg1Ej-16" value="&lt;h1&gt;Task color:&lt;/h1&gt;" style="text;html=1;strokeColor=none;fillColor=none;spacing=5;spacingTop=-20;whiteSpace=wrap;overflow=hidden;rounded=0;fontSize=16;" vertex="1" parent="1">
          <mxGeometry x="-3634" y="-1432" width="179" height="56" as="geometry" />
        </mxCell>
        <mxCell id="qdkJfRviQrZeMFLgg1Ej-17" style="edgeStyle=none;curved=1;rounded=0;orthogonalLoop=1;jettySize=auto;html=1;fontSize=12;startSize=8;endSize=8;" edge="1" parent="1">
          <mxGeometry relative="1" as="geometry">
            <mxPoint x="-2689" y="-723.6268796433878" as="sourcePoint" />
            <mxPoint x="-2581" y="-740.4768053491832" as="targetPoint" />
          </mxGeometry>
        </mxCell>
        <mxCell id="qdkJfRviQrZeMFLgg1Ej-18" style="edgeStyle=none;curved=1;rounded=0;orthogonalLoop=1;jettySize=auto;html=1;fontSize=12;startSize=8;endSize=8;" edge="1" parent="1" target="qdkJfRviQrZeMFLgg1Ej-19">
          <mxGeometry relative="1" as="geometry">
            <mxPoint x="-2689" y="-674.801448863637" as="sourcePoint" />
          </mxGeometry>
        </mxCell>
        <mxCell id="qdkJfRviQrZeMFLgg1Ej-19" value="document design (200 words)" style="rounded=0;whiteSpace=wrap;html=1;fontSize=16;fillColor=#1ba1e2;fontColor=#ffffff;strokeColor=#006EAF;fontStyle=0;glass=0;" vertex="1" parent="1">
          <mxGeometry x="-2547" y="-683.0000000000005" width="143" height="48" as="geometry" />
        </mxCell>
        <mxCell id="qdkJfRviQrZeMFLgg1Ej-20" value="&lt;h3 style=&quot;border-color: var(--border-color); margin: 6px 0px; font-family: &amp;quot;Lato Extended&amp;quot;, Lato, &amp;quot;Helvetica Neue&amp;quot;, Helvetica, Arial, sans-serif; line-height: 1.5; text-rendering: optimizelegibility; font-size: 1.5em;&quot;&gt;part 1&lt;span style=&quot;font-weight: normal;&quot;&gt;:&lt;/span&gt;&lt;/h3&gt;&lt;h3 style=&quot;border-color: var(--border-color); margin: 6px 0px; font-family: &amp;quot;Lato Extended&amp;quot;, Lato, &amp;quot;Helvetica Neue&amp;quot;, Helvetica, Arial, sans-serif; font-weight: normal; line-height: 1.5; text-rendering: optimizelegibility; font-size: 1.5em;&quot;&gt;&amp;nbsp;Low Fidelity Prototype&lt;/h3&gt;" style="rounded=1;whiteSpace=wrap;html=1;fontSize=16;align=center;fillColor=#ffcd28;strokeColor=#d79b00;gradientColor=#ffa500;" vertex="1" parent="1">
          <mxGeometry x="-3033" y="-749.23" width="364" height="99.3" as="geometry" />
        </mxCell>
        <mxCell id="qdkJfRviQrZeMFLgg1Ej-21" value="Draw IO design" style="rounded=0;whiteSpace=wrap;html=1;fontSize=16;fillColor=#60a917;fontColor=#ffffff;strokeColor=#2D7600;fontStyle=0;glass=0;" vertex="1" parent="1">
          <mxGeometry x="-2578" y="-768.1300000000003" width="134" height="38" as="geometry" />
        </mxCell>
        <mxCell id="qdkJfRviQrZeMFLgg1Ej-22" value="" style="shape=stencil(lVjLUhtBDPwaX1XSaJ5nQv6DKkxwhWDKkNffRxvXODsabxNuy263GUndknZ3evP6ePey3wV+fTsdv+5/Hu7fHnf6aRfC4flxfzq82dVOb3d683A87b+cjt+f789/v9wtyOXq2/HH8gu/zrzWKPPCCvz7fCdSSX9vfD7jnw7Pa3yiHAa8BEoZEAKVOhIKVd4mVDuRDISgJAEQErU8EmoP6jpBqI1H0khRtgmlUC5jkphSBAQlbiMh95+4SsiV4nikdMnbdYJSG4+UKixcahTTQMgR1iEl4rHSxYJGBKbqCCYWcCTLiStcZWIFBCUdg65KFaRVG7U4EgrUkmYvb5NjAdJQpTBWugkV8B/CdCRzSEWETGksXFPKDRBMfI5g8gYWlUY6Os5cLkDekrr6V4QKsiTiK90s0eBIdQqhUAJJsgB1xFfYlYSyC+BSlg28tAkPhMdUisdnYGemyB4vwGvc67OKNwBNmK/E51NBvOy9b/XCeHHxph7RVryTRDOor7UW9XgG8QoFpzdrFLC+RTy+IVP2LrI6jwIDhCvxNqCH4AfOYjDQSm1YTP6qoJMa3umtQAOH3vlXekNtMVzxSwT5tPxP+Ar9q6P+hU2yUHBtMhgK2EadeLxCgQbxCUrQ8Bx9AdCCcIlu3UAhXqaWXmB+dBIoKgD3EbTCByA4mc5jhoQG/hg+9na5mqoF5KdMDdokiBqE9P59ITB0gM1IN1Rtk0C7ik1hLp6AdpXFxGMNau1V3NokXFe0bSiDoMP0clAzbIs69S0jCCibpp6TCyHCzdo2Oh7rUAMMOlrrHZ1WWr+ztZU6q9kaixbl2PrjC0EogqCT+m0o23QFzSJV787M0M05+LQmPF+zrQPjkWKFBAuxjUdaEo0Ml/vjy0tXhoWzd4Eyzny1pgayZMpxS511BUXvgZVkjEEqrHSb1gpRSiDoZUtxjoNrrw0B92bKcNVftr7g8GhKGT42h2eQ0mXK+/OgKdsmd77z+80Lm+EaZfjkz4/WasO7FmlzBeXftnp1eDgVeJrLATr5CkH7JvCfJ1I499vUjGLX7Bb+Y99/3sXbxb+PTQ+Hp6fzt6r1c/9xym6dP2zp7R8=);lineShape=1;strokeColor=#FF0F0F;fontSize=16;" vertex="1" parent="1">
          <mxGeometry x="-2569.755567078182" y="-786.0005215154008" width="98.78468042093118" height="44.242306405012265" as="geometry" />
        </mxCell>
        <mxCell id="qdkJfRviQrZeMFLgg1Ej-23" value="" style="shape=stencil(lVfLctswDPwaXTEgwec5Tf8jM3FqT90447ivvy9UhbYJidvpTZaxIoBdgMAkD+/7p7fd5Pn9cj593f08PF/2k3yavD+87nfnw0WfJnmc5OHldN59OZ++vz4vv9+eZsv56dvpx/yFXwvOkbgZ5Pn38oLJh78vPi/mx8PrnXmkyJ15pOTH5o5JenvniAsACNXSAyJ5AYBCMXQAjSDEMcAH4twDEuU6BghT7FMk109sAzJJf0Jw5AEgBMqxBxQYQ/QU+qBjpAxoS8qq7wBJIA8pU+ldykwMspQjud6lnJpWNgHFUe6ZLh66VDKFXkslNWY2AdVTkg5QlUrAQ02UepeqyhGdUCn00qiRKghaAalPq57pMaAEC0ggSwqoqQdk8oA4x0osW8THN4ZHmCBKy/QwCJOm2vQ4TNMKkBBzlSRZQAUFoX9/qPkeANKkIRZvAQUFrY1pdUJAadWa9zatFZ8gYgGI6hlgTsgt0UOXjDQSloYGnSwg4BNMF1AAY2mwKYjYmBlKw68AWBoxr1zCJZerBaDWN0tNLA/wVtysUdTw5yNMEAUToWo2gGumhzVaLCBiQIgWUHBROzML3PIwUlNd9Q3YwP8bkKxPcwmhmvPkTNShjQfb15xWmNErtxltdJH6nrmiAgdFmoPtrkXHAwDQYcBMcVlgCcXVNZcSLNLorPr0EwGkVUcm1zcanYnQRSqp1ct1xgqw4fvVzatzXQbEeSHppXGbHLerejVj6WyKYtDh2PeNxmmNgjlRaTDTd4DtW+dQ02VgANwouqYUyojtqiHQGbYMS7tbBuZszVFLXTVUTxFkcsOcYWa4Z9ZRgM44a47aHFsZcBs1RjRlY462EW6T1s0cbTtMxTqDfHfk7L7JgNWt9RTQ9M9tVh9um/DL4XhcFun7/+3mrK+WrVse/wA=);lineShape=1;strokeColor=#FF0F0F;fontSize=16;" vertex="1" parent="1">
          <mxGeometry x="-2570.8390110472915" y="-780.975811980855" width="130.06321897771312" height="52.29715005248295" as="geometry" />
        </mxCell>
        <mxCell id="qdkJfRviQrZeMFLgg1Ej-24" value="&lt;font style=&quot;font-size: 9px;&quot;&gt;Read the brief for more details about the task&lt;/font&gt;" style="strokeWidth=1;shadow=0;dashed=0;align=center;html=1;shape=mxgraph.mockup.text.stickyNote2;fontColor=#666666;mainText=;fontSize=17;whiteSpace=wrap;fillColor=#ffffcc;strokeColor=#F62E00;" vertex="1" parent="1">
          <mxGeometry x="-2404" y="-686" width="114" height="78" as="geometry" />
        </mxCell>
        <mxCell id="qdkJfRviQrZeMFLgg1Ej-25" value="" style="group" vertex="1" connectable="0" parent="1">
          <mxGeometry x="-3031" y="-377" width="364" height="130.30000000000018" as="geometry" />
        </mxCell>
        <mxCell id="qdkJfRviQrZeMFLgg1Ej-26" value="&lt;h3 style=&quot;border-color: var(--border-color); margin: 6px 0px; font-family: &amp;quot;Lato Extended&amp;quot;, Lato, &amp;quot;Helvetica Neue&amp;quot;, Helvetica, Arial, sans-serif; line-height: 1.5; text-rendering: optimizelegibility; font-size: 1.5em;&quot;&gt;part 2&lt;span style=&quot;font-weight: normal;&quot;&gt;:&lt;/span&gt;&lt;/h3&gt;&lt;h3 style=&quot;border-color: var(--border-color); margin: 6px 0px; font-family: &amp;quot;Lato Extended&amp;quot;, Lato, &amp;quot;Helvetica Neue&amp;quot;, Helvetica, Arial, sans-serif; font-weight: normal; line-height: 1.5; text-rendering: optimizelegibility; font-size: 1.5em;&quot;&gt;&amp;nbsp;User Stories&lt;/h3&gt;" style="rounded=1;whiteSpace=wrap;html=1;fontSize=16;align=center;fillColor=#ffcd28;strokeColor=#d79b00;gradientColor=#ffa500;" vertex="1" parent="qdkJfRviQrZeMFLgg1Ej-25">
          <mxGeometry width="364" height="99.3" as="geometry" />
        </mxCell>
        <mxCell id="qdkJfRviQrZeMFLgg1Ej-27" value="12 points" style="rounded=0;whiteSpace=wrap;html=1;fontSize=16;fillColor=#b1ddf0;strokeColor=#10739e;" vertex="1" parent="qdkJfRviQrZeMFLgg1Ej-25">
          <mxGeometry x="39" y="99.30000000000018" width="147" height="31" as="geometry" />
        </mxCell>
        <mxCell id="qdkJfRviQrZeMFLgg1Ej-28" value="4 user stories (2/4 complete)" style="rounded=0;whiteSpace=wrap;html=1;fontSize=16;fillColor=#1ba1e2;fontColor=#ffffff;strokeColor=#006EAF;fontStyle=0;glass=0;" vertex="1" parent="1">
          <mxGeometry x="-3352" y="-387.00000000000045" width="230" height="57" as="geometry" />
        </mxCell>
        <mxCell id="qdkJfRviQrZeMFLgg1Ej-29" style="edgeStyle=none;curved=1;rounded=0;orthogonalLoop=1;jettySize=auto;html=1;fontSize=12;startSize=8;endSize=8;" edge="1" parent="1" source="qdkJfRviQrZeMFLgg1Ej-26" target="qdkJfRviQrZeMFLgg1Ej-28">
          <mxGeometry relative="1" as="geometry" />
        </mxCell>
        <mxCell id="qdkJfRviQrZeMFLgg1Ej-30" value="Read resource" style="rounded=0;whiteSpace=wrap;html=1;fontSize=16;fillColor=#008a00;strokeColor=#005700;fontStyle=0;glass=0;fontColor=#ffffff;" vertex="1" parent="1">
          <mxGeometry x="-3616" y="-1135" width="143" height="48" as="geometry" />
        </mxCell>
        <mxCell id="qdkJfRviQrZeMFLgg1Ej-31" value="&lt;h1&gt;Team members:&lt;/h1&gt;" style="text;html=1;strokeColor=none;fillColor=none;spacing=5;spacingTop=-20;whiteSpace=wrap;overflow=hidden;rounded=0;fontSize=16;" vertex="1" parent="1">
          <mxGeometry x="-3311" y="-1294" width="261" height="56" as="geometry" />
        </mxCell>
        <mxCell id="qdkJfRviQrZeMFLgg1Ej-32" value="Murtatha" style="image;sketch=0;aspect=fixed;html=1;points=[];align=center;fontSize=12;image=img/lib/mscae/Person.svg;" vertex="1" parent="1">
          <mxGeometry x="-3193.08" y="-1213" width="25.16" height="34" as="geometry" />
        </mxCell>
        <mxCell id="qdkJfRviQrZeMFLgg1Ej-33" value="Raza" style="image;sketch=0;aspect=fixed;html=1;points=[];align=center;fontSize=12;image=img/lib/mscae/Person.svg;" vertex="1" parent="1">
          <mxGeometry x="-3231.66" y="-1137" width="25.16" height="34" as="geometry" />
        </mxCell>
        <mxCell id="qdkJfRviQrZeMFLgg1Ej-34" value="Shehroz" style="image;sketch=0;aspect=fixed;html=1;points=[];align=center;fontSize=12;image=img/lib/mscae/Person.svg;" vertex="1" parent="1">
          <mxGeometry x="-3168.5" y="-1093" width="25.16" height="34" as="geometry" />
        </mxCell>
        <mxCell id="qdkJfRviQrZeMFLgg1Ej-35" value="Maryam" style="image;sketch=0;aspect=fixed;html=1;points=[];align=center;fontSize=12;image=img/lib/mscae/Person.svg;" vertex="1" parent="1">
          <mxGeometry x="-3118.5" y="-1156" width="25.16" height="34" as="geometry" />
        </mxCell>
        <mxCell id="qdkJfRviQrZeMFLgg1Ej-36" value="Ayan" style="image;sketch=0;aspect=fixed;html=1;points=[];align=center;fontSize=12;image=img/lib/mscae/Person.svg;" vertex="1" parent="1">
          <mxGeometry x="-3236.5" y="-1046" width="25.16" height="34" as="geometry" />
        </mxCell>
        <mxCell id="qdkJfRviQrZeMFLgg1Ej-37" value="Murtatha" style="image;sketch=0;aspect=fixed;html=1;points=[];align=center;fontSize=12;image=img/lib/mscae/Person.svg;" vertex="1" parent="1">
          <mxGeometry x="-2422" y="-764.1300000000001" width="25.16" height="34" as="geometry" />
        </mxCell>
        <mxCell id="qdkJfRviQrZeMFLgg1Ej-38" value="Murtatha" style="image;sketch=0;aspect=fixed;html=1;points=[];align=center;fontSize=12;image=img/lib/mscae/Person.svg;" vertex="1" parent="1">
          <mxGeometry x="-2429.16" y="-618.9300000000003" width="25.16" height="34" as="geometry" />
        </mxCell>
        <mxCell id="qdkJfRviQrZeMFLgg1Ej-39" value="Murtatha" style="image;sketch=0;aspect=fixed;html=1;points=[];align=center;fontSize=12;image=img/lib/mscae/Person.svg;" vertex="1" parent="1">
          <mxGeometry x="-3175" y="-448" width="25.16" height="34" as="geometry" />
        </mxCell>
        <mxCell id="qdkJfRviQrZeMFLgg1Ej-40" value="" style="group" vertex="1" connectable="0" parent="1">
          <mxGeometry x="-3033" y="-15" width="364" height="130.30000000000018" as="geometry" />
        </mxCell>
        <mxCell id="qdkJfRviQrZeMFLgg1Ej-41" value="&lt;h3 style=&quot;border-color: var(--border-color); margin: 6px 0px; line-height: 1.5; text-rendering: optimizelegibility;&quot;&gt;&lt;font face=&quot;Lato Extended, Lato, Helvetica Neue, Helvetica, Arial, sans-serif&quot;&gt;Part 3:&lt;/font&gt;&lt;/h3&gt;&lt;h3 style=&quot;border-color: var(--border-color); margin: 6px 0px; line-height: 1.5; text-rendering: optimizelegibility;&quot;&gt;&lt;font style=&quot;font-weight: normal;&quot; face=&quot;Lato Extended, Lato, Helvetica Neue, Helvetica, Arial, sans-serif&quot;&gt;Non-Functional Requirements&lt;/font&gt;&lt;br&gt;&lt;/h3&gt;" style="rounded=1;whiteSpace=wrap;html=1;fontSize=16;align=center;fillColor=#ffcd28;strokeColor=#d79b00;gradientColor=#ffa500;" vertex="1" parent="qdkJfRviQrZeMFLgg1Ej-40">
          <mxGeometry width="364" height="99.3" as="geometry" />
        </mxCell>
        <mxCell id="qdkJfRviQrZeMFLgg1Ej-42" value="5 points" style="rounded=0;whiteSpace=wrap;html=1;fontSize=16;fillColor=#b1ddf0;strokeColor=#10739e;" vertex="1" parent="qdkJfRviQrZeMFLgg1Ej-40">
          <mxGeometry x="39" y="99.30000000000018" width="147" height="31" as="geometry" />
        </mxCell>
        <mxCell id="qdkJfRviQrZeMFLgg1Ej-43" value="NON functional requirments&lt;br&gt;&lt;div&gt;Usability&lt;/div&gt;&lt;div&gt;Accessibility&lt;/div&gt;&lt;div&gt;Availability&lt;/div&gt;&lt;div&gt;Performance&lt;/div&gt;&lt;div&gt;Security&lt;/div&gt;&lt;div&gt;100 words each&lt;/div&gt;" style="rounded=0;whiteSpace=wrap;html=1;fontSize=16;fillColor=#1ba1e2;fontColor=#ffffff;strokeColor=#006EAF;fontStyle=0;glass=0;align=left;" vertex="1" parent="1">
          <mxGeometry x="-2524" y="3" width="258" height="145" as="geometry" />
        </mxCell>
        <mxCell id="qdkJfRviQrZeMFLgg1Ej-44" style="edgeStyle=none;curved=1;rounded=0;orthogonalLoop=1;jettySize=auto;html=1;fontSize=12;startSize=8;endSize=8;" edge="1" parent="1" source="qdkJfRviQrZeMFLgg1Ej-41" target="qdkJfRviQrZeMFLgg1Ej-43">
          <mxGeometry relative="1" as="geometry" />
        </mxCell>
        <mxCell id="qdkJfRviQrZeMFLgg1Ej-45" value="&lt;font style=&quot;font-size: 9px;&quot;&gt;Simple &lt;br&gt;unimportant task&lt;br&gt;can be ingored&lt;br&gt;&lt;/font&gt;" style="strokeWidth=1;shadow=0;dashed=0;align=center;html=1;shape=mxgraph.mockup.text.stickyNote2;fontColor=#666666;mainText=;fontSize=17;whiteSpace=wrap;fillColor=#ffffcc;strokeColor=#F62E00;" vertex="1" parent="1">
          <mxGeometry x="-2329.68" y="141" width="114" height="78" as="geometry" />
        </mxCell>
        <mxCell id="qdkJfRviQrZeMFLgg1Ej-46" value="" style="group" vertex="1" connectable="0" parent="1">
          <mxGeometry x="-3018" y="351" width="458" height="187" as="geometry" />
        </mxCell>
        <mxCell id="qdkJfRviQrZeMFLgg1Ej-47" value="&lt;h3 style=&quot;border-color: var(--border-color); margin: 6px 0px; line-height: 1.5; text-rendering: optimizelegibility;&quot;&gt;&lt;font face=&quot;Lato Extended, Lato, Helvetica Neue, Helvetica, Arial, sans-serif&quot;&gt;Part 4:&lt;/font&gt;&lt;/h3&gt;&lt;h3 style=&quot;border-color: var(--border-color); margin: 6px 0px; line-height: 1.5; text-rendering: optimizelegibility;&quot;&gt;&lt;font style=&quot;font-weight: normal;&quot; face=&quot;Lato Extended, Lato, Helvetica Neue, Helvetica, Arial, sans-serif&quot;&gt;Implementation&lt;/font&gt;&lt;br&gt;&lt;/h3&gt;" style="rounded=1;whiteSpace=wrap;html=1;fontSize=16;align=center;fillColor=#ffcd28;strokeColor=#d79b00;gradientColor=#ffa500;" vertex="1" parent="qdkJfRviQrZeMFLgg1Ej-46">
          <mxGeometry width="458" height="142.51036070606273" as="geometry" />
        </mxCell>
        <mxCell id="qdkJfRviQrZeMFLgg1Ej-48" value="42 points" style="rounded=0;whiteSpace=wrap;html=1;fontSize=16;fillColor=#e51400;strokeColor=#B20000;fontColor=#ffffff;" vertex="1" parent="qdkJfRviQrZeMFLgg1Ej-46">
          <mxGeometry x="49.07142857142857" y="142.510360706063" width="184.96153846153845" height="44.48963929393701" as="geometry" />
        </mxCell>
        <mxCell id="qdkJfRviQrZeMFLgg1Ej-49" value="" style="group" vertex="1" connectable="0" parent="1">
          <mxGeometry x="-3391" y="675" width="379" height="150" as="geometry" />
        </mxCell>
        <mxCell id="qdkJfRviQrZeMFLgg1Ej-50" value="&lt;h3 style=&quot;border-color: var(--border-color); margin: 6px 0px; line-height: 1.5; text-rendering: optimizelegibility;&quot;&gt;&lt;font face=&quot;Lato Extended, Lato, Helvetica Neue, Helvetica, Arial, sans-serif&quot;&gt;Part 4.1:&lt;/font&gt;&lt;/h3&gt;&lt;h3 style=&quot;border-color: var(--border-color); margin: 6px 0px; line-height: 1.5; text-rendering: optimizelegibility;&quot;&gt;&lt;font style=&quot;font-weight: normal;&quot; face=&quot;Lato Extended, Lato, Helvetica Neue, Helvetica, Arial, sans-serif&quot;&gt;Machine learning model&lt;/font&gt;&lt;br&gt;&lt;/h3&gt;" style="rounded=1;whiteSpace=wrap;html=1;fontSize=16;align=center;fillColor=#ffcd28;strokeColor=#d79b00;gradientColor=#ffa500;" vertex="1" parent="qdkJfRviQrZeMFLgg1Ej-49">
          <mxGeometry width="379" height="114.31312356101289" as="geometry" />
        </mxCell>
        <mxCell id="qdkJfRviQrZeMFLgg1Ej-51" value="12 points" style="rounded=0;whiteSpace=wrap;html=1;fontSize=16;fillColor=#b1ddf0;strokeColor=#10739e;" vertex="1" parent="qdkJfRviQrZeMFLgg1Ej-49">
          <mxGeometry x="40.60714285714286" y="114.3131235610131" width="153.05769230769232" height="35.68687643898691" as="geometry" />
        </mxCell>
        <mxCell id="qdkJfRviQrZeMFLgg1Ej-52" value="" style="group" vertex="1" connectable="0" parent="1">
          <mxGeometry x="-2547" y="699" width="378" height="144" as="geometry" />
        </mxCell>
        <mxCell id="qdkJfRviQrZeMFLgg1Ej-53" value="&lt;h3 style=&quot;border-color: var(--border-color); margin: 6px 0px; line-height: 1.5; text-rendering: optimizelegibility;&quot;&gt;&lt;font face=&quot;Lato Extended, Lato, Helvetica Neue, Helvetica, Arial, sans-serif&quot;&gt;Part 4.2:&lt;/font&gt;&lt;/h3&gt;&lt;h3 style=&quot;border-color: var(--border-color); margin: 6px 0px; line-height: 1.5; text-rendering: optimizelegibility;&quot;&gt;&lt;font style=&quot;font-weight: normal;&quot; face=&quot;Lato Extended, Lato, Helvetica Neue, Helvetica, Arial, sans-serif&quot;&gt;User stories implemented&lt;/font&gt;&lt;br&gt;&lt;/h3&gt;" style="rounded=1;whiteSpace=wrap;html=1;fontSize=16;align=center;fillColor=#ffcd28;strokeColor=#d79b00;gradientColor=#ffa500;" vertex="1" parent="qdkJfRviQrZeMFLgg1Ej-52">
          <mxGeometry width="378.00000000000006" height="109.74059861857236" as="geometry" />
        </mxCell>
        <mxCell id="qdkJfRviQrZeMFLgg1Ej-54" value="12 points" style="rounded=0;whiteSpace=wrap;html=1;fontSize=16;fillColor=#b1ddf0;strokeColor=#10739e;" vertex="1" parent="qdkJfRviQrZeMFLgg1Ej-52">
          <mxGeometry x="40.5" y="109.74059861857258" width="152.65384615384616" height="34.25940138142742" as="geometry" />
        </mxCell>
        <mxCell id="qdkJfRviQrZeMFLgg1Ej-55" value="" style="group" vertex="1" connectable="0" parent="1">
          <mxGeometry x="-2887" y="1128" width="272" height="121" as="geometry" />
        </mxCell>
        <mxCell id="qdkJfRviQrZeMFLgg1Ej-56" value="&lt;h3 style=&quot;border-color: var(--border-color); margin: 6px 0px; line-height: 1.5; text-rendering: optimizelegibility;&quot;&gt;&lt;font face=&quot;Lato Extended, Lato, Helvetica Neue, Helvetica, Arial, sans-serif&quot;&gt;Part 4.3 evidece of github:&lt;/font&gt;&lt;/h3&gt;&lt;h3 style=&quot;border-color: var(--border-color); margin: 6px 0px; line-height: 1.5; text-rendering: optimizelegibility;&quot;&gt;&lt;font style=&quot;font-weight: normal;&quot; face=&quot;Lato Extended, Lato, Helvetica Neue, Helvetica, Arial, sans-serif&quot;&gt;User stories implemented&lt;/font&gt;&lt;br&gt;&lt;/h3&gt;" style="rounded=1;whiteSpace=wrap;html=1;fontSize=16;align=center;fillColor=#ffcd28;strokeColor=#d79b00;gradientColor=#ffa500;" vertex="1" parent="qdkJfRviQrZeMFLgg1Ej-55">
          <mxGeometry width="272" height="92.21258633921707" as="geometry" />
        </mxCell>
        <mxCell id="qdkJfRviQrZeMFLgg1Ej-57" value="6 points" style="rounded=0;whiteSpace=wrap;html=1;fontSize=16;fillColor=#b1ddf0;strokeColor=#10739e;" vertex="1" parent="qdkJfRviQrZeMFLgg1Ej-55">
          <mxGeometry x="29.142857142857142" y="92.21258633921724" width="109.84615384615384" height="28.787413660782768" as="geometry" />
        </mxCell>
        <mxCell id="qdkJfRviQrZeMFLgg1Ej-58" style="edgeStyle=none;curved=1;rounded=0;orthogonalLoop=1;jettySize=auto;html=1;fontSize=12;startSize=8;endSize=8;" edge="1" parent="1" source="qdkJfRviQrZeMFLgg1Ej-47" target="qdkJfRviQrZeMFLgg1Ej-53">
          <mxGeometry relative="1" as="geometry" />
        </mxCell>
        <mxCell id="qdkJfRviQrZeMFLgg1Ej-59" value="1" style="edgeLabel;html=1;align=center;verticalAlign=middle;resizable=0;points=[];fontSize=16;" vertex="1" connectable="0" parent="qdkJfRviQrZeMFLgg1Ej-58">
          <mxGeometry x="-0.0191" y="-4" relative="1" as="geometry">
            <mxPoint as="offset" />
          </mxGeometry>
        </mxCell>
        <mxCell id="qdkJfRviQrZeMFLgg1Ej-60" value="Use screenshots/logs supported by brief descriptive text (&lt;b style=&quot;font-size: 11px;&quot;&gt;max &lt;/b&gt;200 words) to provide evidence of the tools your team has used" style="rounded=0;whiteSpace=wrap;html=1;fontSize=11;fontStyle=0;glass=0;fillColor=#1ba1e2;fontColor=#ffffff;strokeColor=#006EAF;" vertex="1" parent="1">
          <mxGeometry x="-3113" y="1228" width="236" height="60" as="geometry" />
        </mxCell>
        <mxCell id="qdkJfRviQrZeMFLgg1Ej-61" style="edgeStyle=none;curved=1;rounded=0;orthogonalLoop=1;jettySize=auto;html=1;fontSize=12;startSize=8;endSize=8;" edge="1" parent="1" source="qdkJfRviQrZeMFLgg1Ej-56" target="qdkJfRviQrZeMFLgg1Ej-60">
          <mxGeometry relative="1" as="geometry" />
        </mxCell>
        <mxCell id="qdkJfRviQrZeMFLgg1Ej-62" value="" style="edgeStyle=none;curved=1;rounded=0;orthogonalLoop=1;jettySize=auto;html=1;fontSize=12;startSize=8;endSize=8;" edge="1" parent="1" source="qdkJfRviQrZeMFLgg1Ej-67" target="qdkJfRviQrZeMFLgg1Ej-68">
          <mxGeometry relative="1" as="geometry" />
        </mxCell>
        <mxCell id="qdkJfRviQrZeMFLgg1Ej-63" value="" style="edgeStyle=none;curved=1;rounded=0;orthogonalLoop=1;jettySize=auto;html=1;fontSize=12;startSize=8;endSize=8;" edge="1" parent="1" source="qdkJfRviQrZeMFLgg1Ej-67" target="qdkJfRviQrZeMFLgg1Ej-69">
          <mxGeometry relative="1" as="geometry" />
        </mxCell>
        <mxCell id="qdkJfRviQrZeMFLgg1Ej-64" value="" style="edgeStyle=none;curved=1;rounded=0;orthogonalLoop=1;jettySize=auto;html=1;fontSize=12;startSize=8;endSize=8;" edge="1" parent="1" source="qdkJfRviQrZeMFLgg1Ej-67" target="qdkJfRviQrZeMFLgg1Ej-69">
          <mxGeometry relative="1" as="geometry" />
        </mxCell>
        <mxCell id="qdkJfRviQrZeMFLgg1Ej-65" value="" style="edgeStyle=none;curved=1;rounded=0;orthogonalLoop=1;jettySize=auto;html=1;fontSize=12;startSize=8;endSize=8;" edge="1" parent="1" source="qdkJfRviQrZeMFLgg1Ej-67" target="qdkJfRviQrZeMFLgg1Ej-73">
          <mxGeometry relative="1" as="geometry" />
        </mxCell>
        <mxCell id="qdkJfRviQrZeMFLgg1Ej-66" style="edgeStyle=none;curved=1;rounded=0;orthogonalLoop=1;jettySize=auto;html=1;fontSize=12;startSize=8;endSize=8;" edge="1" parent="1" source="qdkJfRviQrZeMFLgg1Ej-67" target="qdkJfRviQrZeMFLgg1Ej-71">
          <mxGeometry relative="1" as="geometry" />
        </mxCell>
        <mxCell id="qdkJfRviQrZeMFLgg1Ej-67" value="create flask &amp;amp; sqlite web app" style="rounded=0;whiteSpace=wrap;html=1;fontSize=16;fontStyle=0;glass=0;fillColor=#f5f5f5;fontColor=#333333;strokeColor=#666666;" vertex="1" parent="1">
          <mxGeometry x="-2023" y="737.6999999999998" width="173" height="52" as="geometry" />
        </mxCell>
        <mxCell id="qdkJfRviQrZeMFLgg1Ej-68" value="design database schema" style="whiteSpace=wrap;html=1;fontSize=16;rounded=0;fontStyle=0;glass=0;fillColor=#60a917;fontColor=#ffffff;strokeColor=#2D7600;" vertex="1" parent="1">
          <mxGeometry x="-2004" y="438" width="197" height="60" as="geometry" />
        </mxCell>
        <mxCell id="qdkJfRviQrZeMFLgg1Ej-69" value="setup flask and the project files" style="rounded=0;whiteSpace=wrap;html=1;fontSize=16;fontStyle=0;glass=0;fillColor=#76608a;fontColor=#ffffff;strokeColor=#432D57;" vertex="1" parent="1">
          <mxGeometry x="-1783.92" y="527" width="169" height="53" as="geometry" />
        </mxCell>
        <mxCell id="qdkJfRviQrZeMFLgg1Ej-70" value="" style="edgeStyle=none;curved=1;rounded=0;orthogonalLoop=1;jettySize=auto;html=1;fontSize=12;startSize=8;endSize=8;" edge="1" parent="1" source="qdkJfRviQrZeMFLgg1Ej-71" target="qdkJfRviQrZeMFLgg1Ej-79">
          <mxGeometry relative="1" as="geometry" />
        </mxCell>
        <mxCell id="qdkJfRviQrZeMFLgg1Ej-71" value="write 3 pages in html css" style="rounded=0;whiteSpace=wrap;html=1;fontSize=16;fontStyle=0;glass=0;fillColor=#76608a;fontColor=#ffffff;strokeColor=#432D57;" vertex="1" parent="1">
          <mxGeometry x="-1637" y="646" width="247" height="65" as="geometry" />
        </mxCell>
        <mxCell id="qdkJfRviQrZeMFLgg1Ej-72" value="" style="edgeStyle=none;curved=1;rounded=0;orthogonalLoop=1;jettySize=auto;html=1;fontSize=12;startSize=8;endSize=8;" edge="1" parent="1" source="qdkJfRviQrZeMFLgg1Ej-73" target="qdkJfRviQrZeMFLgg1Ej-74">
          <mxGeometry relative="1" as="geometry">
            <mxPoint x="-1390" y="849.1999999999998" as="targetPoint" />
          </mxGeometry>
        </mxCell>
        <mxCell id="qdkJfRviQrZeMFLgg1Ej-73" value="write all the api needed for the web app" style="rounded=0;whiteSpace=wrap;html=1;fontSize=16;fontStyle=0;glass=0;fillColor=#76608a;fontColor=#ffffff;strokeColor=#432D57;" vertex="1" parent="1">
          <mxGeometry x="-1644" y="846" width="188" height="61" as="geometry" />
        </mxCell>
        <mxCell id="qdkJfRviQrZeMFLgg1Ej-74" value="" style="shape=image;verticalLabelPosition=bottom;labelBackgroundColor=default;verticalAlign=top;aspect=fixed;imageAspect=0;image=data:image/png,iVBORw0KGgoAAAANSUhEUgAAAhgAAAEmCAYAAAAgHOlQAAAAAXNSR0IArs4c6QAAAARnQU1BAACxjwv8YQUAAAAJcEhZcwAADsMAAA7DAcdvqGQAAJLkSURBVHhe7b0PVFTX1ff/LY44MiOMMsrIKE4ERcEgKEqSomJqUtJio41paDWtRlJNtY1dSd70WaZrPWs1rjdZTVZMXn1jWhJNoq1WfE1/kmbySOI/kkgABQUFggT/YEAHHXHQUSfkd879w9wZZmBmGEYk+7O8zp3DPXPvPXffc/bZZ599fhAXF/cd+ikjRoyATqeTvhEDDavVSs93gMOfsd1ul74RBPF9Ikz6JAiCIAiCCBo+WzAyMzNRXFwsfSMIgiAIgvAOWTAIgiAIggg6pGAQBEEQBBF0SMEgCIIgCCLokIJBEARBEETQGRQVFfXf0n63xMXF4cyZM9K3RCx6fiV+bmrDweMtYlLaYrzw5M+QElGHL+vbxTQXAsnDcj3yPJ5aZELbweNoFlKmYsmf8/CzVA3qSuphE9JcCVUeXdYKPPv4PYioL0X9VZ4Sg+w/rEHug3GK33ElVHkQNQcr/9cS3KMoW0P2Kqz55YOIu3oIxzxlClWekMkPyRxnwMlcP5cfgiBEArRgqKEOB+xtV6TvrFKIEeMZtF9xprkSSB5gqFoFXLsCq/QdsaMh5LJddqa5Eao8ap4H7bh8SfzO7gj6KPah/B03QpUHmqEQcinK1hDN78gOq7fiDlWekMkPyRxnwMlcP5cfgiBEAlMwpIrQfuu6+J2hHqwWPm95C6oTSB7WazJEs49bDlbdSLCKT8h1w+5McyFUeeSK8BY/REStxmD+qfwdN0KVBzHRQnk7y1aNIUP4px0Ob5lClSdU8kMyJzDgZK5fyw9BEDKBKRhSRajU4nWRPMUKi2RJ7EIgecB6N7xWU/booqKE37G2erSdMkKVR6oIlT26EcOh4Z+t33g2IYcsD8ul5jek7AVGYbiWf1rRfF5I6EKo8oRMfkjmGANP5vq3/BAEIeNHoK1saKdNRzo3k/pCQyFe3NaM7D/k+ZmnUhiDzZvB+w6+0IjCv2xDc4jyVPAx2ByTlNYTVpS9vRHmmBDlOc/H8HPgc67SfGwwG0KUBwHIQiDyQzI3MGWuf8sPQRBdoVkkBEEQBEEEnYBChYu9PUg9GJ7Cva0XYRJqsfPlAvZ/VwLJg9hsrF4+HRB6MKJNknveP5oE1Ox6GQUnhCRXQpVH8PhnvTBFD4Z73q+epYfl0EZs2t9pXFYQqjxA6uK1yBkv9YB5AvfW/0Mm9BeKseGtA6z/2ZVQ5QmV/JDMcQaezPVr+SEIopOALBjRUdzE64BdnqWl1mFYOPu0WdEqpnQhkDzQ6wQnK4f9hvgdauiiuM+5DVcsYkoXQpVn1Egpj9PZSzdMGDyG9ZLnCjhkeaDHSJ7p5g10uqdFD4M4tG3xWGmHLk/o5IdkjjHgZK6fyw9BEJ0EoGDoxEqBVYSdjlnRwyEMWVovwnPdGEgelmuEOBBquyJXNdEYPox/WnHxgpDQhVDl4Q0Erwht7c5qUK8THcBY3eiZUOVh1x/FM11njZWYALB7FHJ5bb1ClSdU8kMyJzDgZK5/yw9BEE58HiJ5aNkzmD6Gv/q+IJo8A3Jok0zHPucqXIetLSHKc1QyHUtpPRFaJ8oWydwsJfbElXLkv2GGIUR5EIAshMyJkmSu38tcv5Yf6RtBEK6QkydBEARBEEHHfyfPsOlYsjYbJoUTlugMpUPjR6zHVSYe70IgeRjpj69FtsmC4jfewn5uppR7mo1mvPh+uXiQG6HKY3xoDZalD1E45Ek9zbZybH7djCbhKFdClQfGbKx5YjrUJwrw0i7RFU3sabaj7J31MHs8UYjyhEp+SOYEBpzM9XP5IQjCif8WDIPoAMYdnfhLx4nS8IFUwHFT+OhKIHkQA/1w/qkYA9VphbFh3HQ6n7kSqjzAyBE87JCN35JIlDhuDYcDstueO6HKg1HRwjHOMXQdvyXGLXx7S0joSqjyhEp+SOYEBpzM9Wv5IQhCif8Khp5VAuxDGZ9/WAT3fmcvojfPp0DyQA8dd3pTRhOMGCKsW+DdASx0eUQHMMVaDdqhgnOadwewUOVhuYQwz8oIhBqoxUxeHQhDlSdk8kMyxxh4Mte/5YcgCCX+Kxjhg4QPe2d8frk3ZoXFWwzhQPKEqaHiV6dY+8DAXnqO1Vuc3lDlwRAM4nUN62l1rtUg98Yueat9QpWH5RrMwy+zXJ3TDPXQR7KPtlZcFBO6EKo8IZMfkjnGwJO5fi0/BEG4EFCgLYIgCIIgiO7g/SiCIAiCIIigQgoGQRAEQRBBhxQMgiAIgiCCDikYBEEQBEEEHVIwCIIgCIIIOqRgEARBEAQRdEjBIAiCIAgi6FAcjNtFeAxS75+He+4eA71aiGwkIq0eOSBj+cjrbQyYVShjkP2HPKRHySufSsl9QWfZuSKvakoQBNHfIAvG7SDMiOwn85Azw+SqXNyJqE3IeiwPa/4rF6lSEkEQBEEEaMFIxKLnF2HSuUK8uK1STEpbjBdyTH3So0r+xfNYmCg2xLaj27C+sFHYd8XZm3THcc2Cc9WHUfRpJZrdFioSV2+Uvngh2Peky1qB1bP0gL0FZR8WoOiEFQ7pb3cc/lglyIIRNGS5JQsGQRD9lQAtGGqow1n7qFgIyBAjGm+dCxcFibCpSJvAlIsrVvCFobSJU2AS/+Izqgg9TDNykPd0HrKMUuJtxGRkygWjqXgrzHeyckEQBEEQXghMwYgdLa402LkQEFM5BgvLICoWLgoSU5lCwa7SWleEKr7CYkQipvRgceC9yRf/Im1/XY/N5lOwdrA/qGOQ+Ug2DOJhAhXbFMe+XS4oMewXWA/bmR7cHqJOWpK6D8qKIAiCIPoJgQ2RjM/Bs4unorXoVWz+QmwkRZOtFWVvb4T5vJAUFJS/e3iiOLRgr9iGV/a4D5P0YK5m17yGXbMWdqZUvIrCBildSUhM+P6a1VUwzMhBzn2JMERK/ho329FcV4aP9hajySYmOZF/X7qH8BikL1yAeQl6YQVPh60JFR/uhLmuXTrefwzZq5A3w93d0BNu8iCXb1s5Nr9ehG9nLMKC++OhD2d/63DAUl+Egp3lsHBl0B1+Hz+dj8yJMdBKx9svn8bhPXtQfDbwexGQr+tSCTZtLPK6JDmQjNy1C5AQ1gjzum0o65DLuh1l76xHkWM6Fj0yDwnR4nNytJ5CUcF2lHlaejxMh8Q5P8XcdKeTr8NuwbnjxTD/T7XnMlDgzxCJLnEOcn6UjjHDpVVcmfw0Ve/Fnv/0fB6fCdchYWYmZqUkIkY+j/CMzqHskw+xv7ZzYXoRaUjVVrYF6z++geSf5OCBZKP0bJl8V+5FAbs+oWMgIz+nRjNefL8Gxsz5mH/vOLH82LmsjZ+hcGcxGt2GQQmCuD0MioqK+m9pv1vi4pKQtOAx5D44G7NTDKzZAyLH34fZc9h3tk0UljJWI3aa+H322DYcPN7Lnn/YVMybPxG69lp8urcOzVe1SJoRh8jI73DmizrJ2iCjRULGNMSqubXjEI65T8O4PBQJc9hvsSu3n/Hwd86wBMycFsvuwoq6g8eDNpODN8hrfvmgVFbiNXJ0E6WyUmxxVxXXFmZE1hN5WJAWC+0QhbFpUDi0o0xIS0tE2OkjaLwqpQs4y6GtuQP3/OYXSI+JQNgPxL+GhUciNmkShpwqRYNLPt/RJszENKN0E91ix/mjpaiXzyOXr/0yvjU9hJyMUYgQV8Vmqm4YIqITkBp3DUePfYNbUrKAdipyf5eLmUatvIq2cLwqYgRMqamszI6xMnPJ4R/tUZg4OwG671pR00WuFKjHY0bmeEReY4rN5/w4uayv4bIjHj/JmYlRGudzCmPXl5ASh2uVx3Fe2ehpk7Fo5a8xZ4IOEUJLLBKmioDOOAnpqTForT6Bi900lIYU8Z2znz+CL+u9K1jGeSuwInsSdBGqThng8hM5mp1niganyutx1acuRvek5j6Dn08zIFJ5HuEZ6RCXPBMTO07iyJlr0h8Yo1Mwe6IO4Te/RQRTFH40PlLxbJl8s+tLMVzCkeqLziFEWX5+cAMRCQ/ip9OY/Mjlx86lHm5CStIQ1JU2oIveTRBEyPFDwUhA+OjYzsaxRy7X9V7BSJ2HnyXqYD/xCf5Tx6r963boU1mFPkyHjnNfoO6ydJxADwoGDEgRFAzAcvIQqjxdWh8pGL43yK7Xbsz+NR5O1IrOoP/ehn/s/hifHvgC5V/bMHJ8AkZotIgzhuFE+Wk4q265HJiyl8QazUF2NJd9gC1bd+N/PjuLiKQUxEaoYVBfQPHJVimPf9jqS3Hw4CFxq9cgRSgzbjHZiH/J6cKmUC44cvmqRyGW9fLt58ux+733sfvjz3Ds+hikJLAGR6fDt5XlaLwh5YEGGUt+jRnRvDGVjz+Ag1+eREv4WMQbddAnjMWNoxVoCrTn+t0QxM1IgSHCjjPdPfdRdyOTX//lehxkZW5XlPUo4wiobvDn9C7e27UXxVXXMCaFlf8QHXSO4yhrlIfDNEh/bAnuiWENY9spmP/5Hgr2fIL9xaU4cXEIxoxnyqRGj7uiLuDzbp6PTwrG+Bws/8l4hHe0o/7jf+CdHR+6yo8uFhMiz+Iwf7d6iYHJleZMCf6z5wOYzZ+w8xzC50ca4GAKkylKBa1xGFo+O4HOO5IUDLBriB3KZKrOjG3v7MCHn7L3uuMuJN0VCXX0WEScPow62a1LKT/DlfJzAMdamJI42QB1xBjE3CxFxTnybCKI242iW9wTNpjfEH0S8kt5hcTN37KfQgFqeOV+sxY7Zd8FeXZJwKiRkcLdOe2oqZaHQ1pQIVSGakxK9tPVc8oEjOGfHU34uk5ICRnN5o1SOfEtH2VSheniKyJtnUMm6gw8OI2rQ+2o2JUP8wkL7IK52IH2s+XY/nYRmvj3UWm4ZxxP94Qd9f/ZhHxzLazC82mE+XOxLFWGsRBdTW8P9gYz8jebUXuJNwQOWEuLUCWUi541svxTYtxc3Msdc22VKOg8nmG3oNacjw+qWMMdZkRaui9DNt6wwiZ0eXUYOUpIYL85FUvWrsULK+YISqmAnikL7MNhae5q5bCzsv0bf06i067jUjmKjotH6Y2KB8TuJ9PETfpN2Pv2dpSdbRd76B12WE6wMtlVKfS+1ZPuRYavyrxH2Psziw8JAk2f/h3bS5vc5OeAoEhpk9KRyJN7ScWOjdhcWIz6lnbpPOxMtiYUv7+fqZ6M8BjEyWXrhrV0C9bvKEeToIM50Fy8BR/V8lLRwDQ5hid2wd5QiDffdsqDtbYQ2z8XB7eM8cG4I4IgeosfCoaT6CihmoVd7jipdRjGx05tVmcPpbeopyKJawQ3T+Mrhb9E87FTQuWunujjbBK1HgmZuVjzcKIwrGM7th8ld4Jv5cS7YORPp/UoDnvyF7GV4PgZvqPBmLs8N67NBzZh+1G33m1Lq9g4DlIJ5XF7aMT+f5a7jq8z5bHZg/DoJ4wTGklbzVE0uhwvUt8o2htcGnG/seKiUChqDJEccDGJKaS8/EdNQqo89Vmy4duudL3Qxn3bOhVHmeaWLmpI5/04vipFiSc7fsNR1LSxz7AYjO3Bmbl74nGXoFE34niJBwuH7Suc49fLGv67YsWkPqFDUggZTOS6cqUcBeYm6YuTU2dFE6MuWumSLdOIItaBcb8ry2mmRPGd6NEujtwEQdweAlAwWC9PaM9ssMoVavRwCHWw9WI3DnL+oU6dLDSwjq9PolZKEzhfg0ZeMXczm8SUw3qef5a251Ygd248tOy37HVmbPnQUwyN/oduhNSqXbF6LdNzYqsIlXqI8OmOvd1Dw3LejA3cWnKbo4U6PCgLnoiJFpUnbfpS5zNVbjn+Tlr2TCsrZ65g6KRiN8WPg0qYGq3HXUmiKcGgF6/F2urhiXwrffZAdJSowdjavD3VJjQLf1LBy2P1jVGjoRfebhOyuSWmS9mJjsZBI0wHU+YC5D39DP7kcr4cv6eVc+x2yadGK1qNfMLOOj38c6hWrI8Igrit+KxgDJuQIVUYq5ApmDpNyJErkSemC70yPuYrHrO4l1Ed1ZiaKAasOPdVtfDppBFV9bwa8XGYhPWgbC3V2P/eRryyw73X3H9RqW6ffaE/MThExSBbG3Qx3CRvwpSJaljrilHPlGjj5KlM2oAoDZdypvD1wrUoZM81lPLDI9M+tQpL5ibDECnNIAkW11hHRtr1GbuNnDwJoh8QzKogeMjDIwwXa4S0LUkVe5TehklcfBvWvYz1f/sAxaf9rqZuK5ZW6Xq76cGNEU1JwQ9u1o9olsqBT8dU+qp02Xrr83OhVfR9GDwUiJ0EU4QdjXWVos/P6MmYykRuWARvtJmC0QvTj2gpYY9V4+2pGmEQnGPsTgthIJz/RmqYXWO6dN16P61cPfMBpI9gO9yZ1LwFr72s/P1CdgX+IwfuczAFw2diosV3xX69y/AJQRChx2cF4+pXJWKFsc4sVhgXikVTO9tEp09WlX0kVyq9iyEhD4/0iA9Bt+5YGs6JQyOjpuAeT9FHo+cgPY7vWPB13W10KnHIY+yDMaRXTomeaT7TIjhB6sZP6lun1G/E4T11ZBR0E8dBd60WVQ3s/CdPw8Z66EmpJuj5VOy2VnzTCyuYfD+qhHSky/4eSpLuxZRI9nnzNL7u1WjeaZwT4m+MQcIUIaHPiB8nCeiZQ4IzabtyNk+4ikmGn4SZkD5ZVDDONbgMkHaDBhlpYnfDerrGf6sHQRBBx38LhmGk2EuwiaG7OaLpmLU1gU4TdEGNqUlihdVU9KqksHTddgte5mpMSRugHuNXSnBUcOLUIf1XechO0kMtPC0VdPFzsGRppjDGbq8rxuGgedYGwIWz0vouRsx6LBNGbZBN8zVlqOKd2OhMLF2eg9SxGqkcGGoNjElzsPC3S5HVW0fFjlZY+Vzf6DQsTNPD0fiVqEifrkI9O79x2o9hGsa+X73cO0fmE9L9hJuQvTwX6ex+hBILU8OYugArFyYKwzHW8kOo7tVwnhWlx7jzpAqTHl6D3Mx4GDqfjQqamHikZy/G6keSpbTAsbZJ9gLD3ciMkc4hOVevfi6bSUY3DNbBECOVAUMdnYjsZY8glVcpV8pR5DEQnRYjFXKg0hqR/tiTeICf6GYjivf3cno8QRBBwf9Inim5eOHheJdomumPr0W2KUhRPNUZWPbcPFYpNWHvX7d4n/EhRQIUpsa+XIDaABeeCv1iZ35cJw8wtSIHCRHSd3daS7B5kzRdtZPAyqE3GOatQt69nkz+XiJ5Cmb7rlYu+Vl0uW4jy7eU5fOqDgdD9nTIWiH7FzlQs/tlFFQJf4Bp/jOdw3KOEwV4aZfcq+6hrGUZbVAsCsgxzsPKpRmSE2ZX7HWFeHOH6ywJ36KnuperhpXpSlam3ZiW3K8tEGLnYfWyDM/Pp4N1RK7x8Phuz0guG2/Y2fv/Lnv/lVFQO+XHC+xcFTu3oLAXUWoJgggeXqtsr0hT9ZzrkMSIpmNWyfdmbFpGnTZZ7PE0nURld5b/yipx2mJ4PO5OEpMGHLZKbP8/+TBXtcCmsA45bC2o3rcNG7ooF7eH5qK3kG+uRnObc0piUGkyY8OGbdjvVg64aYelqRL7/7ENRb1VbJn8SpNyWEN1DvUnpH1GY3WtODuB4WmKqt80FWHThgIUN1j4xIdOHK2NKNuTj/VuykXgtKNi2+vI31OOxla7c+YOD+Hd1oL60kJs3tXbeDWM8+x+th5g51DcDA9nX2XG5lc3othTqHQZN/nl4dIb2XXlv+6mXLijzCec6wC2bthIygVB9CMCXK6dIAiiF8gWjCvlyPd1ynQPFjCCIPoX/lswCIIgCIIgeoAUDIIgCIIggg4pGARBEARBBB1SMAiCIAiCCDrk5EkQBEEQRNAhCwZBEARBEEGHFAyCIAiCIIIOKRgEQRAEQQQdUjAIgiAIggg6g6Kiov5b2u+WuLg4nDkjrL7FSMSi51fi56Y2HDwurdHBI/M9+TOkRNThy3pP4XoDycNyPfI8nlpkQtvB41K0v6lY8uc8/CxVg7qSemGJbXdClUeXtQLPPn4PIupLUX+Vp/C1KdYg98E4xe+4Eqo8iJqDlf9rCe5RlC1fz2LNLx9E3NVDOOYpU6jyhEx+SOY4A07m+rn8EAQhEqAFQw11OGBvuyJ9Z5VCjLgEUfsVZ5orgeQBhqpVwLUr6Fx+OXa0uNiR7bIzzY1Q5VHzPGjH5Uvid3ZH0EexD+XvuBGqPNAMFVaoVJatIZrfkR1Wb8Udqjwhkx+SOc6Ak7l+Lj8EQYgEpmBIFaG9c8Ez9ioOFldsvGX3skJZIHlYr8kQzT5uOVh1I8EqPiHXDbszzYVQ5ZErwlv8EBG1GoP5p/J33AhVHsREC+XtLFs1hgzhn3Y4vGUKVZ5QyQ/JnMCAk7l+LT8EQcgEpmBIFaFSi9dF8hQrLJIlsQuB5AHr3fBaTdmji4oSfsfa6tF2yghVHqkiVPboRgyHhn+2fuPZhByyPCyXmt+QshcYheFa/mlFs5eVR0OVJ2TyQzLHGHgy17/lhyAIGT8CbWVDO2060rmZ1BcaCvHitmZk/yHPzzyVwhhs3gzed/AFcWXF5hDlqeBjsHwVSJ+wouztjTDHhCjPeT6GnwOfc5XmY4PZEKI8CEAWApEfkrmBKXP9W34IgugKzSIhCIIgCCLoBBQqXOztQerB8BTubb0Ik1CLnS8XsP+7EkgexGZj9fLpgNCDEW2S3PP+0SSgZtfLKDghJLkSqjyCxz/rhSl6MNzzfvUsPSyHNmLT/k7jsoJQ5QFSF69FznipB8wTuLf+HzKhv1CMDW8dYP3ProQqT6jkh2SOM/Bkrl/LD0EQnQRkwYiO4iZeB+zyLC21DsPC2afNilYxpQuB5IFeJzhZOew3xO9QQxfFfc5tuGIRU7oQqjyjRkp5nM5eumHC4DGslzxXwCHLAz1G8kw3b6DTPS16GMShbYvHSjt0eUInPyRzjAEnc/1cfgiC6CQABUMnVgqsIux0zIoeDmHI0noRnuvGQPKwXCPEgVDbFbmqicbwYfzTiosXhIQuhCoPbyB4RWhrd1aDep3oAMbqRs+EKg+7/iie6TprrMQEgN2jkMtr6xWqPKGSH5I5gQEnc/1bfgiCcOLzEMlDy57B9DH81fcF0eQZkEObZDr2OVfhOmxtCVGeo5LpWErridA6UbZI5mYpsSeulCP/DTMMIcqDAGQhZE6UJHP9Xub6tfxI3wiCcIWcPAmCIAiCCDr+O3mGTceStdkwKZywRGcoHRo/Yj2uMvF4FwLJw0h/fC2yTRYUv/EW9nMzpdzTbDTjxffLxYPcCFUe40NrsCx9iMIhT+pptpVj8+tmNAlHuRKqPDBmY80T06E+UYCXdomuaGJPsx1l76yH2eOJQpQnVPJDMicw4GSun8sPQRBO/LdgGEQHMO7oxF86TpSGD6QCjpvCR1cCyYMY6IfzT8UYqE4rjA3jptP5zJVQ5QFGjuBhh2z8lkSixHFrOByQ3fbcCVUejIoWjnGOoev4LTFu4dtbQkJXQpUnVPJDMicw4GSuX8sPQRBK/Fcw9KwSYB/K+PzDIrj3O3sRvXk+BZIHeui405symmDEEGHdAu8OYKHLIzqAKdZq0A4VnNO8O4CFKg/LJYR5VkYg1EAtZvLqQBiqPCGTH5I5xsCTuf4tPwRBKPFfwQgfJHzYO+Pzy70xKyzeYggHkidMDRW/OsXaBwb20nOs3uL0hioPhmAQr2tYT6tzrQa5N3bJW+0Tqjws12Aefpnl6pxmqIc+kn20teKimNCFUOUJmfyQzDEGnsz1a/khCMKFgAJtEQRBEARBdAfvRxEEQRAEQQQVUjAIgiAIggg6pGAQBEEQBBF0SMEgCIIgCCLokIJBEARBEETQIQWDIAiCIIigQwoGQRAEQRBBhxSM/sCURfjTn9fihd9kiBETbysxyFz+DF5g1/Ps8kwYpFSCIAiC8AdSMPoBqVMToYIDNeUlnZEdbxuxaUiNFdUcdexUti/sEgRBEIRfBBjJMxGLnl+ESecK8eK2SjEpbTFeyDHBWpqPDWZv4Y4DIDwGqffPRXriOBgihRjGQIcD9svnUPV5EYoqWljTLCFdQ3c0Fq7D1qPivrhyo7jfE0G/Lxl1BpY9Mw/Ga5XY+lohGqXk2we3YCxBFlMy7OcPYOvbxaDIyER/QH5fle+wC/KKtOwtKvzLNlTIq8BKf+4eK8re3gjzeUW9cLMWu/9agOoO8QiRGGT/IQ/pUWyXv7OvKt9Z+XzO3yKI7zMBWjDUUIfDZSEgQ4y4loJz4aLeo5myAKufy0POjHincsEJU0EdbUL6/EWYd4f3sPX3psLInoKl4nA/UC44LSh++1W8+Jd1eIWUC+J7h7zYGyM8HpOTpH2ZcTMwiSsXnIgoYUE0giA8E5gFQ+opQNGrN81/BktS1d57F/6StADPLkyGmqtAbY0o3luE0voWtPOlksM1MIydhNR7JsG+bxv2yz0F2YJxpRz5b5j9bxy79ID6GhNy/rgYqRFN2PvqFpTc9vERgggQ7VTk/mYGmgu3YP/pTptiUPHfgtEVQ/Yq5M1gakGDwvrqgmSh+IEFFrUeuq8/wEv/qpb+xt7YnDVYknwdFjtfmM39PGTBIAglgVkw1CrBGVFprdBF8hQrvC4G6Q9hrOH9saRcXCrH5v/DlIgTknLBudmO5lPlMG9TKBd3IlPSMUULOL4q7aJc8IqQO1ouSQOMWUuxZu1avLB2DXLTNKx8jMiSHDFf+GMuUvlSl0rCdUjIzMGy3z2DP/F8/Li1z+PZ3y1GVqKnPhevVKXjlNsfsr07eXJljh2zOjuGXY8e6QvzsOa/pHz/tQbLshOhC9A+Rtx56O+egTEjYpC55GksuVcvpd7BfHcaNV87oLprMpI75diEKYka2Kor0Ch1y4RVcQmC8Igfr4fW2QgtniooGMZ5UiPHNtGXQYf05c5jAmbqD8VGs4P17N81o8llDHSgoEbGdNG5s/6Es4fUhTE5eHSWEVr+pMI0SLhvFjIX5iJTcsSENh7ZP04U9yVSH12F3LlTYYyWlgXnSMNKmb9gPbjM4DUAuthZWPT7FcieEgOtPIql0sA4YxGW/tS30W/izsfyRT7e3F0LG5Nr07wVWJkTD6YK34EMhUpcRR41ZdWwhyciTa7KkliHIMKKmiMlaG7lCTroaZoVQXilX+rfyROlhqnxKEps4u6AIyoDaXHs01aNsioxyROmlKnQNh3Ahpc/QA234OimIytJhUbzRrxUKHptqIx3uVoaHFY0HT2A7X9bj1fWrRP8KV56bQv2nxHNJIYfZsFVJWmB+Q3xOGGTftcnjImYFMlu40Qhu0aWd91G7KywCn/SptyDZGGP+D7QXlWA9X8vQuM1QJ+Wi6eWz4EpXPrjHUMUdBHSbkMValj9Y0oSNYzkKfFQtVahjIY+CMIn/FAwbJ2NUH4pb0D4OKPcKBWIjd/NWuyUGymP45u+oEes1MG2tiq9KPj4pmQdUWx8CKELUdOR5+HYF/68Ctn9xClUP20Su1MfnDvDWDmbi2G9aYHtOv/OttbDMLNn4GhpZU+hKxU7NmJzYTHqW9phl6w/DlsTit/fL54rPAZxo4TkoGAt3YL1uyrZNbIvHVbUfliMRn7esGiMpWmu3y8ulGDrW9tRwXr46thMLHlqEZJlp8ggYcrx9G6zTfC/CBI3rsPO3paqr9rZCacgNTwZk+9SwXKiEhbpEIIguicgC0Z0FH+NHbCzd09ArcMw3lOxWSFYDnvFIAwaJO61t/b+1/onJtyTytSLjiYc/aKH6qqpzM3PxIGagwcCq+Q6nM53gxSTcnpFWzl2m5ukLxIdzbBclfaJ7x+2UyjctBG7T7AKIjIRC1evQM7EO2zAhNVlXHlvPFIDa5gJU+ZPRkI4e18PK1V6HXQDwN2EIPqKABQMnTSNywar7OMZPRxCJ8V6MajavSY6WtrjVGKrbB35Sz7KupsNy2eRdB6r3PqJZ3c3zp1duGF3C75lg+2StOuNMB1MmQuQ97TCyVPYfI0J4AffAd9Ku8QAQXLg9bj56lvVYUX1rk0obGBKbZgeqY8uwQNG6W+9hM8i6fpus+3tco8WPb+IHe1qBTlfhirWzzElJUJ15iQq3d5XldQZIgiiKz4rGMMmZEiVzCpkCuZ1E3LkSueJ6RAmMozPkY5ZjFT+PSBaYLks7mk1QTN49iNk5047qsq6ce4MlDAjsp9ahSVzk2GIVDh5EkQoYUpu8iMrkTNexZQNCyp2bsVeN0PXnYEFVSfFblNTbWWnst/c2mtVhiAGPP2y+Tl3UXx5VQl3K6aIDRCiZefOWlQ1iEnBRD3zAaSPYDsd7ag3b8Fr3PGys5fXHyKFEv2eo9sUMuO2+eJbFW5C1rLlWJikAdpqsXvDWyisk8dT7zws+94S7n3z4a7mxsFqaTYXQRBd8Ln5vvpViVjBrDOLjdSFYmyQKh3R6RNo/EiuiHoXpKq5tAoW7iQYnoi5DwbJrtpPMN2b5ptzZ4DEj5PK68whbC9tcsYO4YSrIM3AI4i+YVQGlvx+sTCN2n6+GFvfLEB18IL79j16nV+OopqoIHuwEsQAwn/7gGGk+AJKTlCcKI0Y6cmhbMx6Q+sB7CkXf103YymeXZ6D1LEadIZZ0Oqg+oH05Y7ChCkTWK/OF+fOALG2ST1Fw93IjJFKTK1HQmYuVj+XjYGlrhH9Cc2URVjz5DyYIpgCfXQ73nz7ABqDVSeECtnDnCCIXuO/giFp+Mp1SIZF8IaMKRxBbDObzFtEL3QGX9UzZ+kacUlztv3pj4uQGin8yTNep6l6mdYaKvxx7gyQpsoqWLn1R21E1m+fF+/7uRXInRvPnht7Rp7iivAQy8pykheMcyvH21p2RL9Gf28enlqYCC2f3Fn0FjYVnsKdOyjiPkXeO6ofeJqOpQg46L51Fx2XIAYY/isY4aKGb7/FgzJwYqAfzj+tsAR1Zax2VO9aj1feMaOiyQK7cnmDm3ZYmqpRtmcLCgINtxFyZOfOdlSV9IFzp8z5ImzaynqOrYoC46HVq8zY/OpGFF+Q0ggiiFiOl+LcpRYUb30dW/vIOhcK1GrfBhHtUoWkHUHzVAnCGwEu1074TfQcrPxdJvSBLsRGEARBEHcQA22ORr+l07nzeBkpFwRBEMSAhxSMUBCWjPTkvnXuJAiCIIj+BA2REARBEAQRdMiCQRAEQRBE0CEFgyAIgiCIoEMKBkEQBEEQQYcUDIIgCIIggg45efYHpizCnxby5aCL8Mq7JW7LsxOBkLp4LXLGS186aUShj+vkqJMWIG9hshD9tHr329h9om+eSqjOQxAEEWrIgtEPSJ3KI3w6UFNOykV/YVIaa/T528GXHU9LFBP7gFCdhyAIItQEaMFIxKLnF2HSuULn8s1pi4U1LKyl+dhgbhHTgkF4DFLvn4v0xHEwREpx/zscsF8+h6rPi1BU0cKaZgnpGrqjsXAdth4V9z33cj0T9PuSUWdg2TPzYLxWia2v0XLq3aGKmYp58+7BlDF6qMPFNIfdgpaTZfifonI0edPO+Fory6dDRxaMOxr5fVW+wy50ec5TseTPOei+RpCxouztjTCfV9QLN2ux+68FqOZr+3QSg+w/5CGdL6LK39lXle+sfD7nbxHE95kALRhqoYJXLnhmiBEXOW6/Ery1mTVTFmD1c3nImRHvVC44YSqoo01In78I82KltDsU/b2pMLKn0FfLtw8MVDBlr8CffpuD9PFO5YKjUuthTMvGskemSinBwX7iA2xYtw4vrtvYp41+qM5D+IoeI+X12sPjMTlJ2pcZNwOT5BXaI6KYMkMQhDcCs2BIPQUoevWm+c9gSarae+/CX1jP7lnWs1NzFaitEcV7i1Ba34J2vvxzuAaGsZOQes8k2Pdtw365pyBbMAJd7yOAnm7vMCHnj4uRGtGEva9u6bMVVu90DPNWIe9esSq3ny/HnsJDONXSLliu1JFGjJs+Cw+MOI4Nu7wsIhfy5/o9RDsVub+ZgebCLdh/WrkyYfDw34LRFUM2k6UZTJYaFNZXFyQLxQ8ssDDlVff1B3jpX065MuWswZLk67DY9dBHup+HLBgEoWRQVFTUf0v73cIUEZw5c0b8MnISZqcYcOXkPlScEysT04z7MXG4FfWHSlF/VUgKnDDW8C7+EcYMYfuXyrF5424cv9COW9+Kf8a3t2C7/A3qjx9Ho/Jco1MweyKrPG58gyMl9fC0Mnm3DEvAzGmxULMKou7g8b5fM2TKPPx8qh4ddZ9iR+VFKdEJr1DzFkxHxKnDqB+ajJxFi/HznB8hK2s2Zk9PROS1BtS1eNZKVDHT8fDix7AgWzp+1n2YNnkkVBfO4kzbLekoCa6YPfkzTNM04HDDECT/9BdYvPCnmHc/zzcdE6OuoqH+IuxKVVTKMztVg7ouZc0r6TXIfTAFEfUKeeANwJrH8OC4azh4rA3GzEew+LGfIvtHWcL1pcT9ABdqz8AqP2eOOgOPPpqEyB8A1qPbsGFHGS6234JstXbcuIrWxip8ebJr+XXi63OV72kOu2/FFnf1EI55zCTfZxza2O9enTgHjz2Wi59ls/th+e6bYoT9TA3Ot7vY2AM4jxIVDKkPYsHPH8ZPHrxffLY/ZM9opAqXvmFld0M6LMTop8/H7OQYjL87HXGOr3Ds3DXpL8HDkDKb1TFMDuq8lJMPz1mbMBPTjGrgch0OHvc05KlFQsY0xOIkjpwbBdNdg9D6xQlcFGTfhMz506E9+Tnqh49HrNqKhuLjON/5XhiQMmciU3DsOH80CPUgQdzh+DFEomWV6Vq88Ge2LZ7KXmLAOO8Z8TvbRF8GHdKXO48JmKk/RKqWfXawnv27ZjS51c8DA3n5dgfqT3S3fLsG+hTWMD+5AKlxGqjkJ6aNQerDy5Gbwp+EK8asPKz5bTaSYxTHh6lYlmRkLV2JvCyjlOiKVn83sp9agYVpRmjlYYgwDQxpC5D3aLLwzIPC8LHIXrwSy+bGQ6+Whr7Y9enGz8GSJ+exatqJPITEx8P3/afR6W/Tr9BhysI8PPVYJkzRzqE8VXQ8svOWIIPLcjAIMyJr+dPIY42cKVrtfLYq9oymzEHOvTFSQuixfJGPN3fXMkVTDdO8FViZE88k905kKFTSiu01ZdWwhyciTa7KktIxJcKKmiMlaG7lCTrolcJKEIQLfigYoSN5ouSW1XgUJX6bIe4QojKQFsc+bdUoqxKTvGFK52bfdtSbt+AVPl7/cj72n+GWCzUSfjTP1YnNmI2Fs2LYX+xoLi3Apr+y4/+yDi+9tgXmunZ2gBqGH+YgK1o83AXTdKSPYJdUZ8ZmId/LyN/XJMxsUU98APPGiYf1mqhkpI9nV3i+HDs3vixc34Z/VcLKFckRGXjoHlmVUSP+Lr4GLfdVKHNztusDjm4TrkXc8lHmszuRDqYprMztLSje9qqQ/6W/HRCdTplSMOMe8R46CfA8iQtzkRnLyqaDycK+7djwsvgbL72Wj+37Tt0264VMe1UB1v+9CI3XmGKYlounls+BSeEvc2cQBV2EtNtQhRpW/5iSRA0jeUo8VK1VKKOhD4LwCT8UDBvMb4gVWn6plX3n44xyJVmAGu4bwXqZO+WK0+P4pi/oESvVx9ZWpZGTj29K1hHFtiRN+rOSqOnI83DsC39ehex+4hSqnzZJXL7dF+fODlbWW9Zjeylr7Hkje5M1ZO+bxTLXjsOkzntSI2MeV0bY06rYhXxzLSzSCIrD1oSyHX/H3ib2JUyP1Hs9+9ZbS7dg/Q55RoYDzcVb8FEttxtoYJocvB6yvaEQb75tRu0l0SZhrS3E9s/FlWaN8fJ0zSgMl3r/zd/0cxdYeyMK32SKX4NY4I6WYnx0nL8nTP2I8Wwx8ovoOZibxBUvSRaKmULBnz/DYWtBffF2bN3XB7Oc/OVCCba+tR0VrIevjs3EkqcWIVl2igwSphxP7zbbBP+LIHHjOlOsG1H1FVPKTVOQGp6MyXepYDlRCVoPmSB8IyALRnQUf40dsPMOMUetwzDeU7FZIVgOe8UgDBok7rW39v7X+icm3JPK1Asfl2+3lhfAzBUDJR2ncFZwO9BB39nux+OuMfzTgorPPTXI7Sg5JqZrjeO6VsZXylHQ5UTAqbNiw6WLDpY9uBFFTAGVxUfGclq0liB6tDRMYoBebpyUfhn9kMZ921DhZm1rbhEVjGCgu1tUSHGmDPu7PqL+he0UCjfxWTHsCUcmYuHqFciZeIcNmLC6jD+9xiM1sIaZMGX+ZCSEs/f1sPKZ6qBzM04RBOEkAAVDJ03jssEqm3ajh7O+JsN6MajavSZaacevxFbZOtKTWZnPIuk8Vrn1E8/uKemYwnrmjq9KezFzxI4bkklcKyh8jCi9GLSJPxtvutn5VqHixJCh8NWnwm6XnEK1rEIV9/oGO1Na+edQrShPuAKr7CsoKZ39lj5WgIwxYktmbWkUy6gv4U6oniwEfPPVt6rDiupdm1DY4BAtZo8uwQNBMORw+CySru82294uF2W7N8SOdpXx82WoYu+SKYlH2j2JSrfCV/V3uSSI24jPCsawCRlSJbMKmaN4igk5cqXzxHQIluzxOdIxi5HKvwdECyyXxT2tpk+bs9uE7NxpR1VZd86dvmNjvS2BIYPZ7/Yh15jiIu32KXabNCvFhhtSha4fGaTW6Q5lcJ8+2D6ARyZ9ZCVyxrML77CgYudWcXjujsOCqpNit6mptrJTuWtuDcmbQBB3NAENkfQ15y6KL68q4W4k98sr7AXRsnNnLaoaxKTAiIFBMPCwXr/cy79wUVIAtNB5G/eOjRZ7aLbLPisLchA1B1MwfIM1Kj+Qdv0hRro2+3Vp+MSCM82ij4Z2UpqrM+v3DLlBC4nS7eKE6rb54lsVbkLWsuVYmKQB2mqxe8NbKBQcjO9MLPveEu598+GutqPB6qDNrSKIAYfPzffVr0rECmadWXRKvFCMDVKlIzp9Ao0fyRVR74IZNZdWwcKdGcMTMffBgdVzNd2b5rtzZ3eMlyIKdpxDfY2YBJzGuQv8U48p93kqNz2ypovNtOXrU76Z2sNMSJ8sNmrnGmqFT4EbN8Qpo6xr7VrFapD6WC7SI6WvPqNBRpp4bdbTNZ3KT+1J6Tq1U5GT/f21YjSfEUPiqybdG7xpr33BqAws+f1iYbaL/Xwxtr5ZgOrgBffte/T+DQNqorxp8gRB+G8fMIyUesCiExQnSiPWeA7Jq73XtB7AnnLx13UzluLZ5TlIHavpNP+rtDqoAukh33ZMmDKB9ep8dO6UUUcZYNBKdx+mhj4pG3mPTBWGpazlRajonL5pxeFK0Q6tS89FXnYi9FLrrxoRj6zHfyMOb9lP4ZCn8w/WwcBjZ0hf1dGJyF72iBiT5Eo5ipTRE5ska0lEMubOihHzqI3IfHwlcib21KvTYiR7nkKUVoZKa0T6Y0+KY/Q3G1G8XzEb4sRH2N8oWjG4LKx+LBMJ0c7f55E8U7MXY/UjyVLKAOVEGaq4ASnMiAdW5CEn1QiNPAVUrUdCZi6WzL19cTA4mimLsObJeTBFMAX26Ha8+fYBNAarTggVsoc5QRC9xv9Q4Sm5eOHheNgrtuGVPWIfPP3xtcg2BTs8rgbJjzwpmlm7wSVsMHdO82Oxsy70dUhpaVl21LqGH/ZGT4ux2c8UYcv7JaK1pxNuQeimke+woGTLW67j4T2Vm50HPNuCEsE6IqNG8mOrsNDTeVrLUdE+HalxbjLRWb5e6LCiYueWruZ03qiuXIoMT7E7ZFxCP/u2yJX7AnY9lbeASxh658JXHuVKLle3sNT+n0fCOAd5v8qEwcuj7bMF+XxAf28els6LgbrDjsZP38VWPxRoXwlJqHDpmfVUlvLv2Mq2YP1H8svkg9x5eq4EMUDx34IRLmr49lvXhU9eyeqH808rLEF9a9pRvWs9XnnHjIomC59g4OSmHZamapTt2YKCQMNthBzZubMdVSV+OncqFQi+kmxrI7v3fKx/11254LSjYsfryDdXo7lNUWiOdjRXHcDWDW7KhRK33+IrlTaWFiL/dXflgmNH9c53Ya6zwCHnc1jRWFyADZvMkCLIe0d5rpvytW30PFbPI7r+35eRv6ccja125/kYjmviNW7edccIQuA0HWDPIh/mo02wKF8IofzMKPj09igXHMvxUpy71ILira/3iXIRKtRqKYxnD9il8teOoHmqBOGNAJdrJ/wmeg5W/i4Tej96MHKPrc97pnJPu697V31tISIIgiD6DQNtjka/pdO583gZmUcJgiCIAQ8pGKEgLBnpyf47dxIEQRDEnQopGKGgoxoFfGGqdVt6EbmTIAiCIO4cSMEgCIIgCCLokJMnQRAEQRBBhywYBEEQBEEEHVIwCIIgCIIIOjRE0h+QInyqzhThlXdLOtcICVkcjNuCGokPL8ejKTrgSjV2/u0D1N5uB1gvEU27jf5KEARBeIQsGP2A1Kk8wqcDNeVO5WLgk4gZXLngRCVjxmRx1zs6pOYsxcrnVyA7VkoiCIIg+i0BWjASsej5RZh0ThHP38cY/n4THoPU++ciPXEcDJHSMlw8XPblc6j6vAhFFeIqkwJeeqBKlL1Rn9aEkOgzK4I6A8uemQfjtUpsfa3QZYVVsmAokdd5CPaaN97oYZ0RIuT4vxaJb2vSiDjlqrNeuFmL3X8tQLVLCH2nXIC/s68q39lQyyhB9G8CtGCooQ4H7G3OdZgNMWJvtP1K8NZm1kxZgNXP5SFnRrxTueCEqaCONiF9/iLMu8N7s/p7U2FkT6HXy7ffcdhR+++N4vL+b/SD4RGCENBjpGRYQ3g8JidJ+zLjZmCSvEJ7RJT3hfsIgsCgqKio/5b2uyUuLg5nzpwRv8SmYfa0WDjOfokv68XFqfSTZyPFoMKlE/twLBixsJMW4OkFydByFaitEcWFBdi15yN8su8QDh4+grozVnRotLA3HkfjVTELRqdg9kTeIy5H/l834z8H2bFum/Lamo+7/b1egxR2X2qhB7QR/1L8Tb7P4GLC/QvvgUHVhM/+9Tma3BYIM6TMxsThrCk+f6SPzn8nYUDKnImsQrfj/NFS1MvPvM/QIiFjGmLVrG9b5yo3hAe0U5H75HzoLxxD4xW3VfOChPw+eH0ewxIwU3h/rag7eBzNaMExxTvMt7qIFEwzsofKV1PdsFPxN1mmhmHivey537TA8gMtYgdfQnH1ReHnOaZZP0F6dBss7RGIGCKfRybUMkoQ/ZvAFIyRkzA7xYArJ/ehQlo20zTjfvbyW1F/KAgvVpgJOYt/hDFD2P6lcmzeuBvHL7Tj1rfin/HtLdguf4P64wrlgiMrGDe+wZGSetikZJ/pUkH1MVPm4edT9eio+xQ7Kp2VmIxcoTYf+wjH2hORnfs4FuX8CFlZs3Hf9HhoL32F+tZb0tGuqGKm4+HFj2FBtnj87Fn3YdrkkVBdOIszbZ7zICoRWYsWsXNk4/65LM8cdp4pcdDeuoDG5nbXxVb5cNSTP8M0TQMONwxB8k9/gcULf4p59/NzTcfEqKtoqL8Iu9sAHDc/5y0Qf9u5xaHNU3lL5xCP4RU3R43Yae75ZyPuqlujE6aGceo8/PRnOch+8EfO+0lLxMiOJtSfd7ufLpCC4Q/66fMxOzkG4+9OR5zjKxw7d036S/DwX8HoijZhpqhgXK7DweOehh2l546TOHJuFEx3DULrFydwUZBjEzLnT4f25OeoHz6eyYYVDcXHcb5TxknBIAglfgyRaJH9h7V44c9sWzyVvcSAcd4z4ne2ib4MOqQvdx4TMFN/iFQt++TLdL9rRlPfdIhuM/Ly7Q7Un+hh+faR87By9SKkx2mgkp6YSmtE+mNLkW0UvysxZuVhzW+zkRzjPJ4PK2ljkpG1dCXysjxlysZqdo7M8XqoFaNRqh6GorT6u5H91AosTDNCGy4lhmlgSFuAvEeTBTm5HRgeXI5lrDFIYGXgcj+RMUjOZuWzMFFKIYKB5Yt8vLm7lin1apjmrcDKnHhopL/dWQyFSlqxvaasGvbwRKTJVVlSOqZEWFFzpATNrTxBB71B+AtBEB7wQ8EIHckTJbesxqMo8dsMcYcQlYG0OPZpq0ZZlZjkDVN6BvRoR715C15Ztw4v/nUbyi7xv+iQeo9bQ8kUhYWzYlg1b0dzaQE2/ZUd/5d1eOm1LTDX8WEWNQw/zEFWtHi4CFN25k2HjkmDtcKZ58V1r+K1LYUoa7CyX/OCaTrSR7DbqDNjs5DvZeTvaxKOV098APPGiYfJVGyTfptvb5ezvmY3HN3mPPYvsjMdd6BT/Ia0dXH6c9yApa4chVs24jW+Dgw/7q9vYWeFeEb1lCxkyWPpRFBoryrA+r8XofEaoE/LxVPL58AkK513DFHQRUi7DVWoYfWPKUnUMJKnxEPVWoUyct4kCJ/wQ8GwwfyGWFHnl/JKWlnRF6DmJku6WYudUoXfObvEb/SI5euaM6ytSiMn99CWrCOKbUma9GclUdOR5+HYF/68qt9McdRPmyQu3+6Lc2cHK+utG7C9lDXc3Jpjb4T5czGXyngXnJ0oSVFge7aKXcg318IiaQYOWxPKdvwde5vYlzA9Uu9V+tZHYbjQ2NrRVOvMgw472s9WwrxtG/Z3U6laS7dg/Y5yNAn5HGgu3oKPavnQmQamyTE8MeQ0F+Vj0w4zKs5a0c5lk2O3oHbPByhr41/0MLgpP0QQuFCCrW9tRwXr4atjM7HkqUVIDrIiZ8rx9G6zTZhBEiRuXGdvQyOqvmJKuWkKUsOTMfkuFSwnKkHrIROEbwRkwYiO4q+xA3bZ71CtwzDeU7FZIVgOe8UgDBok7rW39v7X+icm3JPK1Asfl2+3HfkA5tNuHqAtrR56//G4awz/tKBCUkBcaUfJMTFdaxynqIxb8LWgHaiR/PAKLJxhhMbXnueVchSYudbiyqmz4vi2Lrq/2ZBZOUpj5ipJzoggYzuFwk0bsfsEqyAiE7Fw9QrkTLzDBkxYXcbfr8YjNbCGmTBl/mQkhLP39bDyrdNBJ3WGCILoSgAKhk6axmWDVZ6RGj2c9YEZ1otB1e410Uo7fiW2ytaRv+SjrLvZsHwWSeexyq2fzE2fko4pWtbUfVXq0/Ltju/clAtvROmFYQ7h2XjTzc5LismQoUydcFK7ezuKz7OLUeuRnL0Uf3zueaz5bS6yU41QByAldrvkSKpllbC4F2JUMKRmY8nvnsGf1ip7ulIMA8I73LlWaRlQbr76VnVYUb1rEwobmOxyi9mjS/CAB9efQOBxMLq+22zracjNF2JHu8rr+TJUsXfJlMQj7Z5Epdv7SkoqQXjH56Zj2IQMqZJZhcxRPMWEHLnSeWI6uE8mxudIxyxGKv8eEC2wXBb3tJrb0zT1LbJzpx1VZT04d/rLkMHsdwOkown7334VG947gIomC+vnc6fQeKTPX4pn/7gYGcIzD4BrTNmRdkOHBqmLn0be/OkwRaudjq5E6AjTIfmRlcgZzySyw4KKnVvF4bk7DguqTordpqbayk5fpObW0Es1Qdxp9Muq99xF8eVVJdyN5IHWOETLzp21qGoQk4LGhYtSY66FzlsvPTZa7KHZLnts+K2ni1H4zlt4ad3L2PCPA6jn/goRJjwwP9MvS4QceM3BFIyQM24ussZz+4yro6u49WD9Ityca902X3yrwk3IWrYcC5M0QFstdm94C4WCg/GdiWXfW8K9bz7c1dw4WH275kkRRP/H5+b76lclYgWzziw6JV4oxgap0hGdPoHGj+SKiIfpDZzm0ipYuDNjeCLmPhgku2o/wXRvmu/OnX5zGucu8E89ptznqdz0yJouOndavj7V2RvzjAPWU8XYXlAuxhMxjIHPTyLMhPTJooJxrqFW+Ow9DjiE6cpqqHqo0/UTxokWtbZqfKRwdBUIGwrVD6R9IviMysCS3y9GZqwa9vPF2PpmAarvJIVO79+QniaKxtsIwhv+2wcMI6UesOgExYnSCNU5HLK3fm9pPYA95eKv62YsxbPLc5A6VtNp/ldpdXdoI2HClAmsV+ejc6f/WHG4UrRD69JzkZedCL3UGKtGxCPr8d+Iw1v2Uzjkcv5kLFq1GNlCSHZF663WI3FavNhYW76BRwv3YB0MPN6G9FUdnYjsZY+IcUyulKMoaGt4NKFZuGQ1Uh/KQWK0dy3DYpUkUxuPtESpuQjXwJiag7w/LkZqpJhEBBfNlEVY8+Q8mCLYMzi6HW++fQCNwaoTQoXsYU4QRK/xf7GzlFy88HA87BXb8MoesQ+e/vhaZJuCvcCPBsmPPCmaWbvBZeEjPxc760KXxZKCjLQsO2o/wEv/6tn/otvFzuRr5Q6tb5gVUQs1SH1sJXImemmAOywo2fKW23h4D4tC8WmyW9izVebpqaztPEjaFpQIFhUZ3xaf8ra4m5rJ3mome57uzOW5qpOR+/sFSPB0YIcdVpsKukhVF1noXOSqO7qUN8HR35uHpfNioGbl2/jpu9jaBwq0/4uddcWQvQp5M5jSyUOFexrukeS6pwUG5d+xlW3B+o/kF8MH+Sb5Ib5H+G/BCBc1fPut68InX11QP5x/WmEJ6lvTjupd6/HKO2bB6dCunEhx0w5LUzXK9mxBQaDhNkKO7NzZjqqSIDt3utCOih2vI99cjeY2RaE52tFcdQBbN7grF5xKFErOnXZlj/OmnMdNuVDiFmXVYbegsbQQ+a+7Kxe9x35sO/L/VYzGVrs0XOIFezW2/+0DVLS0O49zMJlpKMbON19HQe1Ajd52+7AcL8W5Sy0o3vp6nygXoUKtlsJ49oBdqpC0I2ieKkF4I8Dl2gm/iZ6Dlb/LhH6g9GBkCwb1yAiCIAgPDLQ5Gv2WTufO42XUGBMEQRADHlIwQkFYMtKT+9K5kyAIgiD6F6RghIKOahTwBbfWbfEpcidBEARB3OmQgkEQBEEQRNAhJ0+CIAiCIIIOWTAIgiAIggg6pGAQBEEQBBF0aIgkVHRGGXSlp4iBncRmIu+Xc2BQ29F8YCvyi33IQxDBhGKfEAThB2TBuEMwpEyFIYLthKlhmJYGg5gcXNQmZD2WhzX/lduL5fYJwg9I5ghiwBKgBSMRi55fhEnnFPH8fYzh7zfhMUi9fy7SE8fBECktqdXhgP3yOVR9XoSiihZ0BsTuaX0MhnIdA5/WnpAI9n11u86IJ0JhwejrtVj6Oz3Ij9dn5UlGeWjyllpUfVKM4tMeFsYP08F0XxbmTU905uGh2esOofDDcjQrQ7YrrV+2Smx9rbDLSrw9rtMRDPrCgvF9lzmCGMAEaMFQQx0O2Nuc6zAbYkTjf/uV4K3NrJmyAKufy0OOsMqnvF4nI0wFdbQJ6fMXYV6slDbQOV+M/Fd5LI1XaXikP2Gcg7ynPcioSg29cSqyfr0Y2e4yGm5C9spVWDI32TVPuAaGKdnI+z3rzYsLFHdFm4z0KdI+QRBEP2ZQVFTUf0v73RIXF4czZ86IX2LTMHtaLBxnv8SX9e1Ckn7ybKQYVLh0Yh+OBaNrk7QATy9IhparQG2NKC4swK49H+GTfYdw8PAR1J2xokOjhb3xOBqvilkwOgWzJzJFh/ew/roZ/znIjnXblNfWfNzt7/UapLD7Ugu9qY34l+Jv8n0GC0PKbEwczpS080eC/tsBMywBM4X7t6Lu4PHv3xh783FXeZC2uogUTDOqPTwrPbIe/zmS+PLvbadg/ud7+ODDT/DpAZZPkNEbGBIzHDfqjqBBllFokP6rJzA7lgn2tRaU/X/v4r1de7H/4Bc4ZhmKOFMstBEjMDE+DCfKT+Maz9L5XNphs6kRq7+J8qNNuCX8nogsT9Y6VxkPKvL7deMbHCmpR1CWjPu+yxxBDGACGyIZn4NnF09Fa9Gr2PyFGJpSNNEGacn2MBNynl4s9uIulWPzm2Y0dbd6pkxvTbghNNf6NETSG8fQqERk5WQhPU4PtWy1b21EhduwUufy1T0S7OX47xzkMupS7qPmYfWKDPZ82lH2znrvK84qGZeDNb+eCm1HE/byFWfdW2ltBpY9PQ/GMAdqdr+MgiqWppDL4mItexeHouK99Sg8LWbhBHuIRBUzHfMfnoXEkRqouJLPhyUdKsFy6fH9CtchYWYmZqUkIma42pnn8jmUffIh9tc6h4l6JXNhahhTsjBr5iSMidY4ZbutBbWf78GeUsWQKUEQtxU/hki0yP7DWrzwZ7Yx5ULNUozznhG/s030ZdAhfbnzmICZ+kNRueCV8Ls+KheEEyNrkFYvQuZ4p3LBUX3fhpVCxiAM1Ui7PZCYnszeJO5Ksb+rcsGxlWDfMa60q5CQmCimKbAeqYEFGkzJSJZSgo9x3gr86bfZSI6RlAsOH5bkyoUXUh9dhdy5U2GMlpQLjjSUmfkLplBkBmdZc8ODy7Fs/nQksGtzke3IGCRn52HNwq5lRhDE7cGPIZIEhI+ORSzXLHzhch0OHg/MVyB5zs8wOZrtfH0Q/yz34zd6a8INobnWpyGSq/X4UmGqbxvry7CKGhk/fwTJrBisFQXY8v5umD9l+YtLUd5wCYMjI12GlWz1pc7hgG6GiA4eLEV9p5n/+4U2YabnIZL2dkTdPQ1jhqowKikJka2n0HDRDu/6sB7T7p/Jjneg4fMPceKilOyGVTNekOOw7y7hWPlp2JVy+T97cfGu+zDhrmG4UVqBJqm7HrQhkqRFWPFgHFQddjR+VoDtO/4tys+XR3BqUALSxkR4fL8MSSnQnCnBf/Z8ALNZHCb6/EgDHMZJMEWpoDUOQ8tnJ9DKju2NzGlNUxF3vRaf7tmNDz/eKw6ZfnkSLZoEJBuYcjNqFMIqy9F4Q8pAEMRtww8Lhg3mN9bhxb+sQ34pN3dy86X4/cW/FKCGe73frMVO4Tvb5NklfqNHrNTZsbYqa8qpWCJZS5TbkjTpz0qipiPPw7Ev/HlVV4e7AUcUhkfxTzuaamthkRdXYw1G+9lKmLdtw/7v4TBH39CCve8Wop47SoTpkfrIKvzpj3nIzWY9eY+KeAyihZEBG650t6huSyt7uxhDhrKG1x07SvZXwhZmxL3zup8x5T86ZM1KFM5p+exdbN13yik/9nY0Wbyr7BU7NmJzYTHqW9phlzQsh60Jxe/vZ6oDIzwGcaOE5F7RXJSPTTvMqDhrRbs808ZuQS1TbMra+Bc9DOOEVIIgbjN+KBhOoqN4LengdY6IWodh3Hxqswo9lN4xCIMGiXvtrb3/te8fLfi6ibcKaiQ/vAILZxih6ca0TfQSWyW2v7ZRaIyt3JqgjUHCjBwse24tVi+eg0RB2ZNRScMHVly8ICQExunDqGCvhjY5HckBvcFeCIvHGEEJaMLRw91pQH7Q4fSIGKQY0gg+7DySN5lKqj8Igri9BFA96TBS6oVZ5Rmp0cNZv5lhvYggVUsCmmg+TiJTia2ydeQv+SjrbjYsd0LrPFa5fT+cFGt3b0fxeaZkqPVIzl6KPz73PNb8NhfZqUaog9kghYwYp/9Pf7RKdVjRWLwdG/73y9jwjwOoaBIdGnXjM/Ho6hV4wCh8VaCDoVfXbMHhI01AeCJmzvR1zNIHDCPZlTHamnFOtlz4Co/rkbkAeU8/gz+tVT6fHATXzqKCITUbS37nfp48pLsocwRB3G58bm6GTciQXuRVyBR6OSbkyC/3E9MFxzU+u0Q8ZnEvovK1wHJZ3NNqhOqO8JeOJux/+1VseI83dhbWt1OxjnU80ucvxbN/XIyMIJiqCU84YD1VjMJ3NuLFNz5ADTfZh+mR8Ui2FHm1GRZBMVbzMBneiY0WG3rbZXGoxAP2L/ejwgYYp2UgOO6TCr4DvpV2fSLMiOyn5LgeCifPoKNB6uKnkTd/OkxKZ1KCIPol/fIVPXdRrFZVCXcH1wT8PcN6mjd2b+GldWLPup43eBEmPDA/U2zA7hhaOv1/7hir1JVqFOyphGAIiBqHSULvugXNwqifGqaJMXzHI8njxwif1vONYn5PdDTicIUFiE7DPcHyOXBIwxnDdFDaDmU0mqHSnivqmQ8gfQTb6WhHvXkLXntZ+Xy6Rh0NmHFzkTWea2Z2NJcWYNNflefpwapJEETI8bn5vvpVifgirzOLFcaFYmyQXm7R6RNo/Eh+2XsXQ6K5tAoW7igWnoi5D3axLxN+I/astxeUi57/hjHwWKpyA4PBGBJEy/udjRrjpCi1DnugUxNssEmzIWpOicEydFPnId1TtE5jNuZO4M4KFlSVdj+DyvJFBZo6xCmrQXFvuHBWDFEeZsRdwrRzBey6ls3xrBTFj5Ok6cwhbC9tcjpfcsJVTJq6wQ+Z008YJ1pK26rxkVnhwMwJGwrVD6R9giD6Bf7bB+RxWpu103wbpRFrSoeyYukNrQewp1wax56xFM8uz0HqWE1nJarS6qgy8UoyFq1ajGwhdLWixlbrkTgtXqygLd/AY0wouYFh6sesxzJh1PapV16/wzB3MZbwGSByuYVrkDB3CWbF8S8W1Bx3G7BIWYTVi7ORHh8DjbJx5CG/4+dgyUIxXgzO1KNKmlkhD20I4cKX5yJdluswNfRJ2cj71XTo2FtpP7Ef+3vycbaX4PMaO1QTZuDuIVJar6jFya95g69G6kM5SBzBrowHtpqRi9VLuwZ8k7G2Sd7ehruRGSPJDJO3hEyW77lsz8qsjB8yZ7FK5a+NR1qidDWsrI2pOcj742Kk8oiqBEH0G/yP5JmSixcejoe9Yhte2SMaP9MfX4tsU7AjPWqQ/MiTWJjUfQQjl8iFfi521oU+jOTpW/RC1/MGkkecztuNY10He05b2HPyEnXSMI+d815P5xz4kTy7K29r6RZscC80H+QN106h8K3tolIhY5yHlUszoPei3tvPF+Ofmw84A8x1J5fRc7Dyd5mdfhi9juTJf28l+z33a+uwoGRLGWKeyIbJPZJn7DysXpYhKEZdYPJmvaaDTutdfnyWOXUycn+/AAmeLB0ddlhtKugiVX274BtBED7jvwUjXJwDZr91XfjkHv764fzTCktQI1O1o3rXerzyjllwVLTLllTOTTssTdUo27MFBYGG2xiwVKJQcu60Ky1KfKXOqgPYusG7csFpLnoL+eZqNLcpC/z7QfOnBTBXtcCmKDceXr34Xxu7Khecyl3YvKcc1e5lzUNktzahYt82bHjNTbngNBVh04Zt2N/lXCyPOR/r31YoFz3RWoKj0hJBQaH1ADb93Yz6Vun5s3uxnSnHzg1vYa8c1cud8+x+th5Ao5yHI8ibGZtf3YjiHqbk+ixz9mps/9sHqGhph0MuH75qbUMxdr75Ogpq3QuaIIjbSYDLtRMEQRAEQXjHfwsGQRAEQRBED5CCQRAEQRBE0CEFgyAIgiCIoEMKBkEQBEEQQYcUDIIgCIIggg4pGARBEARBBB1SMAiCIAiCCDqDoqKi/lva75a4uDicORPMiD4EQQQFHlH0yZ9hdqoGdSX14noz3zv4kv5rkPvgbMRdPYRjQQ3611fciddMEL5DFgyCILqgHj8Hub9dgz89NlVK+T6iQ2rOUqx8fgWyY6UkgiB8JsBInolY9PwiTDpXiBe3SbG6pXUZrKX52GDufhXInuGafR7ShSWuXXFcs+Bc9WEUfVopLZLkRpgOpvuyMG96IgyR0sJJPGxx3SEUfljuOU94DFLvn4v0xHHOPDwEcUstqj4pRvFp5yJXvq0PItGgKB+C6CvkNVHc1wjpBZ1yfsfIsLPOCN5aJPK6Pn21Dk9fXDNB9B8CtGCooQ4H7G1XpO+sQpKWtG6/4kzrC1QRephm5CDv6TxkuS/TyFeoXLkKS+YmOxUFDl/dcko28n6fi1T3JbKNc4TfyhFWH1XkUamhN05F1q8XU++FIAiCIPwkMAUjdrSwdLNzwTOmcgwWlzi8ZbcLn8GCa/Yv/kXa/roem82nYOULHaljkPlINgziYQwN0h97DOnRbPdaC8p2bcRLQr6XsWFXOZqvsfSIeOQsntO58iTYXtbDmTDwS287BfOW9XhlnXSul9cj/x8HUH3hBr4VDxZoNm90Xo+wFUJcU5b3cpTpbCPrBUEQBPE9JbAhkvE5eHbxVLQWvYrNX4gKReritcgZHyxTYg+mQ3b+Nez8WthRse1VFDawtHEs7dcsraMJe1/fghJ3TzdtBpY9PQ/GMAdqdr+MgiqWNmoeVq/IYMpSO8reWd/tKqPe6SMzauf1elkqXDsdS1ZlwxTO/v5FPjYUycNSctlJS3uHxyB94QLMS9BDxX7LYWtCxYc7Ya5rl46XCNchYWYmZqUkIma4WjhWWBX08jmUffIh9tc6h4k6yxoWFL/xFvZ7MlpJMqK+WYvdfy1Ata+rg3rARbaadUh8cAEeSjNCyw1ONy2o/2QXtpdZxIOV8Hv/6XxkToyBlpWTeD+ncXjPHhSfdbt/JR6H2SxorPQyNMeOT5zzU8xNHwO9WjzeYbfg3PFimP+nGhb3e3cbTtQlZmPhT6bCyG+IXaOlvggFO8u75mOoYqZj/sOzkDhS43xGDpVgUezdEIn3YckueDmPp2uzXaxF2Ud7uy9vf/FQ3nyFZYdKlNsudUaYGsaULMyaOQljojWQszjaWlD7+R7sKW1B5zquvizBL+GpblJzq2fmDEyKi4a289q8DdHKZS7KdtG3ruXnuNSI4sIdKD7ddZVZ/87jRJc4Bzk/SscYxTtuaazE4aIiVLR4Xs22Sx52nqbqvdjzHw+yTRAK/JhFkoSkBY8JHs+zUwzgIh05/j7MnsO+s22isGS7GrHTxO+zx7bh4PFAfTG0SMiYhlg1azzZC9PFu/ryUCTMmcgUAxXsZ8S/J85biLSRYbBV7MGuKkVjKHOzCVbdTKQYwqH77gKKT7YCmvGYySopNTpwue4L1LAk/zEgRbgWO84fLUX9VSm5t7Dr/coWh7SJOmhHmxDRoPxtDTKWLMF0Vub2hkL8/d+ncEv6i7Ls2po7cM9vfoH0mAiE/UD8a1h4JGKTJmHIqVI0KK41NfcZ/HyaAZERqs5j8YMwqCJ0iEueiYkdJ3HkDDcDMa5cgnpKOuIiIhBx6yTKGqV0BabM+ZhmUMF27GPsUSonAWBI4fKlxrWWsxizYDkeSIhEOK/oOIMiMGLCFMRaj6JKWUFqpyL3d7mYadQifJCUJtzPCJhSUxF39RiTG2epdaJNxqKVv8b9k0ZBO0Q+CYOdR2eciBFWN3mUjp8zQYcIofYVCVPx4ychPTUGrdUncFFZ4Y9OwWz2XNXtF3Am7ufIe2A8IuUbYtcYEZ2AKYZLOFJ90dnwMYzzVuD3C1IwimlLLs9Ivr8b3+BIwLNInHLTIx7OY8zKw5M/T0Ws27WFa0cJ5T0x7AyONAbh5eDPdfUSzIp3LW8Mcsqte51h+PEKLJ87HiPYtSmzhA3RYlTCNKRHX8Dn8ssvPRtf6FI3xWZj5fIsjI9mMudybeHQjkrAtGnRaCmpQWtnl04uczsufxuPn+TMROwwZ/mFDWWK7t1Turyr/p9HxJi9CiseZHWV2zseMTwWExOGepyBxGVuRfYk1zzsPJGjmWxP0eBUeT2u+tRFJb6P+KFgJCB8dKxvFRDncl3fKRidjTpgOXmINSx6TLt/JsYMdaDh8w9x4qJ4lDtWplDwyiPsu0s4Vn4a9vZ2RN09jeVTYVRSEiJbT6Hhop2pG/7QRwoG41ZzA66NZZXzCC1ixzlfZs29i7E4NZJpF40wb92Lsy69FbnsmLKXlADdIDuayz7Alq278T+fnUVEUgpiI9QwqCUlS8LA0jVnSvCfPR/AbP4Enx44hM+PNMDBGklTlApa4zC0fHYCYo5raFbF477xkYjQ2HGi9DRLUZKIeQtToB9kxbH/7O11mYgKBjAinl87lwkz/vnODny4/ziujUlBAlM+RozoEJ+pkIMrYL/GjGhWROfLsfu997H74wM4+OVJtISPRbxRB33CWNw4WoEml7LTI2vZEkwbwXbtLaj4qABbCz4UyuLLigZcGjIaGusR1HSKNR+WW4J7Ylglz4fY/vkeCvZ8gv3FpUwGh2DM+FhoNXrcFcUaMEVZdzZiwxOQYmRCfoXl/cdmbC/ch2PX4pDClBV1tB4dleVovCHlSVrEGoc4qDrsaPysANt3/BvmTw+xezqCU4MSkDaGFUyvFIx21Jew3zsobnURKZjGr407eW7Y2ZkubO7nMGbjNwsmMMljslb6Abb+Y7dwbVx+bNETkBAdAe3YMQg7we7HOaoaAPz5/Aqp/MVvrUbhv/6B/8fL++AXKGdK7MjJTAEc3LXO0JqmIu56LT7dsxsffrwXn+xj98BlQZOAZAPrlY8ahTC5rJuPK+61DXHCu80tDK/inQ/ldHHrUi8NMyFlzA3UfPr/4f/952P8TxGTOUEWNEiYZIA6fBRifnCcKeTyMLLzXR1lHAHVjRaU/ftdvLdrL/ZXXkDkhCQY2Ls6Rn8TX1Y2OZVNv8/DUGdg0SOsjvvOior/9y627v5YkGtBfi4NxnDtdTQcP+36XMfnYPlPxiO8g8nGx//AOzv4u8DK+msbRo5PwAhdLCZEnsXhut51IIiBi0L97QkbzG+IvgX5pVyg+Esn+xsUoIZX1DdrsTMU/gdTJmAM/+xowtd1fCcG0UKnw4YrHizlnbS0sqtmDBkKUU9qwd53C1HPW8cwPVIfWYU//TEPudlTwevW2087Kv65CxX8rR8xHQt/bASi5+Dx+7l3Kyv/f2wT/+YVO+r/swn55lpYhefDFJLPRY8RlWGswhcFqNixEZsLi1Hf0g67pGHx4ZTi9/eLPibhMYgbJSQL2I+eRBM/LnoK0t2dYKfcjQRusm+tQlkwPe+ZtFq+2IINO8rRxOvODlYG+6rFZ6ofjU6f33FzcS//YqtEwWYzai9JVbPdglpzPj6oYpnDjEhLd+upTsnCPfweeTm9mY/CiqbOsrC3NaGiMB+7j4nfBdh5Mk0qQQ73vr0dZWfbxUaAKQGWE2bk76oUKmz1pHuR4Ume+NvXWoLNG1he4YbYUy0rQpUw5KSHYZyQxNAha1aiILOWz1jjsO8ULHLbYW9Hk6VbIehj1MiYN11Q9m0VuwRZk6+Ny0/Zjr9jLx/d4+/Xvb4NPXglSXo+dlbPbPoAFXJ5s//bW5ph9WCQ4jQX5WPTDjM73op2WaHkssCU6bI2/kVZ1r3gfBHy39oOM5Mbq02SOUEWCrH7iDhEpI9x90yXYJ2FQiZz5hNW8Z6u1KJwezGE6mxMAiYpa+pAzjNiODT8N+xNqKmxdMq1ID8VZmzddsBtyIs911l8GBRo+vTv2F4qvwusrM+WY/vb4vHapHTWnSAIz/ihYDiJjuLViYPLpohah2G8QbFZpR5uH6HWIyEzF2seThSGaGzH9qNEqMxUkunTiosX+KcfsEZo+2sbhUrbyt9VbQwSZuRg2XNrsXrxHCT6Mibdl3Swiudf5YJjqy79UaxZkgk9u1cr6yn25DPSfGATth91G/uWlaxBrMyEhB7okCowBsvixF6CL7/if9MhISVGTJNITooXfrvpSIlYQQYJe9V2bCpyu+nz34j3EzYIrPMqoJ8wTqgYbTVH0ShXpArqG8WqVG90bVUSE8XrtlV/hjIf2mz5PI6vSrv6/HAajqKGN2BhMRg7Xkxy4Vo1tm8qEhW1TlrQLL1EnUMfYfEYIyh3TTh6OJglGgzicZeg7VtQISmvrrSj5JiYrmXl7abS+YVx3Bjh+dhrylDr4bn6D5NfybzfWdZ9xLffSdqPyvNb11jkobPQehrnhM6PDganN3u3eD1P89do5nVlRDIWrFyA9LGaHt5/+bk24niJB/8Z21c4xxVh1vG4i2bZEV4IQMHQYaRkLbDKzn3RwyG0w9aLQW1QOKactXjhz9L23Arkzo2Hll21vc6MLR+6V2jsRQxE2FlPuLF4Ozb875ex4R8HUNEkNFnQjc/Eo6tX4AEvnY6Q0WRGQQm/Jg20kfx7ETb74JHKh4C6cN6MDdzC5O6kxx0bMxcg7+ln8Ke1ijIXHFg9U11WLQxJ6CbPcB4TlozJd7Gq62YtvvxS7mYHB/t1T614JbYKVjNWQUspMaI5C9r0pYr7UGwenfj0iDOIVa6lyVND2ZXoKHHOs63Nm9Q3oVn4kwrqIUKCK7fssHloKCu2iVbATgdCw0ixYW5rxrngFmnvidJDJ9QirD7w1rs47245DIyRIzTCZ/M3vj0fJyoYUrOx5Hfusu2jU6sfqGKmInvxCjz7vPI8a32PnePCdTgEfUELrVt2v8/TUYuCfxQLSoY6OhnZS9fgT/+1BnmPZSPVk7l21GihI8NqYGS7lJm8Bb/siIGHzwrGsAkZkmCtQqbQmzIhRxa2J6YLPTk+Zicesxip/Huw4V7pLdXY/95GvLJD7NWLNMMiKDtqHr7CO7HRYkVtuyxWeF1wwHqqGIXvbGQN8AdS71OPDJfpsLeHQXL3nBM9FmMCUA29EmZE9lNy/BDJU9wXGqpQw9t8bQKmyMaAqamYFM6KuLqsVzNHesPg7rtmXhiEQX72YlVeeqN9ButtK6dM9wuGDO6hJ9wH+FUIGqQufhp586fDFO2HbAeAJm0x1vw2B+nj9eKsnqBxAzbFTK2Az9N0APmvcmttJZpaHUyANTBMnI6cJ57Bs49nSAqFRKhlmxiQ9OHrFhxc4mCsexnr//aBS2RNEdmsrIZpoqu5XknyeMHmB+v5RskZsBuuVKNgT6V4XNQ4TLqN2jqvUH7J/QXsjahu4F2QRMz/5VRWdQYH9cwHkM4dG7kzl3kLXntZUeadcT480YjDFbyLrsGkFG4VUCND+LSg4gt/e5nBo7lVlA8+DdR5Hx42Fz8h59CEVhgC7JnWK+J5tBpvxxthEBxd7E5rXyA4pGGqYTrwMC/uaDRDpb3bwIWLkrKuhc7bO9KjYu8bt6Ri0EUrvYckwrQYqlTCZcbNRdZ43uvgDqgF2PRXpQzko6w3z8UFE+ZmmQQLDXcs3vl/X1WcR/Zb85MwA/TD+M512DuNd708j2CtLcTm//syXnx5I7bvOyVY0dSmeVhwn0KO5aFH9o4XKn6/69YXEU6JgYLPCsbVr0pEgVpnFhucC8WiqZ1tslA3fiQLndNcHSpqTolDBrqp85AuWq5dMWZj7gSulVtQVerv7BYbbEGcHeIX2ulY+CCvUOyo+XAbdv97PxpvsgphfDYWpgdHxYgfJ40BnTkkOHN1OsJxwlWdvg2esHxRAV7y6qR0JGunIonrcBdqUNGnzjjd03xGjGugGz/JxZG1JxqbxKEOfVomTD68GfJ5VAnpnmUu6V5M4UNaN0/j697oWxfOinENwoy4y92Xg8n1sjnelepAkXUaDFELjZl3TuOc4Pekx5T7PI0l6pE1XRySsnx9qmfFvhuaWsTno4uLd7smDVJ/uQDJEdJXBbKfDNqq8ZHCAVUgbChU8tRLjzjgEKxwPVhGOaMSYBJO1I4qsxm1ra53qlZ19xZ5RpORJspha43k+MsI5nluWlFfvB07JcdQg1H5/OTnOgYJU4QEgvAb/y0Y8niwzdrZG4nSiLWrQ9kwhRj7l/tFJykeLnx5rtOJKUwNfVI28n41XRgrtp/Yj/1y45eyCKsXZyM9PgYaZQXCQ4vHz8GShVPFiuxMPapuh7mfD138RgymZT9RiIITLM1Wjt0HeZOugunHS/FAEBysrG2Sr4bhbmTGSKZRyaF29XPZztkZnrBX4gRfZDc8Eff+KlUIDNZUWdKrnmqvqSlDFZeF6EwsXZ6DVCYLalnS1RoYk+Zg4W+XIsut7KyHmbLEnzNTlJaszkVmvL4zn0prRGpOHhamiN8FTkjn8SBzxtQFWLkwUZAfa/mhXg4X1eLk17zFVyP1oRwkjmBn4eeYwZ7PUnEGR7CxnJeCTxkz8ctMIzReTfFWHK6UlPv0XORlJ0IvvUuqEfHIevw34pCq/RQOfeHNV8U3rMdrRB8v6Zr4s1GNSGRlvxI53ErhoYwtVkkStfFIS5RKir3fxtQc5P1xMfhsb+/IPjRSuUcrKwk3LLJ1RoOEaYmSX4oKmrFTkbP8GSxJ674zoDXGwyBEjmPw62PP9klhtpidKQEKZ+lAz+OlrlNHJyJtvJjH0qL067Ki9JhYz0x6eA1yMxXXx88XE4/07MVY/UiylEYQXfE/kmdKLl54OB72im14ZY/YLUt/fC2yTWI0uuCYywJcBMg4DyuXuo0lKrCfL8Y/Nx9weu37ErXv2ikUvrW9m+mgfbcgkvGhVVgmDI3UYuerBQrPeQ0ynlgjOp9eKsfmN82KmQgBlF3sPKxeliFVVm50MEXymg46bTf3N2UR/sQaU6H6CULkTnfESJ6syvNnIT3WsxcaXy+ywCtQT/ejYffy5MOJgiOxJ7qUaU8yV1eIN3dUsv6mAlnu/Im8GT0HK1eKM4hc6LCgZEsZYp5gimgQFzvjcvTAqjxk8KEzd7qcR4PUx1gjP9FLAyxc41vidNVekvjIM3g0qet5eDl/cCUTuTN0rs9InYzc3y9AgqdL67DDalNBF6ny+q6oWX23mtV3nrK75lEj+bFVWOilDOxX2qGKYgqoy+JxPUdPtVZsx+Y9pxTyE8h5GD3VdV3qEQ73X5GUN2/cMYvhEbcDr9WvV6SwiM51SGKgF6J4WmEJTs0WOE1F2LRhG/ZXtcCmsKY4WptQYc7H+rcVygWnchd7ectR3WSBXWl94eGXeZ5927Dhte6Ui76j0+9CGBpRKhecdpT8u1gM0ztiOh79aQ9KUk+cZ+W29QAaueOXDA87XGXG5lc3orinqb9VrCcvRdpyfH3ytjl3utBkxgYPssBDSluaKrH/H9tQ5EFZaq8qwPoNBSiuc5MhuwWNxQUodK9LBZljxzcwGVIUn6O1EWV7mMy5KxeB0noAm/5uRr38jLjD85ly7NzAG27FiYNGC/b+PR9m9/LzSDsqdryOfHM1mtuUhcBl6AC2CtcopfWS2l2bhGE8OfyDECqev9usnD2+pvZqbP/bB6hoaZeGOxh8peSGYux883UU1Hb/ctuPbUf+v4rZu2F35veIHdU738buo6y85GsT6pFGFO/aiPUFNR6urwWH/21GGZe1a4pyUzizb3BRLjiBnIdR+aHk3Ol6HzxcejWv57ooFxz2XLex58rqSJf75+dj+epLC7F5FykXhHcCXK6dIBSEJWPRcwswKZxVSO+tR+FpKZ0gCIL43uK/BYMg3DD99AFhairOfIEiUi4IgiAIBikYROCojUJ49SWpGvBx9uLCkl7NEiAIgiAGDjREQviNIXuVa8TADnHNky5hyQmCIIjvLWTBIAJHckYz579OygVBEAThAlkwCIIgCIIIOmTBIAiCIAgi6JCCQRAEQRBE0BkUFRX139J+t8TFxeHMGR4TmiDuJNRIfHgFnvrFg5idGo2Wyhoo44ndbtRJC7Dyt4/gwdkpiG49jpqL/ejiiKDBHaPX/JLJ4Ng2HDzu71pIAwQeTfTJn7H3UIO6knrPAcH6G7HZWL3mMTw4Jw5tB48HKUru9weyYBADnETMSJFmvEQlY8ZkcTfY6NJysOx3z2Nltn8Lj01KSxbDmYfpkJyWKCYShA8EKnMDCrUJWY/lYc1/5SJVSiL6DwE6eSZi0fOLMOmcIg69FOver/UivOI9Rr/jmgXnqg+j6NNKcYVJd1hFbbovC/OmJ8IQKS3Ow8Ne1x1C4YflnvOExyD1/rlITxznzMPDCbfUouqTYpfl4btM0ewOitPfD+AWjOV4lCsZV6qx828foLYPgnUEtF4Kg1sw8hYyJQNWVO9+G7tPUCSRgUhnvRHEOiFQmbttBLIGT09wC8NyvuAfX1a+D1bx7uvfH+AEaMFQQ81X+GyT1xBmL1CM2Oi2X3Gm9QWqCD1MM3KQ93QestyX+eSrWq5chSVzk52KAoevjjolG3m/Z1qu+7LaxjnCb+XMiHfNo1JDb5yKrF8vRnYQViwlbhd21P57I178yzq8+EbfKBe9wX7iA2xYx65t3UZSLgiCGFAEpmDEjhaWiHYueMZUjsHiinu37MGtJPmKhULjwLe/rsdm8ylY+aI76hhkPpINg3gYQ4P0xx5DejTbvdaCsl0b8ZKQ72Vs2FWOZr4YV0Q8chbPgV44nqNH1sOZMPBLbzsF85b1eIVX9jzfy+uR/48DqL5wA9+KBws0m6XGqnMrZLoth6/OqUxnG1kvCIIgiO8pgQ2RjM/Bs4unorXoVWz+QlQoRHNdsJYs72HJcXb+Nez8WtY7rdj2KgobWNo4lvZrltbRhL2vb0GJuweRNgPLnp4HY5gDNbtfRkEVSxs1D6tXZDBlqR1l76yHOaAVH/tuuXaxTKVru5WMnIcewJQxGqi4WmhrQcUnBSg85hy+EZHLTjLphccgfeECzEvQC/kctiZUfLgT5joPgbGiEpGVk4X0OD3U3JjDA2mdq8bejwqZoiUe0gX3PAy+kmjF50UoqmiBV5fFKBMy75+H9Ikx0PJ1TBje8rnIVrMOiQ8uwENpRmj5+fhqmp/swvYyi3iwhGw+dqU7M6ez3MzrtuGkMRPz52fANFwtltulRhQX7kDxafnK5OfuAz4une1tyXAnKhhm5CDnPvfhvzJ8tLcYTW4y71JujulYuGAWEkeK8iPIwX8+gLnWXX4CIcQyx/FDfgQ8nMd++Ryqij+G+Zir7HACkTkZXeIc5PwoHWMk2RHO1aESz9urIZJeyJyAf/LTG1Qx0zH/Yae8CWXgYGXAn5WnIZJwHRJmZmJWSiJilOXGnlHZJx9iv0JOfR+m9lAn+3EeAXmIRLjmIoCXXyYrPy4ILJ+18TMU7ixGo/vQe5gaxpQszJo5CWOiNc66sa0FtZ/vwZ5SL3Ujf3d+Oh+ZSrlmdX1taRH2fd4odq670PW5Cqs/f1GIPcVNwVnNOUD8mEWShKQFjyH3wdmYnWJgtwREjr8Ps+ew72ybKCzZrkbsNPF777yltUjImIZYNRORukM45j5Yd3koEuZMZIqBCvYz4t8T5y1E2sgw2Cr2YFeVh0rzZhOsuplIMYRD990FFJ9sBTTjMTN9DLvqDlyu+wI1LMl/DEgRrsWO80dLUX9VSg4ChhReruG4+a0Gs3Puh0kXjrAfSH8M18IwKQWx1qOoalGKqrPs2po7cM9vfoH0mIjOfGHhkYhNmoQhp0rRoLxW4zys/O2DmDQiQnzpOD8IQ3iUAZOnpSCiwcO9GdnL99t5mKjMwwiL0CE2cTzU9Z7LQzNlEVb9ei4mxmjl1f8FxHwjYHXz1hbLQY1rLWcxZsFyPJAQiXD5fIMiMGLClC7lIOaRvnRiRZ1XT3Bnud0YOhEP/jQVoyJUznIbqoPp7imKcpOfuw9crnN9F0anYPbErjk9yrpMmBFZT+RhQVostEMUhT0oHNpRJqSlJSLs9BE0KspbLrfv1DHI+vE9GDPMKT+CHCQnI/LcYdRdFtMCJ4Qyx/BXfsTjZyPB7TwqfvykdEwbeQnHT17ELelPnEBkjltRUx/7A5bMHg+dQnaEc8l53WXBL3ohcwHIT6AY563A7xekYBRrIV3KQH5WN77BEbdZJKm5z+Dn0wyIdC839ozikmdiYsdJHDnDzdBM2hJmYpqRm517omud7M95BIYlYOa0WKhvXEaH6SHkZLDykwWB5VMPNyElaQjqShtc7sfw4xVYPnc8RrAycKkbh2gxKmEa0qMv4HP3BkfLFMjVuUiPdZNrVtePuouVZ5un+oHL3Grk8utSPNcwFZPRu1KRxtrhSiYHStkOJX4oGAkIHx0rVCI+0asXqQcFQ/GiWU4eYi+5HtPun4kxQx1o+PxDnLgoHuWOlSkUvGIP++4SjpWfhr29HVF3T2P5VBiVlITI1lNouGhn6oY/9LWCwXpEsUzAv2tH/cf/wDs7PsSnX9Shgyl8pig1RozR4MzhOtZ0yshlx5S9pAToBtnRXPYBtmzdjf/57CwikphSEqGGQS0pWZwwE3KWP4TxQwBbnRnb3tmBDz89hM+PsJcmegIS9KyBmBCFM1+y83Tau9TI+PkjSGYPwVpRgC3v74aZ5TlYXIryhksYHBkJe+PxrhVW9BwsXzJNmDlhP18J885t+Ffhvs58Q0dp0Hq0BspHKJfDiHh+7VwmzPgnv8b9x3FtTAoSWEMwYkSH+EylPM3H2bUclLZ6DVJ4JeGTgqHGKCNTXe0tKPv3u3hv117sr7yAyAlJMLByG6O/iS8rm1jvowXH5N9nW9tY8Rq5w90r73zkPDff3N+D5uOKv9chIrU7WRcxZv8aDydqWaHx69qGf+z+GJ8e+ALlX9swcnwCRmi0iDOG4QQrA7l6lMstcqQe4Ux+agr/jvx/Ke5naDiTg0s4WO3lhfGZUMkcw1/50U7HY4vvwSjWIxLO894ufFh0AAe/PImW8LGIN2oRMdKE4ZYvXOqNQGROn/UEfjUtkvVsLagu/Be2ffAhPtnH74ndQ3QSJkazi+hVvRi4zAUiPwGRtAgrHoyDqsOOxs8KsH3Hv8V64csjODUoAWljWGF6UDAMTEY0Z0rwnz0fwGz+hF2bKAsO4yRWz6mgNQ5Dy2cnwKXHxjounffZ+W5z69lG/EtZBge71sf+nEdAVjDUoxDLnp/9fDl2v/c+dn98AMdaojBxsgHqiDGIuVmKinNOZVNrmoq467X4dM9ufPjxXkEOBJnTJCDZoIZq1CiEVZaj8YaUgWF68JesYx7OOs0H8D6XNS6nB9kzqj2HG0MMGNxajho30dHcuxi/mTFCeq5SfcXehRMXh2DM+FjoRk5E3K0j7Npuj4qh0K16wgbzG6JvQX4pb864+Un2NyhADTcR3azFzlD4H0yZgDH8s6MJX9fxnRhEC2q9DVc8Wy1FWlrFhnjIUCaQQgL2vluIev5GhemFlUH/9Mc85GZPhU8KcqjoYGW9ZT22lzbBzrWfmy0oft8slrl2HCZ5dUIVFyHLN9fCKjyfRpg/Fz1GVIaxnb4o6plZovNrUxH+vqMcTVKNyU3bZTv+jv3cxKhNRvokMV0kCsOFWT52NNXWwiLXsqxiaT/LKv5t28R8biT/6B7omdQ5Gs148+1CVMgnk/IVvv0BqsWUrrB8li+2YIN8jbxc9lWLz1Q/Gu4+vwFjZ5XVm/kwn7CKZswrtSjcXgxBtMYkYJIfb01QUGfgwWlcwNtRsYtfl0WUA3Z17WfLsf3tIjTx76PScM84nu6GJD8FFYr7keQAMWOZihxM+lLm/JcfU9YsmLipWT6PTWoE7BbUmvNZmXADshqTZmRIdYIbPstcIrIy+N3ZUbP7LeyuaEK7ZDbnJu7mK9J13g56Kz8+o0PWrEShHC2fvYut+0456wV7O5os3sdgKnZsxObCYtS3tEvXJspC8fv7RR+38BjEjRKSe0VvzmNvKGQyZ0btJVGGrLWF2P652OAY412nmDcX5WPTDjMqzlo75UCQOabYlLXxL3oY3MpaF6URPq2njjrllD+jllMo5jJ1TErqxIS593AJlJ+r9H6zd8Fywoz8f1cLyq8xJd03q1cfEFBVGR3FL9fBZUZErcMw/hLbrE7Nry9Q65GQmYs1DycKQzS2Y/tRIgiwSjJDWXGxu3FbT9gqsf21jcLLYOVPRxuDhBk5WPbcWqxePAeJHqbKhhpreUFX/5COUzgr9Lh00HuZBt98wMMKp7KSNYiVmZAAxI8Tq8nGYyUexuvaUd/Ec6hgiFOeqAVfCzWuGskPr8DCGUZopDFD7yRi8l38rO2oOlju4VzdY6/ajk1FbgVx/hvxfsIGYbCQ0Hsai7ahwr0ubD2Nc4IiqoMhuC1yz0y8C6xzya7hKA5zfyN3bCU4LsTA02DMXV2rEtsR1ltzlx9ZDoJM38qcv/Kjx4RxvNJ2oOZLT+dh5z9SI/akmfLjqW31WeaMd2EMl/9rtSg7ISb1G3opPz4TFo8xQuPchKOHu+vp+UGH3NAK4tN39HieRhSxTrO7DFlOs04f34ke7aOizs4jWeQ6h4wkzjWJZWaY8ySWzE2EvqdO7qgEmLiS3laDo56ea93XorV21Bjf/Hb6gAAUDB1GCjJog1WekRo9nPVnGdaLYi8viJhy1uKFP0vbcyuQOzceWnbV9joztnwo9cI6YZV/IFNKWa+ksXg7Nvzvl7HhHwdYr0isenXjM/Ho6hV4IGhd42Bixw3JvKYVFL6u8CGgLpw3YwO3MHU6WekRK3UrTQ8pylqxeXOoqt29HcXn2evFFL/k7KX443PPY81vc5GdaoTak2SNYr1lQQm5iHOnhRS/sF/31AOqxFbBatbXc9SvwyFYGbXQ9qIODgTdCEnLvWL1+n6duyjKrEo9RPhU4vjOWXn2NX0qc37LTzSieAXM6irbJSGhK03fiGUaPgRDhQRXfJa5UdFMMhgXvhF7wv2I3sqPzxhGij3ltmacE1pdP+DxizIXIO/pZ/CntUpZ8NGp1VeCfR4762jzz6FasQ3shCnHqdlY8jv383iO78Sx7N+K3SfY+xOmYde4CCtZJ/dPv1uKnMx46Dx13gx6sbwjp2NZ5+8rtyCXXQD4rGAMm5AhXfQqZApaqgk58o08MV18ucbnSMcs7puoakzL5MuD739vI17ZUa7wqG2GRVB21Dx8hXdio8UHYrvspffmgPVUMQrf2SjETKjhpqwwPTJcpsP2P2w2z3fjG4MwyE2T9pmOJux/+1VseI8rZRZWeipoY+KRPn8pnv3jYmS4mxpVfdkFCRU3YOvbUC9dUA2IclMSoMz5XQ6q0IucoifcXwi5/LAeunJqf4+EGZH9lBy/SJrZ0Rf05XnsTImVdgXHy8VPI2/+dJii/TlPO6p3rcdLfytEWV0L+CiJKtqI1Lm5WM061zkTxSGUTgKuuENHXz3KoOESB2Pdy1j/tw9cImuKtKBZGJtRwzTRe9jc5PGC5was5xtFrbM7rlSjYE+leFzUOEzyonXePmJg4DE/+FBVr7yy5LJzK2sPm7dogdbTXCl7Cy+x58MtQPVcMYsw4YH5maJCJyOblpk6qut35dkDYQboh/Gd67wuCSmWVknetTrX8lQwRjQr9nmgu+AQoMz5LT8WWAUnv26sTsbRol/ItSteOh0+8q3UpOpGir/nhnbo7XPqCpn8OCTlapgOQtXkhkbjyUbEau2ZDyB9BNvpaEe9eQtee1kpA3Kcod7TJ+eJkTqt9uvO4ZNxc5E1nj9vO5pLC7Dpr8rz5KOshyJ2tFTCvCMf6//3OrzyTiEquJWY+wg+/AASpGME5KFHPoW28/c9bX1t3fWOzwrG1a9KxItdZxYfxIVi0ezJNtHpk1UWH92+G6o5JY6T6qbOQ7pgTnHDmI25E7gmb0FVqb9e3Ew7DeLskKAwfoao9HScQ32NmBQojdLY35gJycJn4IgWoO0F5dK49hg3x8vTOCf4yLCXZfbtNt75hyYjDSb+tlw5jRoPFcQtqW5VD/ZcifaKhnOiaXvUFAg+Xe5Ez0F6HN+x4Os6f23Tt4fAZM5f+eF+QvzBqJAwfTrrV3Yl8Z5kwfrqOPt17xqy09JQy4gxiHfTJTRpi7FgSvAVDJ9lLlTyc+GsuBRDmBF3ucegYfXvsjmeO3+yPw7OHBIc2TudIjnhqu59q2Slhh01pIci7tV5PKJBRpooh5Y6yfGXoZ8wTrTot1XjI7PCAZ4TNhQqeXqsD9ibKlG4WXJAVbNyVVqFz38tljfvAHvS6PoB/lsw5HE2m7WzQKM0YovuUD6wEGP/cr/omMfDhS/PRfpYDatWGGFq6JOykfer6eLUthP7sV/2RE1ZhNWLs5EeHwONUjh5aPH4OViycKroWX6mHlWdwzGhRx1lEAO7cOT7eYQHGuMOoEWo6OW1WcsqBC9yVeICrHksEwkxUtkxVILTazaWrFoE16YgGYtWLUa2EGJdUXhqPRKnxYsvmOUbuLrHWXG4UkzRpi7Gan6uaDmvCpqxU5GzfIHbeUKPVm90ygOTBeOMXDx5P6+cHGg8tN/jNNemFrHBVKf8FDlJes8+KIFypQRHBSc8HdJ/lYfszt9XQcfldGmmMLPCXleMw33qZR08ApM5/+WntqxaUHZVpmw8+dh0GOX3iFXWqQtX4NEklr/DivJir3OXfONKtRRHx4hZ7LqEWWjhOiRm5+Gpn5ig7oP6w2eZC5n81OLk17zBVyP1oRwkjmBlzQNOsfdn9VK+nodnrG1S399wNzJj5OcjOvSvfi67+9lhslIjl7v8fD3Qq/OwGm0MbyckXwiV1oj0x54U/fPsp3DoC/FZcCxW2WIUj7RE6a55PZKag7w/LkZqpJjkSgyyfpOHhXMTYYxyvgtCvvvuFofob7bgjMskBu5QzO9Jj8wn8pCTqqi3WLlrxiYia2Eels31btXva/yP5JmSixcejoe9Yhte2SPq/OmPr0W2iU9bDVYkyx4ieXqDB+5ZmiG8LJ6wny/GPzcfEKdkcbxEVHTh2ikUvrW966yCTvo6kqf0xQP2M0XY8n4JLC6VV2Blx3tZT7GykOWzK+5RMHuIKihMjWTl4eaAz7X+5EeexMIkT/1JTtdom3I5+L6ok28RD11/z1lu3rBWbMfmPac8z15QJyP39wuQ4KkA3aIq9vRcBdyjHWqnIndFDhIipO/utJZg8yZpuqFEt+XmEqHQLaqi34RK5jj+yw8P/LTsXk8DF4wOcVqt+8wX/2WOkbQIzz6S2PV+eB2yx4pMpuDoehXJ0w0/ZC4Q+QmI6DlYuVJUWFzosKBkSxlinsiGyV3mYudh9bIMcVVhd1g9Yr2mg07rvX41zFuFvHs9qS9ueQI5T+diZ15g+Sp2bkGhMkptd8+FyZvVxhS7SJXbu9JT/WNnx29ix7vVPoJfyVJx6McLfslwkPHSFHeDFGLMuQ5JDPTD+acVlt7VUr2nqQibNmzD/qoW2BTWFEdrEyrM+Vj/tkK54FTuYg1GOaqbLLArrS8dDth5nn3bsOG17pSLEKG8ZuHaGlG2h93Pu+7KReC0H92G9dy5qIGVhWx1ZDjsPJRwOQrf2eVW0VeiUHLudCk7Hnq46gC2bvCkXHBER6YN/xLnojvk65fuq/hfH7qd5zbgVt6yY/EGb8oFx16N7X8rQLFb+QUNPp36/+TD7C7bthZUczkNRuMQYvyXOY7/8tNU9JZwfGOr3eV4SwM7R/7rXafVBsqJArypjLXBz1FnRv7/6aM6xB+ZC5X8tB7Apr+bUd/qLAPbmXLs3PAW9grDVR44z+rtrQfY81H8XahHzNj86kYU9xB6oJk933xzNZrbeiiEQM7TfBiF5nIxboaXes5FueAIz+UDVCjlk6/O3VCMnW++joJaT8LQgqIdknOn68sgyunfXu+qXHA6mmB+k4dZcLt/4X3gbdh2bP309igXnACXaydCQUC9KCJAArSaEQRBEB7x34JBEARBEATRA6RgEARBEAQRdEjBIAiCIAgi6JCCQRAEQRBE0CEnT4IgCIIggg5ZMAiCIAiCCDqkYBAEQRAEEXRIwSAIgiAIIuiQgkEQBEEQRNAZFBUV9d/SfrfExcXhzBlhxRxGIhY9vxI/N7Xh4HEpwiRf1+PJnyElog5f1nsKvRtIHpbrkefx1CIT2g4el2LX83Um8vCzVA3qSuoVa/A7CVUeXdYKPPv4PYioL0W9sNoqjwa5BrkPxil+x5VQ5UHUHKz8X0twj6JsDdmrsOaXDyLu6iEc85QpVHlCJj8kc5wBJ3MkPwIkPwySOYFAZCEUBGjBUEMdDtjbnOtWG2LE5WDar3hb7D6QPMBQtQq4dgXyyq2IHS2t5nrZmeZGqPKoeR604/Il8Tu7I+j5YjXK33EjVHmgGSqsyKcsW0M0vyM7rN6KO1R5QiY/JHOcASdzJD8CJD8MkjmBQGQhFASmYEgXb+9c8IwVy2Bx6bhbduXi9woCycO0XgNf5/6Wgz16CVaQQq4bdmeaC6HKIwvlLX6IiFqNwfxT+TtuhCoPYqKF8naWrRpDhvBPO18/xzOhyhMq+SGZExhwMkfywyD5ESCZYwQmC6EgMAVDunilRqWL5ClWWCSrThcCyQOmaXKpVGphUVHC71hbPdqxGKHKIwmlUmscMRzCItKt33g2AYYsD8ul5jek1MijMFzLP61o9rKkfKjyhEx+SOYYA0/mSH44JD8ckjlOILIQGvwItJUN7bTp3axX70ZDIV7c1ozu17h3Q8hTKYyH5c3gepwvNKLwL9vQHKI8FXw8LMckpfWEFWVvb4Q5JkR5zvNxtxz4nEtYpdUQojwIQBYCkR+SuYEpcyQ/JD+9kR+SOUEWpG+hgmaREARBEAQRdAIKFS5qTpA0UJ7CPV8XYRJqsfPlAvZ/VwLJg9hsrF4+HRC0SdE+xL1lH00Cana9jIITQpIrocojeOkyjVjSJjncc3r1LD0shzZi0/5OY5WCUOUBUhevRc54hdbKPaf/kAn9hWJseOsA6z90JVR5QiU/JHOcgSdzJD8Mkh8BkjlGQLIQGgKyYERHcbOMA3Z5xoxah2Hh7NNmRauY0oVA8kCvExxeHPYb4neooYvi/r82XLGIKV0IVZ5RI6U8Thca3TBhIA/WS55foJDlgR4jeaabN9DpKhQ9DOIwo8XjCxS6PKGTH5I5xoCTOZIfAZIfBsmcQCCyECICUDB04gNiF9/pJBM9HMLwkfUiPN9PIHlYrhHioJTtivzYozF8GP+04uIFIaELocrDHyoXSlu7UyT1OtEZh8mpZ0KVh11/FM90nQmYmACwexRyeZW4UOUJlfyQzAkMOJkj+eGQ/HBI5jgByUKI8HmI5KFlz2D6GP4YfEE0PwXkkCSZe3zOVbgOW1tClOeoZPqT0noitA5JLZLpT0rsiSvlyH/DDEOI8iAAWQiZExzJXL+XOZIfkh+qszi9kLmj0pcQQk6eBEEQBEEEHf+dPMOmY8nabJgUDjGiY4oOjR8xLalMPN6FQPIw0h9fi2yTBcVvvIX93GQka22NZrz4frl4kBuhymN8aA2WpQ9RONFIPYW2cmx+3Ywm4ShXQpUHxmyseWI61CcK8NIu0S1I7Cm0o+yd9TB7PFGI8oRKfkjmBAaczJH8CJD8MEjmBAKRhVDhvwXDIDrwcKcTXgCcKA0f1AIcN4WPrgSSBzHQD+efivEonVYY28NNp/OQK6HKA4wcwcPG2PgtiUSJ445wOCC72rgTqjwYFS0c4xwD1fFbYtzCt7eEhK6EKk+o5IdkTmDAyRzJD4PkR4BkjhGYLIQK/xUMPXsg7EMZK31YBPdYZYXizQslkDzQQ8cdVZTR4CKGCDHkvTvjhC6P6IyjiLWvHSo4Cnl3xglVHpZLCNOrjAangVrM5NXpJ1R5QiY/JHOMgSdzJD8ckh8OyRwnEFkIHf4rGOGDhA97Z6x0WYOywuItKmkgecLUUPGrU8RXN7AHwLF6i5kaqjwYgkH8CTKttzPWvqwZX/L2UEOVh+UazOPGslyd08T00Eeyj7ZWXBQTuhCqPCGTH5I5xsCTOZIfBsmPAMkcIyBZCB0BBdoiCIIgCILoDq77EARBEARBBBVSMAiCIAiCCDqkYBAEQRAEEXRIwSAIgiAIIuiQgkEQBEEQRNAhBYMgCIIgiKBDCgZBEARBEEGH4mAMaGKQuXwJsmLVsJ8/gK1vF8NbvJZQIcb9l750Iq0QKH0jCIIg7nzIgjGQiU1DKlMuOOrYqWxf2CX6Cbq0HCz73fNYmR0jpRAEQQwcArRgJGLR84sw6VwhXtxWKSalLcYLOabOdf57Q0zaQ5g2WvrSA7a6QzhUb5O+McKGINKYgOTxoxGpGSxoUB03bWj7ph4VJ7/B9Q7xMIGYaXhoetfKvePGDdjavkFDTS2+uarMoCQMQ2PGY3JCHEYOG4IwfiLHDbRdbEDNiUa0el3VJ5T0PwuGC/Kqf99TC4ZszQnGO0MQBNHfCNCCoYY6HC6LshhixPjnzkVkbgNhkUi4Nws/vDsOOkm5EJLDtdCNS0XW3FTECHHyuydsCFNSRpqQOuvHuH/qaAxxLyWmxIyemoWs6RMQEyUpFxwVyzd6MmbO/SES+AI0t50WFL/9Kl78yzq80t+UC4IgCGJAE5iCETtaXPWtc1EWpnIMFk3xzkVkAqfl6Ef46D+K7cBXEG0ULTiiTGeb03qhwui0mZgQxW7pRiu++vJTfCwc8zE+/fIr0aIwZDSmzYjDEDGDk2+OOH/T/DH2HvgCx8/awG0XQ4ypmJUcLR4noU2YiVQj+5UOG85VHsLHZjHvx4cqcK6d5WKKzoSMuxEdWOkSBEEQxB1PYEMk43Pw7OKpaC16FZu/EBUK0dxrRdnbG2E+LyQFD00CZs2ZAK2gYBxh/3sgcjKyMk0Y2nERx4vKcM4hpcuoxiB93t0YGXYL50qLcJwvnScPkXAF42jXX9Um/BCzJgpL7eHkp5+hkd+qajT7nVT2O9fR+Pl+nOxcI1ciTIfJc+6FaSjLdfJTfPa1h7GS2Ezk/XIODDiFwre2o0IxwtN7YpD9hzykR0lfZa6UI/8Nc1crhjxM0VCIF/frsOwXmTBq+dBTIf6+oxK6rDz88ocxUKMd9f/5O7YfbRfzSUNitrItWP/xDST/JAcPJBuhDWd/62hHc+VeFPynGlZvI0wcf4ZIwmOQ/tP5yJwYI53DAfvl0zi8Zw+Kz0rXJDAVS/6cAxO/33fO4t7f5CB5hAqOCyV4/+9FsCYtwLKHk9k5HbCUbMWmoiYpn4wKhhk5yLkvEYZI0dzlsFvQ+EUh9hQ3sVJQIpe1eP1fTZyDhfPugSlaytd6CkW7ClDWIgujdG3St27hz0MefiQIgrgDGRQVFfXf0n63xMUlIWnBY8h9cDZmpxiE9eYjx9+H2XPYd7ZNFJaVVSN2mvh99tg2HDwepHHl8BEYZ4pGOKvev/nqG7dKXiR6YipMUYNw/esKHLvgoVHvaMO1wXEYOzycKSGX0XDhOtMgRmNCLG9Nv0F9c9dfvWm1Y+i4WEQOGoLB187i3JVvMWTs3ZgSowYuVKOkwYYu2tl3dlz6VoeEGA2GqK7h7Lkr+Fb6k0zig79ERmwYMHgExkddQPHJVukvwUCLhIxpkHw7ndz4BkdK6iVLkIJhCZg5LRbqK9cROWMmJvJ1lRnh0aMwuGMcfjRnHNQ/YAk/CMcI03C0fHYCwtWOTsHsiTqE3/wWEZnz8aPxkfJqw8Kx2tGTkGK4hCPVF1lT7gX53LCi7uBx70M42qnI/V0uZjLNx3mOMKgiRsCUmoq4q8dwrPmW9AcDUuZMhO7GZYRNmI2UGNGMFKYZg2EsT8YD6RjBk9h+xNgxCKssR2OnuGiQ+thq5GbEQqsYFwtTRWDEXalIYzJdyWRaPpOyrMOjp2Lu/UnQRyjysetLSLsLN45WoOkmT5GuTfhrD1yuC977QxAEcRvwQ8FIQPjo2K4NlzeCWUH2qGAMhXFiPKKH3ELLVydx4ZqU7IZ90HBBoRjUYRUb/h4UDHx3Dd8Nm4DYSKY6fXtZOGaE6W7hu7XxBM4yhcMT330bgdH8elU3cbHhApwDSSL6pEwkjxQboo6LJ4KsYLSjvuQQDh6UtqtxgiLQo4IRaYBhcBP2/583cVR3DybrIxA7Tg+cNuP/vlWDUfexhlGlwvX6UtRfZfkkBQM6JhNDucXDjG3v7MCHn36Buo67kHRXJNTRYxFx+jDqvLnl+KRgaJCx5NeYEc2e3/ly7H7vfez++AAOfnkSLeFjEW/UQZ8wtmsjHj4Khqh2VO94Df/POgnpcUxJGBuHiKuV2Pp6IW7ezRWDCFb+h5hyIpwImnsX4zczRrATtaDs3+/ivV17sb+4FCcuDsGY8bHQjZyIuFtHUHFOVjFkBUMN3SgtVCxf8Y638N6/9+Hz2u9wV7IJkYMjEY2T+LKBC2ULjsnPhW1tY0XFnDt5vvLOR85nxjdSLgiCuMNxdrd6xAbzG+sEh8H8Uj4uwIdDxO8v/qUANbxyv1mLncJ3toXUvKuFVuh5X8d199Zcia1NbGDDwzFYSOiZ6+1Sk6wZxtSYoYiSnDevX+9mmkj7VVEJGjxYsPS4U/vFZ2jm7c21UzB/XCsm3m6YJFjLP0LxFQda26R7DrPg8H/KYb3ZDAtXKrxgLd2C9TvK0SSMljnQXLwFH9Vyu4UGpsm9nII5bi7uNbJPWyUKNptRe0myh9gtqDXn44MqdtIwI9LS3ewC7H4cDfvwUZ0DFqt8Pw7UfFqIxpstaO6i05kw9x5+onZU7MqH+YRVtLx02GE5YUb+v6vBb8+Yku7ZAmFvROGb+djfIA4ZOlqK8dFxcfxMF8N/lyAI4vuFHwqGk+goXsU6YJc7/WodhvFxcZtVNJ+HnDBpJsd1XPVgiAgKg/g/4T+GDbbenOd8MfJfZUrYq8H2v+gNTSjd79prdtQWY39PD/RKOQrM7n4MwKmz4m/pog3CZ6DoJ4xj6iMr8ZqjaPTgz1HfKJof9MZxwqcTO6q+qBSUgk5aD2N/lbTvzqgEmPiJ2mpwtEFMcqHua9HCMmqMRx+Kxn3bujzL5hZ3Bx2CIIjvDwEoGDqMFLpwNlhl03f0cAg+hdaLsAgJtwsNhmmk3WBzzQ7nyIsWkZKvwsDhFm64tMbsCbcF/jTtdmkYQavzzefACzHRYm5t+lK88Oe1Xbccby6Tdjjc7gdXrN7l06AXrzNyOpZ5Ok9PzpmeR8sIgiC+t/isYAybkCFVtKuQOYqnmJAjV75PTBd6mXx2iXjMYqTy7yGjHW3imAQflfBOVKR4nS7KQvcMixI1iVv26+hgStXVNuErwsK7KbphkeBzT8DydDOQ8v3gGlNEpd1AGOxD3JKgMEj2HiUIgiCCQUBDJP0PueEfAr3eu2lhZPQI4dN22SrEuOgR1WgYR4q7ly6IYwXtV0U7+Ei99AcPDNGPwlC+c/lSrxrXOxk58JqDKRi9oblVLEHuCCn6+3jZeuvz09IqPis+vdXT73dutGYKQRCEL/isYFz9qkSsYNeZ0cgTLhRjg1Tpik6fQONHt68SvniBB7YAtHdNxGhPvd5hCZho5OaNNpw950Ojx6N13p0MYbLHzXM4Lf48bBcs4qyQ0RMxwVO0TlUMkuO5/eIWzp3zMhOAx8F4Zi1eeCYXqQNuqIURZkL6ZFHBONfQOyfW5jMtgrOlbvwk6MWkvuH812jmjspR4zDJNa5an3FL8ldVDxbUUYIgiAGF/xYMw0hxrNpm7eydR2nEVtIhTBO8PXR8U49G3vIPjkHqD1MxOlIl3lxYGIbqEzAzYwIiWcKtszViwCxvqFQYqhuDu2dlIXU0V0huoeX4SbTKJo+2r1AvKBt8iuJMJOiHSg6mYVBFjmbnnoYY7vB6uQ51klLiTuK9P4Qhgu1ExCP7x4li4p3KYB0MMZrO2TLq6ERkL3tEVJyulKPoqJgeMDVlqOL6YHQmli7PQepYDdSy1Ko1MCbNwcLfLkVWrxdyq0XZCT7OpkfmE3nISTVCI0/JDlNDMzYRWQvzsGxu8BYma2oRPULUKT9FTpLeeV8EQRADAP8jeabk4oWH42Gv2IZX9gi2DKQ/vhbZpj6K4snxJZInZ1gCfvhDUZHwxK3WahwuPQObrCx4Weyskw4bzhz5EtXugbtUTImZMw2ju8Qcl2g/h7LPjuOi1EN1J/GR5/FoktgkO04U4KVdQZyq2hkds3saC9dhK2/8PUTTNGSvQt4MnWIRLjlipeIZS5E8vWJvwt53t6DkgvRdwLdIll0W/zKya1zKrtFrA6yUPfkcHq5VER1TXmissxw4YUZkP7UU6eJImkdcr80ZNdXld2Q8nNcFdTJyf78ACZ5iy1AkT4Ig7nD87zNJoRSd65DEQC9E8bTC4jUUY4i4Wo/P9n2G46etsN2UtYgO3LpyEY2V+/FpiUK58EbHLdzgxx//Ap/+z6GuygXH0YKKfftxpK4FbTecP9hx3YpvTn6JTw95Vy44/TIORqC4lacQVru0EPmvuysXvaDJjA0btmF/VQt7rlIa56YdlqZK7P/HNhQFQ7HtaIL5zY3Yuq8azW2KB8jDkrc2sWe+HVs/9are+o+9Gtv/VoDiBgvs3cgLQRDEnUiAy7UT33vk3rm3NU4IgiCI7zU06ksQBEEQRNAhBYMgCIIgiKBDCgZBEARBEEGHFAyCIAiCIIIOOXkSBEEQBBF0yIJBEARBEETQIQWDIAiCIIigQwoGQRAEQRBBhxQMgiAIgiCCDikYBEEQBEEEHVIwCIIgCIIIOqRgEARBEAQRdEjBIAiCIAgi6JCCQRAEQRBE0CEFgyAIgiCIoEMKBkEQBEEQQYcUDIIgCIIggg4pGARBEARBBB1SMAiCIAiCCDqkYBAEQRAEEXRIwSAIgiAIIsgA/z/uzskV5KWfIgAAAABJRU5ErkJggg==;" vertex="1" parent="1">
          <mxGeometry x="-1356.1" y="846" width="327.36" height="179.56" as="geometry" />
        </mxCell>
        <mxCell id="qdkJfRviQrZeMFLgg1Ej-75" style="edgeStyle=none;curved=1;rounded=0;orthogonalLoop=1;jettySize=auto;html=1;fontSize=12;startSize=8;endSize=8;" edge="1" parent="1" source="qdkJfRviQrZeMFLgg1Ej-53" target="qdkJfRviQrZeMFLgg1Ej-67">
          <mxGeometry relative="1" as="geometry" />
        </mxCell>
        <mxCell id="qdkJfRviQrZeMFLgg1Ej-76" value="Murtatha" style="image;sketch=0;aspect=fixed;html=1;points=[];align=center;fontSize=12;image=img/lib/mscae/Person.svg;" vertex="1" parent="1">
          <mxGeometry x="-2036" y="443.99999999999955" width="25.16" height="34" as="geometry" />
        </mxCell>
        <mxCell id="qdkJfRviQrZeMFLgg1Ej-77" value="Murtatha" style="image;sketch=0;aspect=fixed;html=1;points=[];align=center;fontSize=12;image=img/lib/mscae/Person.svg;" vertex="1" parent="1">
          <mxGeometry x="-1815.1599999999999" y="537.9999999999995" width="25.16" height="34" as="geometry" />
        </mxCell>
        <mxCell id="qdkJfRviQrZeMFLgg1Ej-78" value="Shehroz" style="image;sketch=0;aspect=fixed;html=1;points=[];align=center;fontSize=12;image=img/lib/mscae/Person.svg;" vertex="1" parent="1">
          <mxGeometry x="-1365" y="654" width="25.16" height="34" as="geometry" />
        </mxCell>
        <mxCell id="qdkJfRviQrZeMFLgg1Ej-79" value="write javascript necessary" style="rounded=0;whiteSpace=wrap;html=1;fontSize=16;fontStyle=0;glass=0;fillColor=#76608a;fontColor=#ffffff;strokeColor=#432D57;" vertex="1" parent="1">
          <mxGeometry x="-1420" y="541" width="202" height="40" as="geometry" />
        </mxCell>
        <mxCell id="qdkJfRviQrZeMFLgg1Ej-80" value="Murtatha" style="image;sketch=0;aspect=fixed;html=1;points=[];align=center;fontSize=12;image=img/lib/mscae/Person.svg;" vertex="1" parent="1">
          <mxGeometry x="-1677" y="894.9999999999995" width="25.16" height="34" as="geometry" />
        </mxCell>
        <mxCell id="qdkJfRviQrZeMFLgg1Ej-81" value="" style="shape=stencil(lVjLctswDPwaXzEE+ALPafofmYnTeOraGSd9/X2heqiKkLxpbo6yKxLgAlhqF+9enx9e9jsJr2+X89f9z8Pj2/MuftqJHE7P+8vhzX7t4v0u3j2dL/svl/P30+P175eHCTn9+nb+Mb3h15XXGuUysST8vj4RquHvg89X/PFwWuIrBR7wmYIAfKQ6vl8pZoBn4jDgmSnU2wStVMYNcaLUACFScisoZbClqlTSmCKhpoAQKdeRUOGWiuVkJEShgAiRZIwhFirg2LISx4GQAikIOkcKjpD7mpuEZCu0kWDSYkCIVMagbU0FhDi/byZo3+Q2IVMZYyhCnACBqeWRULrcNwkm5jQGXVpfc5uQKY4xmFgYrSA+SzVD8Umg5Ai2SRC0qd9lSe0VBRAKtXEFlX7224Tss2Q1WEHQVsFO3pphlqxHtLFEp7aA2hjV8aC19TdslzRVHfBNYNsrJGPXm/ogSFHqTXfGm/DA/sUf8tTHgSosP83jG9g/U9IVHuw/eEkYHsUbKCePjyD/gWQsm6a9Lm7gXfeyuaUYzx6PzjcQu/MtsDvOFTXjM2WIV/V4pAf2A6SZolDRk7YVHtS8UFzvB4wPWdWLxQv0YNNmlc8I4o1+2Nh5MRoFxNnjYRf1g8D0VoF+xJsQ03NCbX2ln0YK9s9Uxv1wCO8IglcFprAgy7qhgABCP55FghrEh+rxDAQ0R7c4MCSI0P3SQkBoiIXuQhcCrbDga/R4ZCU+irdx4gomwgIzA+jOl2EDTV5ANvBQg7Dyc7bdvBbAm8dw7y/wfNkE5zxBIkYTadUilPvQuWUiXM81X4OOmIvXXLUiRoTqY6gVugieh/RMsCyhNsS9KyzsIppjsgq6MjYS1Rd+qX323/LI7iZhlxFFhEQ6prUEaKqjdnM4+/wMg07WrccVMvd+vE2oXq32REAM2eafuw0JPOlsK4wEiwoZNLuZOMdleUMFbcfkb6V4hFQhlZFgNzog7zpbppmAC8iuAXmsByspQVfx0k3iTJBu9LZtu/lAd1fpRmMbLz4EbKttaLALmTKIuK2kGmA9T0MyODzq8jaE2b8f7t9ctHg80MQ05D0edW3Du44XoEgn05EcHtnA1vw9LvSE3ZgiK5/AXSH/T0B1Oe3IOS94cZoi9t/T0Iame1J0eHQx+PD3unfx9uPfx8Gnw/F4/ba4/L//mGiPrh8i4/0f);lineShape=1;strokeColor=#FF1605;fontSize=16;" vertex="1" parent="1">
          <mxGeometry x="-1632.5991243971184" y="821.578659929879" width="163.01416549261194" height="98.69899815097642" as="geometry" />
        </mxCell>
        <mxCell id="qdkJfRviQrZeMFLgg1Ej-82" value="" style="shape=stencil(lVjbchshDP0av2oAIUDPafofmYnTeOrGGSfp5e+rrbtrI7zHk7c11gEkHd3Y8N3b88PrdpPC2/vx8H37a/f4/rzhL5uUdi/P2+Pu3b42fL/hu6fDcfvtePh4eTz9fn2YJKevH4ef0w6/T7hAtU6gFP7MCyH8W/h6Et/vXi7EI2n04mVdnCkHJz79WhMXiqkTj8Rg90JJO/FEldfFK2nuxDO1DFS1u/amqZQjkGeSXlnboQgAVKpO3UwFKGDm/G+ORWEzP1AhKTUHKJSRvwqpdAC2M+s6IGfKvQ45kAClxRjEPaBCN4gS924ToYRYUTzpSiIBrKuJWs+jorNW1wGNUn+lalcC1Gh2Qh82LVAEYdYK1d5xLRMDaqjt5wB19v11QCLt2W1bVOA4teBsPYApACtp9dFsW4QGADqzfwFUYnQlpaoeIICtBtDkAQocNwHcCY0YKB3Dkj8vEBU5Qn3I2UpUCGgDQPAJNXgACrlpv+QBij3HPACwDo6uZ63WACEOSqMrNdJBaRSjBvBmbTO9VgHFAxiZtfnUN7EPBbUpLR4g2KwpesCNCOIhghIGSB1OAJlsIl/2gIy51JoHQD/okMnanKo+EaMFpbLxCIV9z6SEekC+kcqGoL6RNqR5gOITsm9PcK93hU16K1t+ElCGzFTnnu46IFN1Wstci9fKnLggXQrf9co7OiLAqmWlmnuAraAOyJoB5whbQTWlWiXv07GtZKC0NTTZda6RClC6iC9zJcOYk+Z7aamwBlnbJ33ukwCrnDWWLuHnBJOlta7SX4mFGqC3Nce5v1JqkBo2XrjuwVaQWa3BdxNEvDlCOKVtpaAAourkA0xkdqFe5QbLg1B2tIDtVZ5ni8XHsGflmQDneSzB0bP1d+d5fLoqHnxqWcazFXHX8vDMjhVxN4kxnEmWsfcsjjKvhUbvVswzS1COyDCJDtXPLIt3dxyDlWx5EDiLByge++xpBAbZdpjJzRFQ3IX4MiatkUCdeIAk+NTbyU1x+zg/0zzt9vvTK8/l//5Zx5ZOT0J8/xc=);lineShape=1;strokeColor=#FF1605;fontSize=16;" vertex="1" parent="1">
          <mxGeometry x="-1660.8102424633498" y="845.1877522026884" width="246.91778244916532" height="103.52719715993953" as="geometry" />
        </mxCell>
        <mxCell id="qdkJfRviQrZeMFLgg1Ej-83" value="" style="shape=stencil(lVjLctswDPwaXzEk+D6n6X9kJk7jqWtnnPT194XqkWIA1jq5yTKWIBYLEOIm3b0+P7xsNxxe307H79vfu8e35036smHeHZ63p92bPG3S/SbdPR1P22+n48/D4/n3y8NkOT39OP6aVvhzxgXqcQJx+Du/4Pz/xdez+X53uDCPNJoyZ8p93TxTDcq8Uh7r5o3iUOaDBjCPgVpW9jFTiQBQiLUDCTeEdYCnRyJICQAkhK4AKREDhlKmWBQgBxhDjlSSBjRqgKU8rIeSIa2lUtUxVEk72FJNNKoGdMoF5FkSpz00SRzIQ2sUDECkAWjtTE0rr2fIUm9UtJZ6pw48jDinaRErE4OgR3HqLpQqAHSKOobRZsFfBwzqWhryJjYIGGwBfAPQLSCDxMWwFNgFoiCarrlowMXVIDqo0elvBxgY0KIDADFNIepUX/CwhsjVucCZSA7Q8Z7Y84o9sFNTxTR5AGr3E8DFkLDAU7YAZkyrA0TsobgtBRxDdbTeAHRXEDe2NByAcR7MIf0uls8U6Y2aGxZQb1S1S0RD7VVo8gWBt9SKA2B9Vy3XDxRpcTShU2ji3dE0sF4/CWhUDU0d11y2M9OoFMHhLudcMB4YNj85SYOOoQvTIIa+nJsLoMwzzvVpoM7rLQAZKIAHmTeSbuCtwBKSiSbrGOqYB7u1mYm1h8qwWeZuE1fKfMqszX3BzH0d1qgMnkbfsgQDDzLaVp2HtAx2a9Ox6d8y/qICkvG86cTJEhV2Jju7yggfQZ+pVHTrkxVQGiRAvX6DzTtapSYKgFFpJ3o3Ac6gYs7GvALNuaYd5rPro+YZMCPm2ZgnHOow5gyUIHmtxhw1oWB5F3dABbJVZw5Xz3YzSMXBjghL3lbMqzMHx5L7pg1Q8J/8fr9pLg/vVwVPu/3+fNNw+b+9WpBX52uJdP8P);lineShape=1;strokeColor=#FF1605;fontSize=16;" vertex="1" parent="1">
          <mxGeometry x="-1358.4112593696054" y="806.5864973837315" width="322.5384580650798" height="273.2729939928049" as="geometry" />
        </mxCell>
        <mxCell id="qdkJfRviQrZeMFLgg1Ej-84" value="" style="shape=stencil(rVhbbhsxDDyNfwmK1PM7be8RIE5jNI0DJ33dvtwasiNqPYaB/jmbGYlPcaSN3r093b9uN8Jv74f9t+2v3cP700Y/bUR2L0/bw+7dfm3080bvHveH7dfD/sfLw/Hv1/sFufz6vv+5rPD7yGuNallYwn+OXwJJ+/fhyxH/vHv5iK+kOuCVSgX4TDziC2kBeKXaRnuYogACU6sjIZLyZUIt3cEToVIBLlehkgeC+VyBD6VQHE2SBk0qgdJI0NjDsErIiYQHQuS+xCohVUpjGmImAT6kQHUkLF/SZUJMFMYoJcs08EEt6mEgZOmpXCcI5bFUc+2BXiVYqYU01h5OnMhEaMQgcaF4H6pSBlEK2oN4IhTYP0v1j6XRrEEBoVAe09Bid2o90aSjQdaxmkEWSNz6lRg54EvbThwJl/E82dNgVbC3JzDDnDGFMm0AHDY8ezxqBNs9enwGfWD44PEJ2s+TPehwYX8AGz5gvEtYpaYwPsnjK0ywqMeXCAtCbsPHcJs9vsGu+ZtujGeaChrna8YnaH8Sjy9w/Zg9HtezTg2M+8WP16sNKVNB444Pk8NoWNruk8MFN/DckGBqrDYkxk/rBxhQb3+9MT7WALBhfPxrFzz/BR+6fvs4MUA9KLE7oDPMrwkP15D2BeBNnTm86Q6AtxEsriO5b3lpyGenCjJlRJgEo2lONAMspm2MqWlO1MSS+5l2IkiXLpfEljsmssk5RKj9lDoRTDACH2KkNuY55V5ZlyRpHidr4i52Loled1cxkYq0islq18raoIY14a5jlFRhWC1NrpakwlpaCmEMq+DEmZ7ksTSsujJofyvm7A5sheeRXdG8pMNXxuQ3yD0I6/jib3QCNfVZL3U8bs/zcX7GM17f1R2eZ8t4kRvxzeNRwmzcZe+vQHzz9giOT/Prwyt768fnGZ/QacfTxGSoWNY2QNe4Be/fNPiKw65lKKA3jVvfTK7i7cf5geZx9/x8fN/5+H//oGOfjo9B+vkv);lineShape=1;strokeColor=#FF1605;fontSize=16;" vertex="1" parent="1">
          <mxGeometry x="-1466.6897561123478" y="841.5924395059178" width="450.1046235326321" height="197.53859928037173" as="geometry" />
        </mxCell>
        <mxCell id="qdkJfRviQrZeMFLgg1Ej-85" value="" style="shape=stencil(lVjLctswDPwaXzEg+D6n6X9kJk7jaRpnHKePvy9Ul7IBWevJTZYXJAEsgKU28e79+eFtuxF+Px7237e/do/H5038shHZvT5vD7ujPm3i/SbePe0P22+H/cfr4+n328OEnJ5+7H9OK/w+2fVOKU9Wwn9ObyJJ+/fi6wn/snu9xAs1MfhGLa3jW6Vi8SESI4NAJVqDSq2uG9RE0e6gLrSyblAKcbEuMxVeN8iVUrcG6hU4UurE1iAlqmCHFEjYGORACUQpJuJmDTRKfd1AKnUb1qJRysBAfOJKJwFOh+YTV+PgynWD7HeoGlZwJGWOi5KShdGRAgUbpZYoAGp0ym6DSgzy1nwW2rzCdepRtcXWA1VQbYmSjVDP1MH6QjFYvJY3wAfq4vEwZZSsv4EZBkjzE/0GHWzAnhKKzyBATNI9/v+OK3iXsN5G91jDW0L0ShmvXy1eUw7x0jyecXxcgjMlQGiN/wIfcIKLx6N4KoGW66M2tMhXHh6t4HP38RFwfqFaPL6D+Mgov4v8VtBRZPT9C/5k1EUpLQoSn9+NJsVXEJ/FsJzqC3VE3xBv4HnRsPQ8kJ9xUY8C5hhTiIt4wvN4PuvYA/2HF/1H+QD4yX7CTHyD509LPsP4fA6vfEsWry0e1KNWn81X03giLTT+nfH6Bpynje5xMVAF8HNm18XERgMyCAWb4IoLLKSF6tAYoAqoQ4nNBgGmWGumWh9UQMKcVe9DCVB1xOjHdp7zeF0WsG/TqWFBqlPO8kIVJxISufhGqooTycWSBy9nFV7HEtdlexyDfTZgWJqNqTnxkWBvVyo360NgKBe1tlx3yVANaa9yaoUh9fp8VTrj0XCdtEzzeJA0xTse3fC3j1o/4wWfp/r1E7or9kGZMx4162kWWfw8rq6XMi/kWYBqcdrAtl+5FVB3aRIopyeHg8OjGlB88ZdvxvjPXdZv4vXh/GXgaffycvqwcPm//5Kgr05fIeL9Xw==);lineShape=1;strokeColor=#FF1605;fontSize=16;" vertex="1" parent="1">
          <mxGeometry x="-2000.4771849888584" y="411.4825732429649" width="182.99030802088396" height="102.55164004561323" as="geometry" />
        </mxCell>
        <mxCell id="qdkJfRviQrZeMFLgg1Ej-86" value="" style="shape=stencil(rVjbbtswDP2avBIidaH03HX/UaDpGixLirS7/f3oBXIiOj7BgL05Co95PSTlTXx4f316224kvH+cjl+3P3fPH6+b+Gkjsju8bk+7D3vaxMdNfHg5nrZfTsfvh+fz77enSXJ6+nb8Mb3h1xnHVNIEkvD7fBAo5r8Hn8/i+93hSjyTtEE8U4rr4pVCHcQraVsXZ6Y0WsNCFZjDmQqPAKUIDDL3yuiACEkCgEJJRgDWEIVyGAB2UhDAYhJHgIUtrANSojZqSJEiAORATUdApVIBoJCWMc0R5qEIpdGk3CgyACjpmLiSqAKTVEhHDRoogVpS7ZU5AzLMQ2Vqo9PVNCgAFOIxrNV8QBoaNUeHShlEqUWf6SYUgElNKYzV2hIJ0tBIHCBTBGE1QE4eoMBpA+jIuFZICgS07AENUJRD6HyZEdqrZVWFc6JSAvU9OTHWhp0wjqvrAnZSBAK4ekBDca1UZQFAmTMXFxoq8qHeMCkhgHoGTUZiQF3kgVHitBPsKtMR1MZkkgOUPjJWnXaAfDesCwZlZFJd1JJR7k5p8AKAKZcWHM2Y1Co+SrDPWKmxBygI622O3qGcG1oWOMGk9rVRu5VrgLLgaAIzaGqWzQPQWJwMcPvMJQ5riLxQ0f4roPT+fh1XPITcmJs6PpqLy5kivZPcBlg5u0GK27GNakdSm7yoXrX4KKkZCSik7DuTYg2lUB01FDzbC/dtZAYIbDS2lIXRpKyQ1bb2yThIs8BtPc27wrwn2j4BNEyL6pjpxLDhR/bLQLT9GiwDdr9w+7q9AnUBbj4PtsGjSc3Jr992J0J84NBrcya19T7Q8C2GowK71CD+JGJH0H5wUzz4TSPBC03oV4U5oD1gK+KcnHiCb3c1KnCJWQwFoQgaRfDlxnDfDn2XuIijO0nocbtchSt01d0vAuxZdvHMThz1xOA3/9n320VJ7N+Oxgz3Pe7KGFTy//aR4K64PVy+R7zs9vvz54zr//33Czs6f/uIj38A);lineShape=1;strokeColor=#FF1605;fontSize=16;" vertex="1" parent="1">
          <mxGeometry x="-1994.7889455218656" y="422.71557248772706" width="167.7618042652466" height="77.78992299345646" as="geometry" />
        </mxCell>
        <mxCell id="qdkJfRviQrZeMFLgg1Ej-87" style="edgeStyle=none;curved=1;rounded=0;orthogonalLoop=1;jettySize=auto;html=1;fontSize=12;startSize=8;endSize=8;" edge="1" parent="1" source="qdkJfRviQrZeMFLgg1Ej-92" target="qdkJfRviQrZeMFLgg1Ej-94">
          <mxGeometry relative="1" as="geometry" />
        </mxCell>
        <mxCell id="qdkJfRviQrZeMFLgg1Ej-88" style="edgeStyle=none;curved=1;rounded=0;orthogonalLoop=1;jettySize=auto;html=1;fontSize=12;startSize=8;endSize=8;" edge="1" parent="1" source="qdkJfRviQrZeMFLgg1Ej-92" target="qdkJfRviQrZeMFLgg1Ej-96">
          <mxGeometry relative="1" as="geometry" />
        </mxCell>
        <mxCell id="qdkJfRviQrZeMFLgg1Ej-89" style="edgeStyle=none;curved=1;rounded=0;orthogonalLoop=1;jettySize=auto;html=1;fontSize=12;startSize=8;endSize=8;" edge="1" parent="1" source="qdkJfRviQrZeMFLgg1Ej-92" target="qdkJfRviQrZeMFLgg1Ej-95">
          <mxGeometry relative="1" as="geometry" />
        </mxCell>
        <mxCell id="qdkJfRviQrZeMFLgg1Ej-90" style="edgeStyle=none;curved=1;rounded=0;orthogonalLoop=1;jettySize=auto;html=1;fontSize=12;startSize=8;endSize=8;" edge="1" parent="1" source="qdkJfRviQrZeMFLgg1Ej-92" target="qdkJfRviQrZeMFLgg1Ej-97">
          <mxGeometry relative="1" as="geometry" />
        </mxCell>
        <mxCell id="qdkJfRviQrZeMFLgg1Ej-91" value="1" style="edgeLabel;html=1;align=center;verticalAlign=middle;resizable=0;points=[];fontSize=16;" vertex="1" connectable="0" parent="qdkJfRviQrZeMFLgg1Ej-90">
          <mxGeometry x="0.0134" y="-5" relative="1" as="geometry">
            <mxPoint y="-1" as="offset" />
          </mxGeometry>
        </mxCell>
        <mxCell id="qdkJfRviQrZeMFLgg1Ej-92" value="Produce a Jupyter Notebook to train a machine learning model to recognise the different classes in the provided dataset (see case study, under units)." style="rounded=0;whiteSpace=wrap;html=1;fontSize=16;align=left;fillColor=#f5f5f5;fontColor=#333333;strokeColor=#666666;" vertex="1" parent="1">
          <mxGeometry x="-3886" y="713.3900000000003" width="307" height="115.22" as="geometry" />
        </mxCell>
        <mxCell id="qdkJfRviQrZeMFLgg1Ej-93" style="edgeStyle=none;curved=1;rounded=0;orthogonalLoop=1;jettySize=auto;html=1;fontSize=12;startSize=8;endSize=8;" edge="1" parent="1" source="qdkJfRviQrZeMFLgg1Ej-50" target="qdkJfRviQrZeMFLgg1Ej-92">
          <mxGeometry relative="1" as="geometry" />
        </mxCell>
        <mxCell id="qdkJfRviQrZeMFLgg1Ej-94" value="demonstrate a comparison of different machine learning algorithms" style="rounded=0;whiteSpace=wrap;html=1;fontSize=16;align=left;fillColor=#f5f5f5;fontColor=#333333;strokeColor=#666666;" vertex="1" parent="1">
          <mxGeometry x="-4364" y="701" width="259" height="98" as="geometry" />
        </mxCell>
        <mxCell id="qdkJfRviQrZeMFLgg1Ej-95" value="demonstrate plotting (in particular confusion matrices)," style="whiteSpace=wrap;html=1;fontSize=16;align=left;rounded=0;fillColor=#f5f5f5;fontColor=#333333;strokeColor=#666666;" vertex="1" parent="1">
          <mxGeometry x="-4312.57" y="959.9999999999986" width="218.5" height="93.72" as="geometry" />
        </mxCell>
        <mxCell id="qdkJfRviQrZeMFLgg1Ej-96" value="demonstrate hyper-parameter optimisation" style="rounded=0;whiteSpace=wrap;html=1;fontSize=16;align=left;fillColor=#f5f5f5;fontColor=#333333;strokeColor=#666666;" vertex="1" parent="1">
          <mxGeometry x="-4345.07" y="845.9999999999991" width="251" height="89" as="geometry" />
        </mxCell>
        <mxCell id="qdkJfRviQrZeMFLgg1Ej-97" value="Study/research the subject and create tasks base on your research" style="whiteSpace=wrap;html=1;fontSize=16;align=left;fillColor=#e51400;strokeColor=#B20000;rounded=0;fontColor=#ffffff;" vertex="1" parent="1">
          <mxGeometry x="-3929" y="550" width="234" height="95" as="geometry" />
        </mxCell>
        <mxCell id="qdkJfRviQrZeMFLgg1Ej-98" value="Maryam" style="image;sketch=0;aspect=fixed;html=1;points=[];align=center;fontSize=12;image=img/lib/mscae/Person.svg;" vertex="1" parent="1">
          <mxGeometry x="-3865" y="480.0300000000002" width="25.16" height="34" as="geometry" />
        </mxCell>
        <mxCell id="qdkJfRviQrZeMFLgg1Ej-99" value="???" style="shape=actor;whiteSpace=wrap;html=1;fontSize=16;fillColor=#f8cecc;strokeColor=#b85450;" vertex="1" parent="1">
          <mxGeometry x="-1201" y="503" width="42" height="54" as="geometry" />
        </mxCell>
        <mxCell id="qdkJfRviQrZeMFLgg1Ej-100" value="???" style="shape=actor;whiteSpace=wrap;html=1;fontSize=16;fillColor=#f8cecc;strokeColor=#b85450;" vertex="1" parent="1">
          <mxGeometry x="-2219" y="9" width="42" height="54" as="geometry" />
        </mxCell>
        <mxCell id="qdkJfRviQrZeMFLgg1Ej-101" value="Raza" style="image;sketch=0;aspect=fixed;html=1;points=[];align=center;fontSize=12;image=img/lib/mscae/Person.svg;" vertex="1" parent="1">
          <mxGeometry x="-3810" y="480.0300000000002" width="25.16" height="34" as="geometry" />
        </mxCell>
        <mxCell id="qdkJfRviQrZeMFLgg1Ej-102" value="&lt;h3 style=&quot;border-color: var(--border-color); margin: 6px 0px; font-family: &amp;quot;Lato Extended&amp;quot;, Lato, &amp;quot;Helvetica Neue&amp;quot;, Helvetica, Arial, sans-serif; line-height: 1.5; text-rendering: optimizelegibility; font-size: 1.5em;&quot;&gt;part 1&lt;span style=&quot;font-weight: normal;&quot;&gt;:&lt;/span&gt;&lt;/h3&gt;&lt;h3 style=&quot;border-color: var(--border-color); margin: 6px 0px; font-family: &amp;quot;Lato Extended&amp;quot;, Lato, &amp;quot;Helvetica Neue&amp;quot;, Helvetica, Arial, sans-serif; font-weight: normal; line-height: 1.5; text-rendering: optimizelegibility; font-size: 1.5em;&quot;&gt;&amp;nbsp;Low Fidelity Prototype&lt;/h3&gt;" style="rounded=1;whiteSpace=wrap;html=1;fontSize=16;align=center;fillColor=#ffcd28;strokeColor=#d79b00;gradientColor=#ffa500;" vertex="1" parent="1">
          <mxGeometry x="-4487" y="-404" width="207" height="143.93" as="geometry" />
        </mxCell>
        <mxCell id="qdkJfRviQrZeMFLgg1Ej-103" value="&lt;h3 style=&quot;border-color: var(--border-color); margin: 6px 0px; font-family: &amp;quot;Lato Extended&amp;quot;, Lato, &amp;quot;Helvetica Neue&amp;quot;, Helvetica, Arial, sans-serif; line-height: 1.5; text-rendering: optimizelegibility; font-size: 1.5em;&quot;&gt;part 1&lt;span style=&quot;font-weight: normal;&quot;&gt;:&lt;/span&gt;&lt;/h3&gt;&lt;h3 style=&quot;border-color: var(--border-color); margin: 6px 0px; font-family: &amp;quot;Lato Extended&amp;quot;, Lato, &amp;quot;Helvetica Neue&amp;quot;, Helvetica, Arial, sans-serif; font-weight: normal; line-height: 1.5; text-rendering: optimizelegibility; font-size: 1.5em;&quot;&gt;&amp;nbsp;Low Fidelity Prototype&lt;/h3&gt;" style="rounded=1;whiteSpace=wrap;html=1;fontSize=16;align=center;fillColor=#ffcd28;strokeColor=#d79b00;gradientColor=#ffa500;" vertex="1" parent="1">
          <mxGeometry x="-4257" y="-404" width="207" height="143.93" as="geometry" />
        </mxCell>
        <mxCell id="qdkJfRviQrZeMFLgg1Ej-104" value="&lt;h3 style=&quot;border-color: var(--border-color); margin: 6px 0px; font-family: &amp;quot;Lato Extended&amp;quot;, Lato, &amp;quot;Helvetica Neue&amp;quot;, Helvetica, Arial, sans-serif; line-height: 1.5; text-rendering: optimizelegibility; font-size: 1.5em;&quot;&gt;part 1&lt;span style=&quot;font-weight: normal;&quot;&gt;:&lt;/span&gt;&lt;/h3&gt;&lt;h3 style=&quot;border-color: var(--border-color); margin: 6px 0px; font-family: &amp;quot;Lato Extended&amp;quot;, Lato, &amp;quot;Helvetica Neue&amp;quot;, Helvetica, Arial, sans-serif; font-weight: normal; line-height: 1.5; text-rendering: optimizelegibility; font-size: 1.5em;&quot;&gt;&amp;nbsp;Low Fidelity Prototype&lt;/h3&gt;" style="rounded=1;whiteSpace=wrap;html=1;fontSize=16;align=center;fillColor=#ffcd28;strokeColor=#d79b00;gradientColor=#ffa500;" vertex="1" parent="1">
          <mxGeometry x="-4024" y="-404" width="207" height="143.93" as="geometry" />
        </mxCell>
      </root>
    </mxGraphModel>
  </diagram>
</mxfile>
